<?xml version="1.0" encoding="UTF-8" standalone="no"?>
<svg width="88px" height="47px" viewBox="0 0 88 47" version="1.1" xmlns="http://www.w3.org/2000/svg" xmlns:xlink="http://www.w3.org/1999/xlink">
    <!-- Generator: Sketch 46.2 (44496) - http://www.bohemiancoding.com/sketch -->
    <title>box_blue_rgb_0061D5</title>
    <desc>Created with Sketch.</desc>
    <defs>
        <polygon id="path-1" points="0 47 0 0.058557377 87.8413709 0.058557377 87.8413709 47"></polygon>
    </defs>
    <g id="Symbols" stroke="none" stroke-width="1" fill="none" fill-rule="evenodd">
        <g id="Integrations" transform="translate(-596.000000, -239.000000)">
            <g id="Group-2" transform="translate(134.000000, 227.000000)">
                <g id="box_blue_rgb_0061D5" transform="translate(462.000000, 12.000000)">
                    <mask id="mask-2" fill="white">
                        <use xlink:href="#path-1"></use>
                    </mask>
                    <g id="Clip-2"></g>
                    <path d="M45.3427158,40.3789713 C39.9119132,40.3789713 35.5084772,35.9395902 35.5084772,30.4594672 C35.5084772,24.9839672 39.9119132,20.5455492 45.3427158,20.5455492 C50.7712278,20.5455492 55.1723731,24.9839672 55.1723731,30.4594672 C55.1723731,35.9395902 50.7712278,40.3789713 45.3427158,40.3789713 M16.3861345,40.3789713 C10.9564772,40.3789713 6.54998698,35.9407459 6.54998698,30.4615861 C6.54998698,24.9839672 10.9564772,20.5455492 16.3861345,20.5455492 C21.8152191,20.5455492 26.2125466,24.9839672 26.2125466,30.4594672 C26.2125466,35.9395902 21.8152191,40.3789713 16.3861345,40.3789713 M45.3427158,13.9249057 C39.0714273,13.9249057 33.6140911,17.4843852 30.8656659,22.7106311 C28.1164772,17.4843852 22.6618134,13.9249057 16.3861345,13.9249057 C12.7012061,13.9249057 9.29688503,15.1548033 6.54998698,17.2324344 L6.54998698,3.30001639 C6.51753579,1.4997623 5.06257701,0.058557377 3.2722256,0.058557377 C1.48187419,0.058557377 0.0410412148,1.4997623 0,3.30001639 L0,30.7351107 L0.00362689805,30.7351107 C0.147939262,39.7433156 7.4225423,47 16.3861345,47 C22.6618134,47 28.1164772,43.4372459 30.8656659,38.2160082 C33.6140911,43.4372459 39.0714273,47 45.3427158,47 C54.3906811,47 61.7305683,39.5963443 61.7305683,30.4594672 C61.7305683,21.3268279 54.3906811,13.9249057 45.3427158,13.9249057" id="Fill-1" fill="#355B99" mask="url(#mask-2)"></path>
                    <path d="M87.1600868,41.4636311 L78.2520434,30.4378934 L87.1709675,19.3907746 C88.2983601,17.9333893 87.9751844,15.8987131 86.4184816,14.8175205 C84.8598698,13.7272746 82.6732321,14.0067705 81.4671931,15.4208156 L81.4671931,15.4185041 L73.7942039,24.9078811 L66.127705,15.4185041 L66.127705,15.4208156 C64.9342646,14.0067705 62.7338829,13.7272746 61.1800434,14.8175205 C59.6262039,15.8996762 59.3015011,17.9333893 60.4346204,19.3907746 L60.4315662,19.3907746 L69.3342646,30.4378934 L60.4315662,41.4636311 L60.4346204,41.4636311 C59.3015011,42.9250615 59.6262039,44.953959 61.1800434,46.0393893 C62.7338829,47.1252049 64.9342646,46.848791 66.127705,45.432627 L73.7942039,35.9563484 L81.4563124,45.432627 C82.6634967,46.848791 84.8497527,47.1252049 86.4081735,46.0393893 C87.9650672,44.953959 88.2897701,42.9250615 87.1600868,41.4636311" id="Fill-3" fill="#355B99" mask="url(#mask-2)"></path>
                </g>
            </g>
        </g>
    </g>
</svg>