<?xml version="1.0" encoding="utf-8"?>
<!-- Generator: Adobe Illustrator 21.1.0, SVG Export Plug-In . SVG Version: 6.00 Build 0)  -->
<svg version="1.1" baseProfile="basic" id="Layer_1"
	 xmlns="http://www.w3.org/2000/svg" xmlns:xlink="http://www.w3.org/1999/xlink" x="0px" y="0px" viewBox="0 0 600 600"
	 xml:space="preserve">
<style type="text/css">
	.st0{fill:#D2D3D4;}
	.st1{fill:none;stroke:#FFFFFF;stroke-width:22;stroke-miterlimit:10;}
	.st2{fill:#FFFFFF;}
	.st3{fill:#FFFFFF;stroke:#F15E4F;stroke-width:22;stroke-miterlimit:10;}
	.st4{fill:#D2D3D4;stroke:#F15E4F;stroke-width:20.6065;stroke-miterlimit:10;}
	.st5{fill:#FFFFFF;stroke:#F15E4F;stroke-width:20.6065;stroke-miterlimit:10;}
	.st6{fill:none;}
	.st7{fill:none;stroke:#D2D3D4;stroke-width:17;stroke-miterlimit:10;}
	.st8{fill:#FFFFFF;stroke:#F15E4F;stroke-width:12.3068;stroke-miterlimit:10;}
	.st9{fill:#FFFFFF;stroke:#F15E4F;stroke-width:12.1831;stroke-miterlimit:10;}
	.st10{fill:none;stroke:#D2D3D4;stroke-width:10.0226;stroke-miterlimit:10;}
	.st11{fill:none;stroke:url(#SVGID_1_);stroke-width:23.0065;stroke-linejoin:round;stroke-miterlimit:10;}
	.st12{fill:none;stroke:#D2D3D4;stroke-width:20;stroke-miterlimit:10;}
	.st13{fill:none;stroke:url(#SVGID_2_);stroke-width:28.9158;stroke-miterlimit:10;}
</style>
<g>
	<g>
	</g>
	<g>
		<line class="st10" x1="206.9" y1="150.3" x2="285.9" y2="150.3"/>
		<line class="st10" x1="206.9" y1="166.1" x2="301.2" y2="166.1"/>
		<line class="st10" x1="206.9" y1="182" x2="307.2" y2="182"/>
		<line class="st10" x1="206.9" y1="197.9" x2="307.2" y2="197.9"/>
		<line class="st10" x1="206.8" y1="213.8" x2="307.2" y2="213.8"/>
		<line class="st10" x1="206.8" y1="229.6" x2="307.2" y2="229.6"/>
		<line class="st10" x1="206.8" y1="245.5" x2="307.3" y2="245.5"/>
		<line class="st10" x1="275.1" y1="262" x2="307.3" y2="262"/>
	</g>
	<circle class="st2" cx="382.1" cy="324.6" r="17.5"/>
	<path class="st12" d="M178.2,386.8v76.7"/>
	<path class="st12" d="M216.6,425.2c0,0-76.7,0-76.7,0"/>
	<path class="st1" d="M313.5,371.1c-11.8,11.8-12.1,30.8-0.6,42.3l69.2,69.2c11.5,11.5,30.4,11.2,42.2-0.6c0,0,0,0,0.1-0.1
		c11.8-11.8,12.1-30.7,0.6-42.2l-39.7-40.7c-4.8-4.8-4.6-12.8,0.4-17.4l104.2-91.7l-94.2-86.5c-5.1-4.7-13.4-1-13.4,5.9l-0.1,123.3"
		/>
	<path class="st1" d="M339.6,397.2c11.8-11.8,12.1-30.8,0.6-42.3l-69.2-69.2c-11.5-11.5-30.4-11.2-42.2,0.6c0,0,0,0-0.1,0.1
		c-11.8,11.8-12.1,30.7-0.6,42.2l51.3,51.3"/>
	<g>
		<path class="st2" d="M345.7,325l0.2-171.6L282,95.7h-91.8c-12.7,0-23,10.3-23,23V347c-38.4,5.4-68,38.4-68,78.3
			c0,21.8,8.7,42.1,24.5,57.2c14.8,14.2,34.1,21.8,54.5,21.8c1.3,0,2.6,0,3.9-0.1c19.6-0.9,38.1-9.2,52.1-23.2
			c14-14,22.2-32.5,23-52.2c0.9-19.8-5.6-39-18.2-54.2L222,388.8c9.1,10.9,13.8,24.8,13.1,39.1c-1.3,29.1-25.1,53-54.2,54.3
			c-15.8,0.7-30.8-4.8-42.1-15.7c-11.4-10.9-17.7-25.5-17.7-41.3c0-31.4,25.6-57,57-57h11V118.7c0-0.6,0.4-1,1-1h83.3l50.3,45.5
			l-0.2,140.1l21.3,21.3L345.7,325z"/>
	</g>
</g>
<circle class="st2" cx="230.5" cy="381.7" r="17.5"/>
</svg>
