<?xml version="1.0" encoding="utf-8"?>
<!-- Generator: Adobe Illustrator 21.1.0, SVG Export Plug-In . SVG Version: 6.00 Build 0)  -->
<svg version="1.1" baseProfile="basic" id="Layer_1"
	 xmlns="http://www.w3.org/2000/svg" xmlns:xlink="http://www.w3.org/1999/xlink" x="0px" y="0px" viewBox="0 0 900 900"
	 xml:space="preserve">
<style type="text/css">
	.st0{fill:#CCCCCC;}
	.st1{fill:none;stroke:#41BFB9;stroke-width:6.2165;stroke-linecap:round;stroke-linejoin:round;stroke-miterlimit:10;}
	.st2{fill:none;stroke:#7E5AA6;stroke-width:12.75;stroke-linecap:round;stroke-linejoin:round;stroke-miterlimit:10;}
	.st3{fill:none;stroke:url(#SVGID_1_);stroke-width:12.75;stroke-linecap:round;stroke-linejoin:round;stroke-miterlimit:10;}
	.st4{fill:none;stroke:#41BFB9;stroke-width:12.75;stroke-linecap:round;stroke-linejoin:round;stroke-miterlimit:10;}
	.st5{fill:none;stroke:url(#SVGID_2_);stroke-width:12.75;stroke-linecap:round;stroke-linejoin:round;stroke-miterlimit:10;}
	.st6{fill:#7E5AA6;}
	.st7{fill:#41BBB9;}
	.st8{fill:#FFFFFF;stroke:#F15E4F;stroke-width:22.0383;stroke-miterlimit:10;}
	.st9{opacity:0.6;}
	.st10{fill:#FFFFFF;}
	.st11{fill:none;stroke:#FFFFFF;stroke-width:21;stroke-miterlimit:10;}
	.st12{fill:none;stroke:url(#SVGID_3_);stroke-width:28.9299;stroke-miterlimit:10;}
	.st13{fill:none;stroke:#FFFFFF;stroke-width:25.5;stroke-miterlimit:10;}
	.st14{fill:none;stroke:#CCCCCC;stroke-width:18;stroke-miterlimit:10;}
	.st15{opacity:0.6;fill:none;stroke:#FFFFFF;stroke-width:18;stroke-miterlimit:10;}
	.st16{fill:none;stroke:url(#SVGID_4_);stroke-width:25.5;stroke-miterlimit:10;}
	.st17{fill:#D2D3D4;}
	.st18{fill:#EEF3F3;}
	.st19{fill:url(#SVGID_5_);}
	.st20{fill:none;stroke:url(#SVGID_6_);stroke-width:25.5;stroke-miterlimit:10;}
	.st21{fill:#3EB0A9;}
	.st22{fill:#7865AC;}
	.st23{fill:#493B96;}
	.st24{fill:none;stroke:#CCCCCC;stroke-width:90;stroke-miterlimit:10;}
	.st25{fill:#D32150;}
	.st26{fill:none;stroke:#FFFFFF;stroke-width:30;stroke-miterlimit:10;}
	.st27{fill:#FFFFFF;stroke:#231F20;stroke-miterlimit:10;}
	.st28{fill:none;stroke:url(#SVGID_7_);stroke-width:12.75;stroke-linecap:round;stroke-linejoin:round;stroke-miterlimit:10;}
	.st29{fill:none;stroke:url(#SVGID_8_);stroke-width:12.75;stroke-linecap:round;stroke-linejoin:round;stroke-miterlimit:10;}
	.st30{fill:none;stroke:url(#SVGID_9_);stroke-width:12.75;stroke-linecap:round;stroke-linejoin:round;stroke-miterlimit:10;}
	.st31{fill:none;stroke:url(#SVGID_10_);stroke-width:12.75;stroke-linecap:round;stroke-linejoin:round;stroke-miterlimit:10;}
	.st32{fill:none;stroke:url(#SVGID_11_);stroke-width:12.75;stroke-linecap:round;stroke-linejoin:round;stroke-miterlimit:10;}
	.st33{fill:#FFFFFF;stroke:#5063AE;stroke-width:12.75;stroke-linecap:round;stroke-linejoin:round;stroke-miterlimit:10;}
	.st34{fill:none;stroke:url(#SVGID_12_);stroke-width:12.75;stroke-linecap:round;stroke-linejoin:round;stroke-miterlimit:10;}
	.st35{fill:none;stroke:url(#SVGID_13_);stroke-width:12.75;stroke-linecap:round;stroke-linejoin:round;stroke-miterlimit:10;}
	.st36{fill:none;stroke:url(#SVGID_14_);stroke-width:12.75;stroke-linecap:round;stroke-linejoin:round;stroke-miterlimit:10;}
	.st37{fill:none;stroke:url(#SVGID_15_);stroke-width:12.75;stroke-linecap:round;stroke-linejoin:round;stroke-miterlimit:10;}
	.st38{fill:none;stroke:#5063AE;stroke-width:12.75;stroke-linecap:round;stroke-linejoin:round;stroke-miterlimit:10;}
	.st39{fill:#41BFB9;}
	.st40{fill:none;stroke:#FFFFFF;stroke-width:49.9386;stroke-miterlimit:10;}
	.st41{fill:none;stroke:#CCCCCC;stroke-width:3.8795;stroke-miterlimit:10;}
	.st42{fill:#FFFFFF;stroke:url(#SVGID_16_);stroke-width:6.2165;stroke-linecap:round;stroke-linejoin:round;stroke-miterlimit:10;}
	.st43{fill:#FFFFFF;stroke:url(#SVGID_17_);stroke-width:6.2165;stroke-linecap:round;stroke-linejoin:round;stroke-miterlimit:10;}
	.st44{fill:#FFFFFF;stroke:#5063AE;stroke-width:6.2165;stroke-linecap:round;stroke-linejoin:round;stroke-miterlimit:10;}
	.st45{fill:none;stroke:#CCCCCC;stroke-width:5.9648;stroke-miterlimit:10;}
	.st46{fill:#FFFFFF;stroke:#41BFB9;stroke-width:9;stroke-linecap:round;stroke-linejoin:round;stroke-miterlimit:10;}
	.st47{fill:#D2D3D4;stroke:#41BFB9;stroke-width:9;stroke-linecap:round;stroke-linejoin:round;stroke-miterlimit:10;}
	.st48{fill:#D2D3D4;stroke:#7E5AA6;stroke-width:9;stroke-linecap:round;stroke-linejoin:round;stroke-miterlimit:10;}
	.st49{fill:#D2D3D4;stroke:#7E5AA6;stroke-width:6;stroke-linecap:round;stroke-linejoin:round;stroke-miterlimit:10;}
	.st50{fill:#FFFFFF;stroke:#7E5AA6;stroke-width:6;stroke-linecap:round;stroke-linejoin:round;stroke-miterlimit:10;}
	.st51{fill:#FFFFFF;stroke:#5063AE;stroke-width:9;stroke-linecap:round;stroke-linejoin:round;stroke-miterlimit:10;}
	.st52{fill:none;stroke:#CCCCCC;stroke-width:6;stroke-miterlimit:10;}
	.st53{fill:none;stroke:url(#SVGID_18_);stroke-width:9;stroke-linecap:round;stroke-linejoin:round;stroke-miterlimit:10;}
	.st54{fill:#FFFFFF;stroke:#41BFB9;stroke-width:6.2165;stroke-linecap:round;stroke-linejoin:round;stroke-miterlimit:10;}
	.st55{fill:#D2D3D4;stroke:#41BFB9;stroke-width:6.2165;stroke-linecap:round;stroke-linejoin:round;stroke-miterlimit:10;}
	.st56{fill:#7E5AA6;stroke:#FFFFFF;stroke-width:6.2165;stroke-linecap:round;stroke-linejoin:round;stroke-miterlimit:10;}
	.st57{fill:#D2D3D4;stroke:#FFFFFF;stroke-width:6.2165;stroke-linecap:round;stroke-linejoin:round;stroke-miterlimit:10;}
	.st58{fill:#41BFB9;stroke:#FFFFFF;stroke-width:6.2165;stroke-linecap:round;stroke-linejoin:round;stroke-miterlimit:10;}
	.st59{fill:#5063AE;}
	.st60{fill:#5063AE;stroke:#FFFFFF;stroke-width:6.2165;stroke-linecap:round;stroke-linejoin:round;stroke-miterlimit:10;}
	.st61{fill:none;stroke:#FFFFFF;stroke-width:6.2165;stroke-linecap:round;stroke-linejoin:round;stroke-miterlimit:10;}
	.st62{fill:none;stroke:url(#SVGID_19_);stroke-width:6.2165;stroke-linecap:round;stroke-linejoin:round;stroke-miterlimit:10;}
	.st63{fill:none;stroke:#5063AE;stroke-width:6.2165;stroke-linecap:round;stroke-linejoin:round;stroke-miterlimit:10;}
	.st64{fill:none;stroke:url(#SVGID_20_);stroke-width:6.2165;stroke-linecap:round;stroke-linejoin:round;stroke-miterlimit:10;}
	.st65{fill:none;stroke:#7E5AA6;stroke-width:6.2165;stroke-linecap:round;stroke-linejoin:round;stroke-miterlimit:10;}
	.st66{fill:none;stroke:url(#SVGID_21_);stroke-width:6.2165;stroke-linecap:round;stroke-linejoin:round;stroke-miterlimit:10;}
	.st67{fill:none;stroke:url(#SVGID_22_);stroke-width:6.2165;stroke-linecap:round;stroke-linejoin:round;stroke-miterlimit:10;}
	.st68{fill:none;stroke:url(#SVGID_23_);stroke-width:6.2165;stroke-linecap:round;stroke-linejoin:round;stroke-miterlimit:10;}
	.st69{fill:url(#SVGID_24_);}
	.st70{fill:none;stroke:url(#SVGID_25_);stroke-width:6.1159;stroke-linecap:round;stroke-linejoin:round;stroke-miterlimit:10;}
	.st71{fill:none;stroke:#5063AE;stroke-width:6.1159;stroke-linecap:round;stroke-linejoin:round;stroke-miterlimit:10;}
	.st72{fill:none;stroke:url(#SVGID_26_);stroke-width:6.1159;stroke-linecap:round;stroke-linejoin:round;stroke-miterlimit:10;}
	.st73{fill:none;stroke:#41BFB9;stroke-width:6.1159;stroke-linecap:round;stroke-linejoin:round;stroke-miterlimit:10;}
	.st74{fill:none;stroke:#7E5AA6;stroke-width:6.1159;stroke-linecap:round;stroke-linejoin:round;stroke-miterlimit:10;}
	.st75{fill:none;stroke:url(#SVGID_27_);stroke-width:6.1159;stroke-linecap:round;stroke-linejoin:round;stroke-miterlimit:10;}
	.st76{fill:none;stroke:url(#SVGID_28_);stroke-width:6.1159;stroke-linecap:round;stroke-linejoin:round;stroke-miterlimit:10;}
	.st77{fill:none;stroke:url(#SVGID_29_);stroke-width:6.1159;stroke-linecap:round;stroke-linejoin:round;stroke-miterlimit:10;}
	.st78{fill:url(#SVGID_30_);}
	.st79{fill:none;stroke:url(#SVGID_31_);stroke-width:6.1159;stroke-linecap:round;stroke-linejoin:round;stroke-miterlimit:10;}
	.st80{fill:none;stroke:url(#SVGID_32_);stroke-width:6.1159;stroke-linecap:round;stroke-linejoin:round;stroke-miterlimit:10;}
	.st81{fill:none;stroke:url(#SVGID_33_);stroke-width:6.1159;stroke-linecap:round;stroke-linejoin:round;stroke-miterlimit:10;}
	.st82{fill:none;stroke:url(#SVGID_34_);stroke-width:6.1159;stroke-linecap:round;stroke-linejoin:round;stroke-miterlimit:10;}
	.st83{fill:none;stroke:url(#SVGID_35_);stroke-width:6.1159;stroke-linecap:round;stroke-linejoin:round;stroke-miterlimit:10;}
	.st84{fill:url(#SVGID_36_);}
	.st85{fill:none;stroke:url(#SVGID_37_);stroke-width:6.1159;stroke-linecap:round;stroke-linejoin:round;stroke-miterlimit:10;}
	.st86{fill:none;stroke:url(#SVGID_38_);stroke-width:6.1159;stroke-linecap:round;stroke-linejoin:round;stroke-miterlimit:10;}
	.st87{fill:none;stroke:url(#SVGID_39_);stroke-width:6.1159;stroke-linecap:round;stroke-linejoin:round;stroke-miterlimit:10;}
	.st88{fill:none;stroke:url(#SVGID_40_);stroke-width:6.1159;stroke-linecap:round;stroke-linejoin:round;stroke-miterlimit:10;}
	.st89{fill:none;stroke:url(#SVGID_41_);stroke-width:6.1159;stroke-linecap:round;stroke-linejoin:round;stroke-miterlimit:10;}
	.st90{fill:url(#SVGID_42_);}
	.st91{fill:url(#SVGID_43_);}
	.st92{fill:none;stroke:url(#SVGID_44_);stroke-width:6.1159;stroke-linecap:round;stroke-linejoin:round;stroke-miterlimit:10;}
	.st93{fill:none;stroke:url(#SVGID_45_);stroke-width:6.1159;stroke-linecap:round;stroke-linejoin:round;stroke-miterlimit:10;}
	.st94{fill:none;stroke:url(#SVGID_46_);stroke-width:6.1159;stroke-linecap:round;stroke-linejoin:round;stroke-miterlimit:10;}
	.st95{fill:none;stroke:url(#SVGID_47_);stroke-width:6.1159;stroke-linecap:round;stroke-linejoin:round;stroke-miterlimit:10;}
	.st96{fill:none;stroke:url(#SVGID_48_);stroke-width:6.1159;stroke-linecap:round;stroke-linejoin:round;stroke-miterlimit:10;}
	.st97{fill:none;stroke:url(#SVGID_49_);stroke-width:6.1159;stroke-linecap:round;stroke-linejoin:round;stroke-miterlimit:10;}
	.st98{fill:none;stroke:url(#SVGID_50_);stroke-width:6.1159;stroke-linecap:round;stroke-linejoin:round;stroke-miterlimit:10;}
	.st99{fill:none;stroke:url(#SVGID_51_);stroke-width:6.1159;stroke-linecap:round;stroke-linejoin:round;stroke-miterlimit:10;}
	.st100{fill:none;stroke:url(#SVGID_52_);stroke-width:6.1159;stroke-linecap:round;stroke-linejoin:round;stroke-miterlimit:10;}
	.st101{fill:none;stroke:url(#SVGID_53_);stroke-width:6.1159;stroke-linecap:round;stroke-linejoin:round;stroke-miterlimit:10;}
	.st102{fill:none;stroke:url(#SVGID_54_);stroke-width:6.1159;stroke-linecap:round;stroke-linejoin:round;stroke-miterlimit:10;}
	.st103{fill:none;stroke:url(#SVGID_55_);stroke-width:9;stroke-linecap:round;stroke-linejoin:round;stroke-miterlimit:10;}
	.st104{fill:none;stroke:url(#SVGID_56_);stroke-width:9;stroke-linecap:round;stroke-linejoin:round;stroke-miterlimit:10;}
	.st105{fill:none;stroke:url(#SVGID_57_);stroke-width:9;stroke-linecap:round;stroke-linejoin:round;stroke-miterlimit:10;}
	.st106{fill:none;stroke:#7E5AA6;stroke-width:9;stroke-linecap:round;stroke-linejoin:round;stroke-miterlimit:10;}
	.st107{fill:none;stroke:url(#SVGID_58_);stroke-width:9;stroke-linecap:round;stroke-linejoin:round;stroke-miterlimit:10;}
	.st108{fill:none;stroke:#5063AE;stroke-width:9;stroke-linecap:round;stroke-linejoin:round;stroke-miterlimit:10;}
	.st109{fill:#5063AE;stroke:#5063AE;stroke-width:9;stroke-linecap:round;stroke-linejoin:round;stroke-miterlimit:10;}
	.st110{fill:none;stroke:#5063AE;stroke-width:6;stroke-linecap:round;stroke-linejoin:round;stroke-miterlimit:10;}
	.st111{fill:#7E5AA6;stroke:#7E5AA6;stroke-width:9;stroke-linecap:round;stroke-linejoin:round;stroke-miterlimit:10;}
	.st112{fill:none;stroke:#7E5AA6;stroke-width:6;stroke-linecap:round;stroke-linejoin:round;stroke-miterlimit:10;}
	.st113{fill:none;stroke:#41BFB9;stroke-width:9;stroke-linecap:round;stroke-linejoin:round;stroke-miterlimit:10;}
	.st114{fill:#41BFB9;stroke:#41BFB9;stroke-width:9;stroke-linecap:round;stroke-linejoin:round;stroke-miterlimit:10;}
	.st115{fill:none;stroke:#41BFB9;stroke-width:6;stroke-linecap:round;stroke-linejoin:round;stroke-miterlimit:10;}
	.st116{fill:none;stroke:#41BFB9;stroke-width:3;stroke-miterlimit:10;}
	.st117{fill:none;stroke:#5063AE;stroke-width:3;stroke-miterlimit:10;}
	.st118{fill:none;stroke:#7E5AA6;stroke-width:3;stroke-miterlimit:10;}
	.st119{fill:none;stroke:url(#SVGID_59_);stroke-width:9;stroke-linecap:round;stroke-linejoin:round;stroke-miterlimit:10;}
	.st120{fill:none;stroke:url(#SVGID_60_);stroke-width:6;stroke-linecap:round;stroke-linejoin:round;stroke-miterlimit:10;}
	.st121{fill:none;stroke:url(#SVGID_61_);stroke-width:9;stroke-linecap:round;stroke-linejoin:round;stroke-miterlimit:10;}
	.st122{fill:none;stroke:url(#SVGID_62_);stroke-width:9;stroke-linecap:round;stroke-linejoin:round;stroke-miterlimit:10;}
	.st123{fill:none;stroke:url(#SVGID_63_);stroke-width:9;stroke-linecap:round;stroke-linejoin:round;stroke-miterlimit:10;}
	.st124{fill:none;stroke:url(#SVGID_64_);stroke-width:9;stroke-linecap:round;stroke-linejoin:round;stroke-miterlimit:10;}
	.st125{fill:none;stroke:url(#SVGID_65_);stroke-width:9;stroke-linecap:round;stroke-linejoin:round;stroke-miterlimit:10;}
	.st126{fill:#FFFFFF;stroke:#5063AE;stroke-width:6;stroke-linecap:round;stroke-linejoin:round;stroke-miterlimit:10;}
	.st127{fill:none;stroke:url(#SVGID_66_);stroke-width:9;stroke-linecap:round;stroke-linejoin:round;stroke-miterlimit:10;}
	.st128{fill:none;stroke:url(#SVGID_67_);stroke-width:9;stroke-linecap:round;stroke-linejoin:round;stroke-miterlimit:10;}
	.st129{fill:none;stroke:url(#SVGID_68_);stroke-width:9;stroke-linecap:round;stroke-linejoin:round;stroke-miterlimit:10;}
	.st130{fill:none;stroke:#3E3092;stroke-width:3;stroke-miterlimit:10;}
	.st131{fill:none;stroke:url(#SVGID_69_);stroke-width:9;stroke-linecap:round;stroke-linejoin:round;stroke-miterlimit:10;}
</style>
<g>
	<path class="st17" d="M218.2,426.1l-15.7,27.1c-2.4,4.2-1,9.6,3.3,12.1l93,53.6c4.3,2.5,9.7,1,12.1-3.2l15.7-27.1"/>
	<path class="st17" d="M586,483.4l8.1,30.2c1.3,4.7,6.1,7.5,10.9,6.2L708.7,492c4.7-1.3,7.6-6.1,6.3-10.8l-8.1-30.2"/>
	<path class="st17" d="M383.6,700.5l-4.3,31c-0.7,4.8,2.7,9.3,7.6,9.9L493.3,756c4.9,0.7,9.3-2.7,10-7.5l4.3-31"/>
	<g>
		<g>
			<path class="st10" d="M544.3,552.6c11.5,43-14.3,87.4-57.8,99s-88.1-13.8-99.6-56.9c-11.5-43,14.3-87.4,57.8-99
				C488.1,484.1,532.7,509.6,544.3,552.6z"/>
			<g>
				<g>
					<path class="st10" d="M686.4,312.6c11.3,42-14,85.3-56.4,96.7c-42.4,11.4-86-13.5-97.3-55.5c-11.3-42,14-85.3,56.4-96.7
						C631.6,245.8,675.1,270.6,686.4,312.6z"/>
					<path class="st10" d="M424.4,384.6c-26.3,45.5-85,61-131,34.4s-62-85-35.6-130.5s85-61,131-34.4S450.7,339.1,424.4,384.6z"/>
				</g>
			</g>
			<linearGradient id="SVGID_1_" gradientUnits="userSpaceOnUse" x1="95.4362" y1="308.9687" x2="826.6594" y2="308.9687">
				<stop  offset="1.198948e-03" style="stop-color:#41BFB9"/>
				<stop  offset="0.8" style="stop-color:#5063AE"/>
				<stop  offset="1" style="stop-color:#7E5AA6"/>
			</linearGradient>
			
				<polyline style="fill:none;stroke:url(#SVGID_1_);stroke-width:9;stroke-linecap:round;stroke-linejoin:round;stroke-miterlimit:10;" points="
				243.2,507.8 136.8,544.3 174.9,510.2 117.2,426.1 180,395.6 99.9,314.7 201.3,289.7 201.3,156.2 272.4,177.8 304.1,73.6 
				349.7,186.8 435.1,115.6 467.8,238.9 530.7,123.9 599.1,170.6 699.8,93.4 688.5,199.4 779,204.8 746.6,267.6 809.6,289.7 
				753.8,350.4 795.2,395.6 755.6,418.3 822.2,510.2 739.4,508.5 			"/>
			<line class="st106" x1="764.6" y1="605.4" x2="661.5" y2="523.4"/>
			<line class="st106" x1="739.4" y1="508.5" x2="764.6" y2="605.4"/>
			<linearGradient id="SVGID_2_" gradientUnits="userSpaceOnUse" x1="161.0639" y1="676.0923" x2="732.2728" y2="676.0923">
				<stop  offset="1.198948e-03" style="stop-color:#41BFB9"/>
				<stop  offset="0.8" style="stop-color:#5063AE"/>
				<stop  offset="1" style="stop-color:#7E5AA6"/>
			</linearGradient>
			
				<polyline style="fill:none;stroke:url(#SVGID_2_);stroke-width:9;stroke-linecap:round;stroke-linejoin:round;stroke-miterlimit:10;" points="
				243.2,507.8 165.6,616.2 261.2,616.2 201.3,756.1 312.9,717.5 326.6,833.6 437.6,766.7 531.6,844.4 564.9,703.9 674.9,746.5 
				634.5,629.6 727.8,652.5 661.5,523.4 			"/>
			<g>
				<g>
					
						<ellipse transform="matrix(0.1365 -0.9906 0.9906 0.1365 -203.6635 920.834)" class="st59" cx="426.4" cy="577.2" rx="9.3" ry="9.4"/>
					
						<ellipse transform="matrix(0.1365 -0.9906 0.9906 0.1365 -150.2519 1002.369)" class="st59" cx="499.9" cy="587.4" rx="9.3" ry="9.4"/>
				</g>
				<g>
					<g>
						<path class="st108" d="M383.6,700.5l-4.3,31c-0.7,4.8,2.7,9.3,7.6,9.9L493.3,756c4.9,0.7,9.3-2.7,10-7.5l4.3-31"/>
						<path class="st109" d="M457.9,751.5c-1.4,9.8-10.4,16.6-20.3,15.2c-9.9-1.4-16.8-10.4-15.4-20.2"/>
						<g>
							<path class="st108" d="M580.8,587.4c8.8-63.9-36.1-122.9-100.3-131.8c-64.2-8.8-123.4,35.8-132.2,99.7"/>
							<path class="st108" d="M348.3,555.3c-5.7,41.2,11,80.4,40.7,105.4l-5.5,39.7l25.3,3.5l17.5-126.7"/>
							<path class="st108" d="M499.9,587.4l-17.5,126.7l25.2,3.5l5.5-39.7c35.4-16,62.1-49.2,67.8-90.5"/>
						</g>
					</g>
					<line class="st110" x1="380.8" y1="720.3" x2="504.8" y2="737.4"/>
					<line class="st108" x1="383.6" y1="700.5" x2="507.6" y2="717.5"/>
					<polyline class="st110" points="426.4,577.2 447.8,595.1 461.9,584.5 472.2,597.9 499.9,587.4 					"/>
				</g>
			</g>
			<g>
				<g>
					<g>
						
							<ellipse transform="matrix(0.966 -0.2585 0.2585 0.966 -71.6825 161.3198)" class="st6" cx="577.5" cy="353.2" rx="9.4" ry="9.4"/>
						
							<ellipse transform="matrix(0.966 -0.2585 0.2585 0.966 -64.2891 179.1912)" class="st6" cx="649.2" cy="334" rx="9.4" ry="9.4"/>
					</g>
					<g>
						<g>
							<path class="st106" d="M586,483.4l8.1,30.2c1.3,4.7,6.1,7.5,10.9,6.2L708.7,492c4.7-1.3,7.6-6.1,6.3-10.8l-8.1-30.2"/>
							<path class="st111" d="M674.3,501.5c2.6,9.5-3.2,19.3-12.8,21.9s-19.5-3.1-22.1-12.6"/>
							<g>
								<path class="st106" d="M723.8,302.6c-16.7-62.3-81-99.3-143.6-82.5c-62.6,16.8-99.8,80.9-83.1,143.2"/>
								<path class="st106" d="M497.1,363.3c10.8,40.2,41.4,69.8,78.5,81.3l10.4,38.7l24.7-6.6l-33.1-123.5"/>
								<path class="st106" d="M649.2,334l33.1,123.5l24.6-6.6l-10.4-38.7c26.4-28.5,38.1-69.4,27.3-109.7"/>
							</g>
						</g>
						<line class="st112" x1="591.2" y1="502.7" x2="712.1" y2="470.4"/>
						<line class="st106" x1="586" y1="483.4" x2="706.9" y2="451"/>
						<polyline class="st112" points="577.5,353.2 604.2,361.4 613.1,346.1 627.8,354.5 649.2,334 						"/>
					</g>
				</g>
				<g>
					<g>
						<path class="st39" d="M312.5,332.8c-2.6,4.5-8.4,6-12.9,3.4s-6.1-8.4-3.5-12.8s8.4-6,12.9-3.4S315.1,328.3,312.5,332.8z"/>
						<path class="st39" d="M376.8,369.9c-2.6,4.5-8.4,6-12.9,3.4s-6.1-8.4-3.5-12.8s8.4-6,12.9-3.4
							C377.8,359.6,379.4,365.4,376.8,369.9z"/>
					</g>
					<g>
						<g>
							<path class="st113" d="M218.2,426.1l-15.7,27.1c-2.4,4.2-1,9.6,3.3,12.1l93,53.6c4.3,2.5,9.7,1,12.1-3.2l15.7-27.1"/>
							<path class="st114" d="M267.8,501.3c-4.9,8.5-15.9,11.4-24.6,6.5s-11.6-15.9-6.7-24.5"/>
							<g>
								<path class="st113" d="M443.5,395.6c32.3-55.9,13-127.4-43.1-159.8c-56.1-32.4-127.8-13.3-160.1,42.6"/>
								<path class="st113" d="M240.3,278.4c-20.8,36-20.2,78.6-2.1,113l-20.1,34.7l22.1,12.8l64-110.8"/>
								<path class="st113" d="M368.6,365.1l-64,110.8l22,12.7l20.1-34.7c38.9-1.5,76.1-22.2,96.9-58.3"/>
							</g>
						</g>
						<line class="st115" x1="208.1" y1="443.4" x2="316.5" y2="506"/>
						<line class="st113" x1="218.2" y1="426.1" x2="326.6" y2="488.6"/>
						<polyline class="st115" points="304.3,328.1 317.4,352.7 334.5,348.2 338.9,364.5 368.6,365.1 						"/>
					</g>
				</g>
			</g>
		</g>
		<g>
			<line class="st116" x1="91.7" y1="216.1" x2="128.4" y2="216.1"/>
			<line class="st116" x1="102.1" y1="208.2" x2="118.1" y2="223.9"/>
			<line class="st116" x1="118.1" y1="208.2" x2="102.1" y2="223.9"/>
			<line class="st116" x1="110.1" y1="198.1" x2="110.1" y2="234.1"/>
		</g>
		<g>
			<line class="st117" x1="751.6" y1="132.4" x2="777.6" y2="106.5"/>
			<line class="st117" x1="753.4" y1="119.6" x2="775.8" y2="119.4"/>
			<line class="st117" x1="764.7" y1="108.3" x2="764.5" y2="130.6"/>
			<line class="st117" x1="751.9" y1="106.7" x2="777.3" y2="132.2"/>
		</g>
		<g>
			<line class="st118" x1="694.8" y1="731.5" x2="752.7" y2="731.5"/>
			<line class="st118" x1="711.2" y1="718.5" x2="736.4" y2="744.6"/>
			<line class="st118" x1="736.4" y1="718.5" x2="711.2" y2="744.6"/>
			<line class="st118" x1="723.8" y1="701.5" x2="723.8" y2="761.5"/>
		</g>
	</g>
</g>
</svg>
