<?xml version="1.0" encoding="utf-8"?>
<!-- Generator: Adobe Illustrator 21.1.0, SVG Export Plug-In . SVG Version: 6.00 Build 0)  -->
<svg version="1.1" baseProfile="basic" id="Layer_1"
	 xmlns="http://www.w3.org/2000/svg" xmlns:xlink="http://www.w3.org/1999/xlink" x="0px" y="0px" viewBox="0 0 450 450"
	 xml:space="preserve">
<style type="text/css">
	.st0{fill:#D2D3D4;}
	.st1{fill:none;stroke:#FFFFFF;stroke-width:22;stroke-miterlimit:10;}
	.st2{fill:#FFFFFF;}
	.st3{fill:#FFFFFF;stroke:#F15E4F;stroke-width:22;stroke-miterlimit:10;}
	.st4{fill:#D2D3D4;stroke:#F15E4F;stroke-width:20.6065;stroke-miterlimit:10;}
	.st5{fill:#FFFFFF;stroke:#F15E4F;stroke-width:20.6065;stroke-miterlimit:10;}
	.st6{fill:none;}
	.st7{fill:none;stroke:#D2D3D4;stroke-width:17;stroke-miterlimit:10;}
	.st8{fill:#FFFFFF;stroke:#F15E4F;stroke-width:12.3068;stroke-miterlimit:10;}
	.st9{fill:#FFFFFF;stroke:#F15E4F;stroke-width:12.1831;stroke-miterlimit:10;}
	.st10{fill:none;stroke:#D2D3D4;stroke-width:10.0226;stroke-miterlimit:10;}
	.st11{fill:none;stroke:url(#SVGID_1_);stroke-width:23.0065;stroke-linejoin:round;stroke-miterlimit:10;}
	.st12{fill:none;stroke:#D2D3D4;stroke-width:20;stroke-miterlimit:10;}
	.st13{font-family:'WorkSans-Bold';}
	.st14{font-size:96px;}
	.st15{fill:none;stroke:url(#SVGID_2_);stroke-width:28.9158;stroke-miterlimit:10;}
	.st16{fill:#41BFB9;}
	.st17{fill:#FFFFFF;stroke:#F15E4F;stroke-width:1.4463;stroke-miterlimit:10;}
	.st18{fill:#7F5AA6;}
	.st19{fill:#FFFFFF;stroke:#F15E4F;stroke-width:0.9375;stroke-miterlimit:10;}
	.st20{fill:none;stroke:#3DB0A9;stroke-width:3;stroke-miterlimit:10;}
	.st21{fill:none;stroke:#493C96;stroke-width:3;stroke-miterlimit:10;}
	.st22{fill:none;stroke:#7F59A4;stroke-width:3;stroke-miterlimit:10;}
</style>
<g>
	<g>
		<path class="st0" d="M333.8,261c-4,0-9.6,0.2-12.8,0.4v-0.1c17.2-9.9,26.9-19.3,26.9-31.7c0-9.9-7.1-20.4-23.9-20.4
			c-1.4,0-2.8,0.1-4.2,0.2v6.8c0,5.7-6.3,15.6-20.7,14.6l14.1,4.3c0.2-8.4,3.6-13,9.7-13c5.7,0,8.5,3.6,8.5,8.5
			c0,8.9-8.6,18.7-30.3,32.3v10.6h47.5V261H333.8z"/>
	</g>
	<polygon class="st0" points="217.3,74.2 106.9,74.2 115.3,43.6 208.8,43.6 	"/>
	<g>
		<text transform="matrix(1 0 0 1 125.2318 349.4691)" class="st0 st13 st14">3</text>
	</g>
	<g>
		<text transform="matrix(1 0 0 1 198.8476 180.3686)" class="st0 st13 st14">1</text>
	</g>
	<circle class="st2" cx="332.5" cy="63.5" r="17.5"/>
	<path class="st1" d="M332.5,63.5H222l-13.3-25.9L125,37.7L110.3,71v145.9c0,12.4,10.1,22.5,22.5,22.5h174.5
		c12.4,0,22.5-10.1,22.5-22.5l0-68.3h95.2l0.3,156.1c0,12.4-10.1,22.5-22.5,22.5l-141.3,0.1v62.6c0,12.4-10.1,22.5-22.5,22.5
		l-174.3,0.2c-12.4,0-22.5-10.1-22.5-22.5l-0.1-163"/>
	<circle class="st2" cx="42.3" cy="225.9" r="17.5"/>
</g>
</svg>
