<?xml version="1.0" encoding="utf-8"?>
<!-- Generator: Adobe Illustrator 21.1.0, SVG Export Plug-In . SVG Version: 6.00 Build 0)  -->
<svg version="1.1" baseProfile="basic" id="Layer_1"
	 xmlns="http://www.w3.org/2000/svg" xmlns:xlink="http://www.w3.org/1999/xlink" x="0px" y="0px" viewBox="0 0 450 450"
	 xml:space="preserve">
<style type="text/css">
	.st0{fill:#D2D3D4;}
	.st1{fill:none;stroke:#FFFFFF;stroke-width:22;stroke-miterlimit:10;}
	.st2{fill:#FFFFFF;}
	.st3{fill:#FFFFFF;stroke:#F15E4F;stroke-width:22;stroke-miterlimit:10;}
	.st4{fill:#D2D3D4;stroke:#F15E4F;stroke-width:20.6065;stroke-miterlimit:10;}
	.st5{fill:#FFFFFF;stroke:#F15E4F;stroke-width:20.6065;stroke-miterlimit:10;}
	.st6{fill:none;}
	.st7{fill:none;stroke:#D2D3D4;stroke-width:17;stroke-miterlimit:10;}
	.st8{fill:#FFFFFF;stroke:#F15E4F;stroke-width:12.3068;stroke-miterlimit:10;}
	.st9{fill:#FFFFFF;stroke:#F15E4F;stroke-width:12.1831;stroke-miterlimit:10;}
	.st10{fill:none;stroke:#D2D3D4;stroke-width:10.0226;stroke-miterlimit:10;}
	.st11{fill:none;stroke:url(#SVGID_1_);stroke-width:23.0065;stroke-linejoin:round;stroke-miterlimit:10;}
	.st12{fill:none;stroke:#D2D3D4;stroke-width:20;stroke-miterlimit:10;}
	.st13{fill:none;stroke:url(#SVGID_2_);stroke-width:28.9158;stroke-miterlimit:10;}
	.st14{fill:#41BFB9;}
	.st15{fill:#FFFFFF;stroke:#F15E4F;stroke-width:1.4463;stroke-miterlimit:10;}
	.st16{fill:#7F5AA6;}
	.st17{fill:#FFFFFF;stroke:#F15E4F;stroke-width:0.9375;stroke-miterlimit:10;}
	.st18{fill:none;stroke:#3DB0A9;stroke-width:3;stroke-miterlimit:10;}
	.st19{fill:none;stroke:#493C96;stroke-width:3;stroke-miterlimit:10;}
	.st20{fill:none;stroke:#7F59A4;stroke-width:3;stroke-miterlimit:10;}
</style>
<g>
	<g>
	</g>
	<g>
		<line class="st10" x1="131.9" y1="75.3" x2="210.9" y2="75.3"/>
		<line class="st10" x1="131.9" y1="91.1" x2="226.2" y2="91.1"/>
		<line class="st10" x1="131.9" y1="107" x2="232.2" y2="107"/>
		<line class="st10" x1="131.9" y1="122.9" x2="232.2" y2="122.9"/>
		<line class="st10" x1="131.8" y1="138.8" x2="232.2" y2="138.8"/>
		<line class="st10" x1="131.8" y1="154.6" x2="232.2" y2="154.6"/>
		<line class="st10" x1="131.8" y1="170.5" x2="232.3" y2="170.5"/>
		<line class="st10" x1="200.1" y1="187" x2="232.3" y2="187"/>
	</g>
	<circle class="st2" cx="307.1" cy="249.6" r="17.5"/>
	<path class="st12" d="M103.2,311.8v76.7"/>
	<path class="st12" d="M141.6,350.2c0,0-76.7,0-76.7,0"/>
	<path class="st1" d="M238.5,296.1c-11.8,11.8-12.1,30.8-0.6,42.3l69.2,69.2c11.5,11.5,30.4,11.2,42.2-0.6c0,0,0,0,0.1-0.1
		c11.8-11.8,12.1-30.7,0.6-42.2l-39.7-40.7c-4.8-4.8-4.6-12.8,0.4-17.4l104.2-91.7l-94.2-86.5c-5.1-4.7-13.4-1-13.4,5.9l-0.1,123.3"
		/>
	<path class="st1" d="M264.6,322.2c11.8-11.8,12.1-30.8,0.6-42.3l-69.2-69.2c-11.5-11.5-30.4-11.2-42.2,0.6c0,0,0,0-0.1,0.1
		c-11.8,11.8-12.1,30.7-0.6,42.2l51.3,51.3"/>
	<g>
		<path class="st2" d="M270.7,250l0.2-171.6L207,20.7h-91.8c-12.7,0-23,10.3-23,23V272c-38.4,5.4-68,38.4-68,78.3
			c0,21.8,8.7,42.1,24.5,57.2c14.8,14.2,34.1,21.8,54.5,21.8c1.3,0,2.6,0,3.9-0.1c19.6-0.9,38.1-9.2,52.1-23.2
			c14-14,22.2-32.5,23-52.2c0.9-19.8-5.6-39-18.2-54.2L147,313.8c9.1,10.9,13.8,24.8,13.1,39.1c-1.3,29.1-25.1,53-54.2,54.3
			c-15.8,0.7-30.8-4.8-42.1-15.7c-11.4-10.9-17.7-25.5-17.7-41.3c0-31.4,25.6-57,57-57h11V43.7c0-0.6,0.4-1,1-1h83.3l50.3,45.5
			l-0.2,140.1l21.3,21.3L270.7,250z"/>
	</g>
</g>
<circle class="st2" cx="155.5" cy="306.7" r="17.5"/>
</svg>
