<?xml version="1.0" encoding="utf-8"?>
<!-- Generator: Adobe Illustrator 21.1.0, SVG Export Plug-In . SVG Version: 6.00 Build 0)  -->
<svg version="1.1" baseProfile="basic" id="Layer_1"
	 xmlns="http://www.w3.org/2000/svg" xmlns:xlink="http://www.w3.org/1999/xlink" x="0px" y="0px" viewBox="0 0 450 450"
	 xml:space="preserve">
<style type="text/css">
	.st0{fill:#CCCCCC;}
	.st1{fill:#41BBB9;}
	.st2{fill:#FFFFFF;stroke:#F15E4F;stroke-width:22.0383;stroke-miterlimit:10;}
	.st3{fill:#7E5AA6;}
	.st4{opacity:0.6;}
	.st5{fill:#FFFFFF;}
	.st6{fill:none;stroke:#FFFFFF;stroke-width:21;stroke-miterlimit:10;}
	.st7{fill:none;stroke:url(#SVGID_1_);stroke-width:28.9299;stroke-miterlimit:10;}
	.st8{fill:none;stroke:#FFFFFF;stroke-width:25.5;stroke-miterlimit:10;}
	.st9{fill:none;stroke:#CCCCCC;stroke-width:18;stroke-miterlimit:10;}
	.st10{opacity:0.6;fill:none;stroke:#FFFFFF;stroke-width:18;stroke-miterlimit:10;}
</style>
<g>
	<g class="st4">
		<polygon class="st5" points="218.9,76.2 108.3,76.2 116.8,45.5 210.3,45.5 		"/>
	</g>
	<g class="st4">
		<g>
			<path class="st5" d="M176.5,303c0,10.7-8.3,14.6-11.9,14.6v0.3c4.4,0,13.2,3.2,13.2,14.4c0,10.9-10.3,18.2-24.6,18.2
				c-13.3,0-21.4-4.6-25-15.8l15-6.4c0.7,6.8,4.1,9.4,9.8,9.4c5.6,0,8.9-2.8,8.8-7.7c-0.1-4.9-3-6.8-9.4-6.8h-3.6v-10.5h2.8
				c6,0,8.8-2.4,8.8-7.3c0.1-4.9-2.7-7.5-7.5-7.5c-4.9,0-8.3,2.5-8.8,8.5l-14.5-4.9c2.2-11.8,12-16.4,24.3-16.4
				C168.3,285.2,176.5,292.2,176.5,303z"/>
		</g>
	</g>
	<g class="st4">
		<g>
			<path class="st5" d="M233.9,117v63.4h-15.9v-47.2c-4.3,3.9-9.5,7.1-15,8.1l-1.5-13.6c6.5-0.8,16.1-6,19.3-10.7H233.9z"/>
		</g>
	</g>
	<g class="st4">
		<path class="st5" d="M333.9,261c-4,0-9.6,0.2-12.8,0.4v-0.1c17.2-9.9,26.9-19.3,26.9-31.7c0-9.9-7.1-20.4-23.9-20.4
			c-1.4,0-2.8,0.1-4.2,0.2v13.2c0.9-0.3,2-0.5,3.1-0.5c5.7,0,8.5,3.6,8.5,8.5c0,8.9-8.6,18.7-30.3,32.3v10.6h47.5V261H333.9z"/>
	</g>
	<circle class="st5" cx="332.5" cy="62.4" r="21"/>
	<circle class="st5" cx="42.2" cy="225.9" r="21"/>
</g>
<path class="st8" d="M332.5,63.5H219.8l-13.3-25.9l-78.3,0.1l-18,35.1v144c0,12.4,10.1,22.5,22.5,22.5h174.5
	c12.4,0,22.5-10.1,22.5-22.5l0-68.3h95.2l0.3,156.1c0,12.4-10.1,22.5-22.5,22.5l-141.3,0.1v62.6c0,12.4-10.1,22.5-22.5,22.5
	l-174.3,0.2c-12.4,0-22.5-10.1-22.5-22.5l-0.1-163"/>
</svg>
