<?xml version="1.0" encoding="utf-8"?>
<!-- Generator: Adobe Illustrator 21.1.0, SVG Export Plug-In . SVG Version: 6.00 Build 0)  -->
<svg version="1.1" baseProfile="basic" id="Layer_1"
	 xmlns="http://www.w3.org/2000/svg" xmlns:xlink="http://www.w3.org/1999/xlink" x="0px" y="0px" viewBox="0 0 450 450"
	 xml:space="preserve">
<style type="text/css">
	.st0{fill:#CCCCCC;}
	.st1{fill:#41BBB9;}
	.st2{fill:#FFFFFF;stroke:#F15E4F;stroke-width:22.0383;stroke-miterlimit:10;}
	.st3{fill:#7E5AA6;}
	.st4{opacity:0.6;}
	.st5{fill:#FFFFFF;}
	.st6{fill:none;stroke:#FFFFFF;stroke-width:21;stroke-miterlimit:10;}
	.st7{fill:none;stroke:url(#SVGID_1_);stroke-width:28.9299;stroke-miterlimit:10;}
	.st8{fill:none;stroke:#FFFFFF;stroke-width:25.5;stroke-miterlimit:10;}
	.st9{fill:none;stroke:#CCCCCC;stroke-width:18;stroke-miterlimit:10;}
	.st10{opacity:0.6;fill:none;stroke:#FFFFFF;stroke-width:18;stroke-miterlimit:10;}
</style>
<circle class="st5" cx="235.8" cy="332.1" r="21"/>
<g>
	<path class="st6" d="M151.5,155.7l0.2-102.3c0-11.5,9.4-20.9,20.9-20.9l143.7-0.1l95.1,86c0,14,0,253.2,0,253.2
		c0,11.5-9.4,20.9-20.9,20.9L158,392.1l-19.4,19.4c-7.9,8-20.8,8-28.7,0c-21-21-45.7-45.8-65.3-65.5c-7.9-7.9-7.9-20.7,0-28.6
		l100-100.6h90.9v113.6"/>
	<circle class="st5" cx="151.8" cy="154.8" r="21"/>
	<g class="st4">
		<ellipse class="st5" cx="190.5" cy="261.1" rx="15.7" ry="15.7"/>
	</g>
</g>
<line class="st10" x1="274.1" y1="341" x2="376.1" y2="341"/>
<line class="st10" x1="274.1" y1="298.1" x2="376.1" y2="298.1"/>
<line class="st10" x1="274.1" y1="255.3" x2="376.1" y2="255.3"/>
<line class="st10" x1="274.1" y1="212.4" x2="376.1" y2="212.4"/>
<line class="st10" x1="188.7" y1="169.5" x2="376.1" y2="169.5"/>
<line class="st10" x1="188.7" y1="126.6" x2="340.3" y2="126.6"/>
<line class="st10" x1="188.7" y1="83.8" x2="316.7" y2="83.8"/>
</svg>
