<?xml version="1.0" encoding="utf-8"?>
<!-- Generator: Adobe Illustrator 21.1.0, SVG Export Plug-In . SVG Version: 6.00 Build 0)  -->
<svg version="1.1" baseProfile="basic" id="Layer_1"
	 xmlns="http://www.w3.org/2000/svg" xmlns:xlink="http://www.w3.org/1999/xlink" x="0px" y="0px" viewBox="0 0 900 900"
	 xml:space="preserve">
<style type="text/css">
	.st0{fill:#FFFFFF;stroke:#41BFB9;stroke-width:9;stroke-linecap:round;stroke-linejoin:round;stroke-miterlimit:10;}
	.st1{fill:#D2D3D4;stroke:#41BFB9;stroke-width:9;stroke-linecap:round;stroke-linejoin:round;stroke-miterlimit:10;}
	.st2{fill:#D2D3D4;stroke:#7E5AA6;stroke-width:9;stroke-linecap:round;stroke-linejoin:round;stroke-miterlimit:10;}
	.st3{fill:none;stroke:#7E5AA6;stroke-width:6;stroke-linecap:round;stroke-linejoin:round;stroke-miterlimit:10;}
	.st4{fill:#FFFFFF;stroke:#7E5AA6;stroke-width:6;stroke-linecap:round;stroke-linejoin:round;stroke-miterlimit:10;}
	.st5{fill:#D2D3D4;}
	.st6{fill:#7E5AA6;}
	.st7{fill:#FFFFFF;stroke:#5063AE;stroke-width:9;stroke-linecap:round;stroke-linejoin:round;stroke-miterlimit:10;}
	.st8{fill:none;stroke:#CCCCCC;stroke-width:6;stroke-miterlimit:10;}
	.st9{fill:#41BFB9;}
	.st10{fill:none;stroke:url(#SVGID_1_);stroke-width:9;stroke-linecap:round;stroke-linejoin:round;stroke-miterlimit:10;}
</style>
<g>
	<g>
		<g>
			<g>
				<path class="st0" d="M194.6,567l-27.7-4.4l-55.2,27.1l5.4,15.1l108.6,52.9c8.8,4.3,23,4.3,31.8,0l123.4-60.3
					c8.8-4.3,8.8-11.2,0-15.5l-48.3-23.6L272.3,529L194.6,567z"/>
			</g>
			<g>
				<g>
					<polyline class="st1" points="194.6,567 166.9,562.6 111.7,589.7 117.1,604.8 					"/>
				</g>
			</g>
		</g>
	</g>
	<g>
		<g>
			<g>
				<path class="st0" d="M391.4,648.5l-27.7-4.4l-55.2,27.1l5.4,15.1l108.6,52.9c8.8,4.3,23,4.3,31.8,0L577.6,679
					c8.8-4.3,8.8-11.2,0-15.5l-48.3-23.6l-60.2-29.4L391.4,648.5z"/>
			</g>
			<g>
				<g>
					<polyline class="st1" points="391.4,648.5 363.7,644.1 308.5,671.2 313.9,686.3 					"/>
				</g>
			</g>
		</g>
	</g>
	<g>
		<g>
			<g>
				<path class="st0" d="M194.6,740.4l-27.7-4.4l-55.2,27.1l5.4,15.1l108.6,52.9c8.8,4.3,23,4.3,31.8,0L380.8,771
					c8.8-4.3,8.8-11.2,0-15.5l-48.3-23.6l-60.2-29.4L194.6,740.4z"/>
			</g>
			<g>
				<g>
					<polyline class="st1" points="194.6,740.4 166.9,736.1 111.7,763.2 117.1,778.3 					"/>
				</g>
			</g>
		</g>
	</g>
	<g>
		<g>
			<g>
				<path class="st0" d="M595.3,558.8l-27.7-4.4l-55.2,27.1l5.4,15.1l108.6,52.9c8.8,4.3,23,4.3,31.8,0l123.4-60.3
					c8.8-4.3,8.8-11.2,0-15.5l-48.3-23.6L673,520.8L595.3,558.8z"/>
			</g>
			<g>
				<g>
					<polyline class="st1" points="595.3,558.8 567.6,554.4 512.4,581.5 517.8,596.6 					"/>
				</g>
			</g>
		</g>
	</g>
	<g>
		<path class="st2" d="M659.4,102.2c-0.4-0.3-0.8-0.5-1.2-0.8c-1.3-0.9-2.6-1.8-4-2.6c-4-2.6-8.4-5-12.9-7.3c-1-0.5-1.9-1-2.9-1.4
			c-2.1-1-4.2-2-6.4-2.9c-0.9-0.4-1.8-0.8-2.7-1.2c-1.3-0.5-2.5-1-3.8-1.6c-3-1.2-6-2.3-9.2-3.4c-5.3-1.8-10.9-3.5-16.6-5.1
			c-1.2-0.3-2.5-0.7-3.7-1c-23.8-6-50.8-9.4-79.3-9.4c-28.6,0-55.5,3.4-79.3,9.4c-1.3,0.3-2.5,0.6-3.7,1c-5.8,1.5-11.3,3.2-16.6,5.1
			c-3.1,1.1-6.2,2.2-9.2,3.4c-1.3,0.5-2.6,1-3.8,1.6c-0.9,0.4-1.8,0.8-2.7,1.2c-2.2,0.9-4.3,1.9-6.4,2.9c-1,0.5-2,1-2.9,1.4
			c-4.6,2.3-8.9,4.8-12.9,7.3c-1.4,0.9-2.7,1.7-4,2.6c-0.4,0.3-0.8,0.5-1.2,0.8c-19.8,14-31.5,30.9-31.5,49.3v20
			c0,47.5,78,85.9,174.2,85.9s174.2-38.5,174.2-85.9v-20C690.8,133.1,679.2,116.2,659.4,102.2z"/>
		<path class="st2" d="M611.7,242.5l191.1,92.1c14.1,7,30.7,7,44.8,0l0,0c4.1-2,6.2-5.9,6.3-9.9l0,0v-15l0,0
			c0.2-4.2-1.9-8.5-6.3-10.7L528.4,141.6l-43.2,21.3l125.4,61.9"/>
		<line class="st3" x1="610.7" y1="224.7" x2="610.7" y2="241.5"/>
		<g>
			<path class="st4" d="M802.7,319.5L485.2,162.9l43.2-21.3L847.5,299c8.5,4.2,8.5,16.3,0,20.5l0,0
				C833.4,326.4,816.8,326.4,802.7,319.5z"/>
		</g>
		<ellipse class="st4" cx="516.6" cy="151.5" rx="174.2" ry="85.9"/>
		<ellipse class="st5" cx="516.6" cy="151.5" rx="145.9" ry="71.9"/>
		<g>
			<path class="st6" d="M440.2,176l8.1,4.1l12.3-6.2l3.9,2l-12.3,6.2l12,6l-4.5,2.3l-28-14l20.2-10.1l3.9,2L440.2,176z"/>
			<path class="st6" d="M492.1,163.5c6.9,3.5,7.1,7.5,0.5,10.8c-6.6,3.3-14.7,3.2-21.6-0.2c-6.9-3.5-7.1-7.5-0.5-10.8
				C477.1,160,485.1,160,492.1,163.5z M475.5,171.8c4.8,2.4,9.6,2.7,13.5,0.7c3.8-1.9,3.4-4.3-1.4-6.7c-4.8-2.4-9.7-2.6-13.5-0.7
				C470.2,167,470.7,169.4,475.5,171.8z"/>
			<path class="st6" d="M506.5,145.7l21.2,10.6l-4,2l-3.6-1.6c1.2,2.1-0.3,4-3.7,5.7c-4.2,2.1-9.8,2.7-15.3,0l-14-7l4.5-2.3
				l12.8,6.4c3.9,2,6.8,1.7,9.5,0.4c3.2-1.6,4-3.9-0.5-6.2l-11.5-5.7L506.5,145.7z"/>
			<path class="st6" d="M540.4,136.2l13.7,6.9l-4.5,2.3l-12.3-6.2c-4.2-2.1-7.6-1.8-10.1-0.5c-2.8,1.4-4,3.8,0.9,6.2l11.2,5.6
				l-4.5,2.3l-21.2-10.6l4-2l3.7,1.7c-1.3-2.1,0.2-4,3.2-5.6C529,134,535.1,133.6,540.4,136.2z"/>
			<path class="st6" d="M549.9,114.4l30.8,15.4l-4,2l-4-1.8c1.3,1.9,0.4,4-2.9,5.7c-5.8,2.9-13.5,2.7-20.4-0.8
				c-7-3.5-7.4-7.4-1.7-10.2c3.2-1.6,7.1-2,10.7-1.5l-13-6.5L549.9,114.4z M565.8,126.9l-0.5-0.3c-4.4-2.2-9.3-2.4-12.9-0.6
				c-3.6,1.8-3.1,4.3,1.5,6.6s9.6,2.6,13.2,0.8C570.6,131.6,570.2,129.1,565.8,126.9z"/>
			<path class="st6" d="M575.7,115.5l7.3,4.2l-3.6,1.8l-8.5-3.6l-11.2-5.6l4.8-2.4L575.7,115.5z M590.7,122.2
				c1.8,0.9,1.7,2.1-0.2,3.1c-1.9,1-4.3,1-6.1,0.1s-1.8-2.1,0.1-3.1C586.5,121.3,588.9,121.3,590.7,122.2z"/>
		</g>
	</g>
	<g>
		<g>
			<g>
				<g>
					<path class="st7" d="M473.1,554.1l-85.1,3.6l-69.9,34.1c-5.6,2.7-6,7-0.7,9.6L470.3,676l29.1-14.1l87.3-42.6
						c5.6-2.7,6-7,0.7-9.6C587.3,609.8,473.4,554.3,473.1,554.1z"/>
				</g>
			</g>
			<g>
				<g>
					<g>
						<line class="st8" x1="464.8" y1="655" x2="556" y2="610.5"/>
						<line class="st8" x1="445.4" y1="645.5" x2="536.6" y2="601.1"/>
						<line class="st8" x1="426.1" y1="636.1" x2="517.3" y2="591.6"/>
						<line class="st8" x1="387.4" y1="617.2" x2="478.6" y2="572.8"/>
						<line class="st8" x1="368.1" y1="607.8" x2="441.9" y2="571.8"/>
						<line class="st8" x1="348.7" y1="598.4" x2="411" y2="568"/>
					</g>
				</g>
				<line class="st8" x1="406.8" y1="626.7" x2="497.9" y2="582.2"/>
			</g>
		</g>
		<g>
			<g>
				<g>
					<path class="st7" d="M473.1,480.8l-85.1,3.6l-69.9,34.1c-5.6,2.7-6,7-0.7,9.6l152.9,74.6l29.1-14.1l87.3-42.6
						c5.6-2.7,6-7,0.7-9.6C587.3,536.5,473.4,480.9,473.1,480.8z"/>
				</g>
			</g>
			<g>
				<g>
					<g>
						<line class="st8" x1="464.8" y1="581.6" x2="556" y2="537.2"/>
						<line class="st8" x1="445.4" y1="572.2" x2="536.6" y2="527.7"/>
						<line class="st8" x1="426.1" y1="562.8" x2="517.3" y2="518.3"/>
						<line class="st8" x1="387.4" y1="543.9" x2="478.6" y2="499.4"/>
						<line class="st8" x1="368.1" y1="534.5" x2="441.9" y2="498.5"/>
						<line class="st8" x1="348.7" y1="525" x2="411" y2="494.7"/>
					</g>
				</g>
				<line class="st8" x1="406.8" y1="553.3" x2="497.9" y2="508.9"/>
			</g>
		</g>
		<g>
			<g>
				<g>
					<path class="st7" d="M473.1,407.5l-85.1,3.6l-69.9,34.1c-5.6,2.7-6,7-0.7,9.6l152.9,74.6l29.1-14.1l87.3-42.6
						c5.6-2.7,6-7,0.7-9.6C587.3,463.2,473.4,407.6,473.1,407.5z"/>
				</g>
			</g>
			<g>
				<g>
					<g>
						<line class="st8" x1="464.8" y1="508.3" x2="556" y2="463.8"/>
						<line class="st8" x1="445.4" y1="498.9" x2="536.6" y2="454.4"/>
						<line class="st8" x1="426.1" y1="489.4" x2="517.3" y2="445"/>
						<line class="st8" x1="387.4" y1="470.6" x2="478.6" y2="426.1"/>
						<line class="st8" x1="368.1" y1="461.1" x2="441.9" y2="425.2"/>
						<line class="st8" x1="348.7" y1="451.7" x2="411" y2="421.3"/>
					</g>
				</g>
				<line class="st8" x1="406.8" y1="480" x2="497.9" y2="435.5"/>
			</g>
		</g>
		<g>
			<g>
				<path class="st7" d="M473.1,334.1l-85.1,3.6l-69.9,34.1c-5.6,2.7-6,7-0.7,9.6L470.3,456l29.1-14.1l87.3-42.6
					c5.6-2.7,6-7,0.7-9.6C587.3,389.8,473.4,334.3,473.1,334.1z"/>
			</g>
		</g>
		<g>
			<g>
				<g>
					<line class="st8" x1="464.8" y1="435" x2="556" y2="390.5"/>
					<line class="st8" x1="445.4" y1="425.5" x2="536.6" y2="381.1"/>
					<line class="st8" x1="426.1" y1="416.1" x2="517.3" y2="371.6"/>
					<line class="st8" x1="387.4" y1="397.2" x2="478.6" y2="352.8"/>
					<line class="st8" x1="368.1" y1="387.8" x2="441.9" y2="351.8"/>
					<line class="st8" x1="348.7" y1="378.4" x2="411" y2="348"/>
				</g>
			</g>
			<line class="st8" x1="406.8" y1="406.7" x2="497.9" y2="362.2"/>
		</g>
		<circle class="st9" cx="415.5" cy="401.6" r="10.5"/>
		
			<linearGradient id="SVGID_1_" gradientUnits="userSpaceOnUse" x1="411.6" y1="630.74" x2="620.3" y2="630.74" gradientTransform="matrix(1 0 0 -1 0 897.89)">
			<stop  offset="1.198948e-03" style="stop-color:#41BFB9"/>
			<stop  offset="0.8" style="stop-color:#5063AE"/>
			<stop  offset="1" style="stop-color:#7E5AA6"/>
		</linearGradient>
		<polyline class="st10" points="416.1,401.6 464.5,378 464.5,206 464.5,206.4 615.8,132.7 		"/>
		<circle class="st6" cx="615.8" cy="131.7" r="10.5"/>
	</g>
	<g>
		<g>
			<g>
				<path class="st0" d="M563.5,738.4l-27.7-4.4l-55.2,27.1l5.4,15.1l108.6,52.9c8.8,4.3,23,4.3,31.8,0L749.8,769
					c8.8-4.3,8.8-11.2,0-15.5l-48.3-23.6l-60.2-29.4L563.5,738.4z"/>
			</g>
			<g>
				<g>
					<polyline class="st1" points="563.5,738.4 535.9,734.1 480.6,761.2 486,776.3 					"/>
				</g>
			</g>
		</g>
	</g>
</g>
</svg>
