<?xml version="1.0" encoding="utf-8"?>
<!-- Generator: Adobe Illustrator 21.1.0, SVG Export Plug-In . SVG Version: 6.00 Build 0)  -->
<svg version="1.1" baseProfile="basic" id="Layer_1"
	 xmlns="http://www.w3.org/2000/svg" xmlns:xlink="http://www.w3.org/1999/xlink" x="0px" y="0px" viewBox="0 0 450 450"
	 xml:space="preserve">
<style type="text/css">
	.st0{fill:#EEF3F3;}
	.st1{fill:#41BBB9;}
	.st2{fill:#FFFFFF;stroke:#F15E4F;stroke-width:22.0383;stroke-miterlimit:10;}
	.st3{fill:#7E5AA6;}
	.st4{fill:none;stroke:#FFFFFF;stroke-width:21;stroke-miterlimit:10;}
	.st5{fill:#FFFFFF;}
	.st6{fill:none;stroke:url(#SVGID_1_);stroke-width:28.9158;stroke-miterlimit:10;}
	.st7{fill:none;stroke:url(#SVGID_2_);stroke-width:28.9299;stroke-miterlimit:10;}
	.st8{fill:#CCCCCC;}
	.st9{fill:#CCCCCC;stroke:#F15E4F;stroke-width:20.6065;stroke-miterlimit:10;}
	.st10{fill:#FFFFFF;stroke:#F15E4F;stroke-width:20.6065;stroke-miterlimit:10;}
	.st11{fill:none;}
	.st12{fill:none;stroke:#EEF3F3;stroke-width:18;stroke-miterlimit:10;}
	.st13{fill:#CCCCCC;stroke:#F15E4F;stroke-width:11.8872;stroke-miterlimit:10;}
	.st14{fill:#FFFFFF;stroke:#F15E4F;stroke-width:11.8872;stroke-miterlimit:10;}
	.st15{fill:#FFFFFF;stroke:#F15E4F;stroke-width:11.7676;stroke-miterlimit:10;}
	.st16{fill:none;stroke:#FFFFFF;stroke-width:18;stroke-miterlimit:10;}
</style>
<circle class="st5" cx="235.8" cy="332.1" r="21"/>
<g>
	<path class="st4" d="M151.5,155.7l0.2-102.3c0-11.5,9.4-20.9,20.9-20.9l143.7-0.1l94.7,86c0,0.6,0.4,253.2,0.4,253.2
		c0,11.5-9.4,20.9-20.9,20.9L158,392.1l-19.4,19.4c-7.9,8-20.8,8-28.7,0c-21-21-45.7-45.8-65.3-65.5c-7.9-7.9-7.9-20.7,0-28.6
		l100-100.6h90.9v113.6"/>
	<g>
		<line class="st12" x1="273.3" y1="257.4" x2="373.7" y2="257.4"/>
		<line class="st12" x1="273.3" y1="301.8" x2="373.7" y2="301.8"/>
		<line class="st12" x1="273.3" y1="346.1" x2="373.7" y2="346.1"/>
	</g>
	<circle class="st5" cx="151.8" cy="154.8" r="21"/>
	<ellipse class="st0" cx="190.5" cy="261.1" rx="15.7" ry="15.7"/>
	<g>
		<line class="st12" x1="189.3" y1="80.1" x2="315.3" y2="80.1"/>
		<line class="st12" x1="189.3" y1="124.4" x2="334.8" y2="124.4"/>
		<line class="st12" x1="189.3" y1="168.8" x2="373.7" y2="168.8"/>
		<line class="st12" x1="273.3" y1="213.1" x2="373.7" y2="213.1"/>
	</g>
</g>
</svg>
