<?xml version="1.0" encoding="utf-8"?>
<!-- Generator: Adobe Illustrator 21.1.0, SVG Export Plug-In . SVG Version: 6.00 Build 0)  -->
<svg version="1.1" baseProfile="basic" id="Layer_1"
	 xmlns="http://www.w3.org/2000/svg" xmlns:xlink="http://www.w3.org/1999/xlink" x="0px" y="0px" viewBox="0 0 900 900"
	 xml:space="preserve">
<style type="text/css">
	.st0{fill:#FFFFFF;}
	.st1{fill:#FFFFFF;stroke:#41BFB9;stroke-width:7.1675;stroke-linecap:round;stroke-linejoin:round;stroke-miterlimit:10;}
	.st2{fill:#D2D3D4;stroke:#41BFB9;stroke-width:7.1675;stroke-linecap:round;stroke-linejoin:round;stroke-miterlimit:10;}
	.st3{fill:#D2D3D4;stroke:#7E5AA6;stroke-width:7.1675;stroke-linecap:round;stroke-linejoin:round;stroke-miterlimit:10;}
	.st4{fill:none;stroke:#7E5AA6;stroke-width:4.7784;stroke-linecap:round;stroke-linejoin:round;stroke-miterlimit:10;}
	.st5{fill:#FFFFFF;stroke:#7E5AA6;stroke-width:4.7784;stroke-linecap:round;stroke-linejoin:round;stroke-miterlimit:10;}
	.st6{fill:#D2D3D4;}
	.st7{fill:#7E5AA6;}
	.st8{fill:#FFFFFF;stroke:#5063AE;stroke-width:7.1675;stroke-linecap:round;stroke-linejoin:round;stroke-miterlimit:10;}
	.st9{fill:none;stroke:#CCCCCC;stroke-width:4.7784;stroke-miterlimit:10;}
	.st10{fill:#41BFB9;}
	.st11{fill:none;stroke:url(#SVGID_1_);stroke-width:7.1675;stroke-linecap:round;stroke-linejoin:round;stroke-miterlimit:10;}
</style>
<circle class="st0" cx="450.2" cy="450.2" r="449.8"/>
<g>
	<g>
		<g>
			<g>
				<path class="st1" d="M252.9,543l-22.1-3.5L186.7,561l4.3,12l86.6,42.1c7,3.4,18.3,3.4,25.3,0l98.4-47.9c7-3.4,7-8.9,0-12.3
					l-38.5-18.8l-48-23.4L252.9,543z"/>
			</g>
			<g>
				<g>
					<polyline class="st2" points="252.9,543 230.9,539.6 186.8,561.1 191.1,573.1 					"/>
				</g>
			</g>
		</g>
	</g>
	<g>
		<g>
			<g>
				<path class="st1" d="M409.9,607.8l-22.1-3.5l-44.1,21.5l4.3,12l86.6,42.1c7,3.4,18.3,3.4,25.3,0l98.4-47.9c7-3.4,7-8.9,0-12.3
					L519.9,601l-48-23.4L409.9,607.8z"/>
			</g>
			<g>
				<g>
					<polyline class="st2" points="409.9,607.8 387.8,604.3 343.8,625.9 348.1,637.9 					"/>
				</g>
			</g>
		</g>
	</g>
	<g>
		<g>
			<g>
				<path class="st1" d="M252.9,681l-22.1-3.5l-44,21.5l4.3,12l86.6,42.1c7,3.4,18.3,3.4,25.3,0l98.4-47.9c7-3.4,7-8.9,0-12.3
					l-38.5-18.8l-48-23.4L252.9,681z"/>
			</g>
			<g>
				<g>
					<polyline class="st2" points="252.9,681 230.9,677.5 186.8,699 191.1,711.1 					"/>
				</g>
			</g>
		</g>
	</g>
	<g>
		<g>
			<g>
				<path class="st1" d="M572.5,536.5l-22.1-3.5l-44.1,21.5l4.3,12l86.6,42.1c7,3.4,18.3,3.4,25.3,0l98.4-47.9c7-3.4,7-8.9,0-12.3
					l-38.5-18.8l-48-23.4L572.5,536.5z"/>
			</g>
			<g>
				<g>
					<polyline class="st2" points="572.5,536.5 550.5,533 506.4,554.6 510.7,566.6 					"/>
				</g>
			</g>
		</g>
	</g>
	<g>
		<path class="st3" d="M623.6,173.4c-0.3-0.2-0.6-0.4-0.9-0.6c-1-0.7-2.1-1.4-3.2-2.1c-3.2-2-6.7-4-10.3-5.8
			c-0.8-0.4-1.5-0.8-2.3-1.1c-1.7-0.8-3.3-1.6-5.1-2.3c-0.7-0.3-1.4-0.6-2.2-0.9c-1-0.4-2-0.8-3.1-1.2c-2.4-0.9-4.8-1.8-7.3-2.7
			c-4.3-1.5-8.7-2.8-13.3-4c-1-0.3-2-0.5-3-0.8c-19-4.8-40.5-7.5-63.3-7.5s-44.3,2.7-63.3,7.5c-1,0.3-2,0.5-3,0.8
			c-4.6,1.2-9,2.6-13.3,4c-2.5,0.9-4.9,1.8-7.3,2.7c-1,0.4-2,0.8-3.1,1.2c-0.7,0.3-1.4,0.6-2.2,0.9c-1.7,0.8-3.4,1.5-5.1,2.3
			c-0.8,0.4-1.6,0.8-2.3,1.1c-3.7,1.8-7.1,3.8-10.3,5.8c-1.1,0.7-2.1,1.4-3.2,2.1c-0.3,0.2-0.6,0.4-0.9,0.6
			c-15.8,11.1-25.1,24.6-25.1,39.2v15.9c0,37.7,62.2,68.3,139,68.3s139-30.6,139-68.3v-15.9C648.7,198,639.4,184.5,623.6,173.4z"/>
		<path class="st3" d="M585.6,285L738,358.2c11.3,5.5,24.5,5.5,35.7,0l0,0c3.3-1.6,5-4.7,5.1-7.9l0,0v-11.9l0,0
			c0.1-3.4-1.5-6.8-5.1-8.5L519.2,204.7l-34.4,16.9l100,49.2"/>
		<line class="st4" x1="584.8" y1="270.9" x2="584.8" y2="284.2"/>
		<g>
			<path class="st5" d="M738,346.2L484.7,221.7l34.4-16.9L773.6,330c6.8,3.3,6.8,13,0,16.3l0,0C762.4,351.7,749.2,351.7,738,346.2z"
				/>
		</g>
		<ellipse class="st5" cx="509.7" cy="212.6" rx="139" ry="68.3"/>
		<ellipse class="st6" cx="509.7" cy="212.6" rx="116.3" ry="57.2"/>
		<g>
			<path class="st7" d="M448.8,232l6.5,3.2l9.8-4.9l3.1,1.6l-9.8,4.9l9.6,4.8l-3.6,1.8l-22.3-11.1l16.1-8l3.1,1.6L448.8,232z"/>
			<path class="st7" d="M490.2,222.1c5.5,2.7,5.7,6,0.4,8.6c-5.3,2.6-11.7,2.6-17.2-0.2c-5.5-2.8-5.7-6-0.4-8.6
				S484.7,219.4,490.2,222.1z M477,228.7c3.8,1.9,7.7,2.1,10.7,0.6c3-1.5,2.7-3.5-1.2-5.4c-3.8-1.9-7.7-2.1-10.8-0.6
				C472.8,224.9,473.2,226.8,477,228.7z"/>
			<path class="st7" d="M501.7,208l16.9,8.4l-3.2,1.6l-2.9-1.3c0.9,1.7-0.2,3.2-2.9,4.5c-3.4,1.7-7.8,2.2-12.2,0l-11.1-5.5l3.6-1.8
				l10.2,5.1c3.1,1.6,5.4,1.4,7.6,0.3c2.6-1.3,3.2-3.1-0.4-4.9l-9.1-4.6L501.7,208z"/>
			<path class="st7" d="M528.8,200.4l11,5.5l-3.6,1.8l-9.8-4.9c-3.4-1.7-6-1.5-8.1-0.4c-2.2,1.1-3.2,3,0.7,4.9l9,4.5l-3.6,1.8
				l-16.9-8.4l3.2-1.6l3,1.3c-1-1.7,0.1-3.2,2.6-4.4C519.7,198.7,524.5,198.3,528.8,200.4z"/>
			<path class="st7" d="M536.3,183.1l24.5,12.2l-3.2,1.6l-3.2-1.4c1,1.5,0.3,3.2-2.3,4.5c-4.6,2.3-10.8,2.1-16.3-0.6
				c-5.6-2.8-5.9-5.9-1.3-8.1c2.5-1.3,5.7-1.6,8.5-1.2l-10.4-5.2L536.3,183.1z M549,193l-0.4-0.2c-3.5-1.8-7.4-1.9-10.3-0.5
				c-2.9,1.5-2.5,3.4,1.2,5.2c3.7,1.8,7.6,2.1,10.6,0.6C552.8,196.8,552.5,194.8,549,193z"/>
			<path class="st7" d="M556.9,184l5.8,3.4l-2.8,1.4l-6.8-2.9l-8.9-4.5l3.8-1.9L556.9,184z M568.9,189.3c1.5,0.7,1.4,1.7-0.2,2.4
				c-1.5,0.8-3.4,0.8-4.9,0.1c-1.5-0.7-1.4-1.7,0.1-2.4C565.5,188.6,567.4,188.6,568.9,189.3z"/>
		</g>
	</g>
	<g>
		<g>
			<g>
				<g>
					<path class="st8" d="M475.1,532.8l-67.9,2.9l-55.8,27.1c-4.5,2.2-4.7,5.6-0.6,7.6l121.9,59.3l23.2-11.2l69.7-33.9
						c4.5-2.2,4.7-5.6,0.6-7.6C566.2,577.1,475.3,532.9,475.1,532.8z"/>
				</g>
			</g>
			<g>
				<g>
					<g>
						<line class="st9" x1="468.4" y1="613" x2="541.2" y2="577.6"/>
						<line class="st9" x1="453" y1="605.5" x2="525.7" y2="570.1"/>
						<line class="st9" x1="437.6" y1="598" x2="510.3" y2="562.6"/>
						<line class="st9" x1="406.7" y1="583" x2="479.4" y2="547.6"/>
						<line class="st9" x1="391.3" y1="575.5" x2="450.1" y2="546.9"/>
						<line class="st9" x1="375.9" y1="568" x2="425.6" y2="543.8"/>
					</g>
				</g>
				<line class="st9" x1="422.1" y1="590.5" x2="494.9" y2="555.1"/>
			</g>
		</g>
		<g>
			<g>
				<g>
					<path class="st8" d="M475.1,474.5l-67.9,2.9l-55.8,27.1c-4.5,2.2-4.7,5.6-0.6,7.6l121.9,59.3l23.2-11.2l69.7-33.9
						c4.5-2.2,4.7-5.6,0.6-7.6C566.2,518.8,475.3,474.6,475.1,474.5z"/>
				</g>
			</g>
			<g>
				<g>
					<g>
						<line class="st9" x1="468.4" y1="554.7" x2="541.2" y2="519.3"/>
						<line class="st9" x1="453" y1="547.2" x2="525.7" y2="511.8"/>
						<line class="st9" x1="437.6" y1="539.7" x2="510.3" y2="504.3"/>
						<line class="st9" x1="406.7" y1="524.7" x2="479.4" y2="489.3"/>
						<line class="st9" x1="391.3" y1="517.2" x2="450.1" y2="488.6"/>
						<line class="st9" x1="375.9" y1="509.7" x2="425.6" y2="485.5"/>
					</g>
				</g>
				<line class="st9" x1="422.1" y1="532.2" x2="494.9" y2="496.8"/>
			</g>
		</g>
		<g>
			<g>
				<g>
					<path class="st8" d="M475.1,416.2l-67.9,2.9l-55.8,27.1c-4.5,2.2-4.7,5.6-0.6,7.6l121.9,59.3l23.2-11.2l69.7-33.9
						c4.5-2.2,4.7-5.6,0.6-7.6C566.2,460.5,475.3,416.3,475.1,416.2z"/>
				</g>
			</g>
			<g>
				<g>
					<g>
						<line class="st9" x1="468.4" y1="496.4" x2="541.2" y2="461"/>
						<line class="st9" x1="453" y1="488.9" x2="525.7" y2="453.5"/>
						<line class="st9" x1="437.6" y1="481.4" x2="510.3" y2="446"/>
						<line class="st9" x1="406.7" y1="466.4" x2="479.4" y2="431"/>
						<line class="st9" x1="391.3" y1="458.9" x2="450.1" y2="430.2"/>
						<line class="st9" x1="375.9" y1="451.4" x2="425.6" y2="427.2"/>
					</g>
				</g>
				<line class="st9" x1="422.1" y1="473.9" x2="494.9" y2="438.5"/>
			</g>
		</g>
		<g>
			<g>
				<path class="st8" d="M475.1,357.9l-67.9,2.9l-55.8,27.1c-4.5,2.2-4.7,5.6-0.6,7.6l121.9,59.3l23.2-11.2l69.7-33.9
					c4.5-2.2,4.7-5.6,0.6-7.6C566.2,402.2,475.3,358,475.1,357.9z"/>
			</g>
		</g>
		<g>
			<g>
				<g>
					<line class="st9" x1="468.4" y1="438" x2="541.2" y2="402.7"/>
					<line class="st9" x1="453" y1="430.5" x2="525.7" y2="395.2"/>
					<line class="st9" x1="437.6" y1="423" x2="510.3" y2="387.7"/>
					<line class="st9" x1="406.7" y1="408" x2="479.4" y2="372.7"/>
					<line class="st9" x1="391.3" y1="400.5" x2="450.1" y2="371.9"/>
					<line class="st9" x1="375.9" y1="393" x2="425.6" y2="368.9"/>
				</g>
			</g>
			<line class="st9" x1="422.1" y1="415.5" x2="494.9" y2="380.2"/>
		</g>
		<ellipse class="st10" cx="429.1" cy="411.5" rx="8.4" ry="8.3"/>
		
			<linearGradient id="SVGID_1_" gradientUnits="userSpaceOnUse" x1="426.0163" y1="593.29" x2="592.3837" y2="593.29" gradientTransform="matrix(1 0 0 -1 0 897.89)">
			<stop  offset="1.198948e-03" style="stop-color:#41BFB9"/>
			<stop  offset="0.8" style="stop-color:#5063AE"/>
			<stop  offset="1" style="stop-color:#7E5AA6"/>
		</linearGradient>
		<polyline class="st11" points="429.6,411.5 468.2,392.7 468.2,255.9 468.2,256.3 588.8,197.7 		"/>
		<ellipse class="st7" cx="588" cy="196.9" rx="8.4" ry="8.3"/>
	</g>
	<g>
		<g>
			<g>
				<path class="st1" d="M547.2,679.4l-22.1-3.5L481,697.4l4.3,12l86.6,42.1c7,3.4,18.3,3.4,25.3,0l98.4-47.9c7-3.4,7-8.9,0-12.3
					l-38.5-18.8l-48-23.4L547.2,679.4z"/>
			</g>
			<g>
				<g>
					<polyline class="st2" points="547.2,679.4 525.1,675.9 481.1,697.4 485.4,709.5 					"/>
				</g>
			</g>
		</g>
	</g>
</g>
</svg>
