<?xml version="1.0" encoding="utf-8"?>
<!-- Generator: Adobe Illustrator 21.1.0, SVG Export Plug-In . SVG Version: 6.00 Build 0)  -->
<svg version="1.1" baseProfile="basic" id="Layer_1"
	 xmlns="http://www.w3.org/2000/svg" xmlns:xlink="http://www.w3.org/1999/xlink" x="0px" y="0px" viewBox="0 0 600 600"
	 xml:space="preserve">
<style type="text/css">
	.st0{fill:#D2D3D4;}
	.st1{fill:none;stroke:#FFFFFF;stroke-width:22;stroke-miterlimit:10;}
	.st2{fill:#FFFFFF;}
	.st3{fill:#FFFFFF;stroke:#F15E4F;stroke-width:22;stroke-miterlimit:10;}
	.st4{fill:#D2D3D4;stroke:#F15E4F;stroke-width:20.6065;stroke-miterlimit:10;}
	.st5{fill:#FFFFFF;stroke:#F15E4F;stroke-width:20.6065;stroke-miterlimit:10;}
	.st6{fill:none;}
	.st7{fill:none;stroke:#D2D3D4;stroke-width:17;stroke-miterlimit:10;}
	.st8{fill:#FFFFFF;stroke:#F15E4F;stroke-width:12.3068;stroke-miterlimit:10;}
	.st9{fill:#FFFFFF;stroke:#F15E4F;stroke-width:12.1831;stroke-miterlimit:10;}
	.st10{fill:none;stroke:#D2D3D4;stroke-width:10.0226;stroke-miterlimit:10;}
	.st11{fill:none;stroke:url(#SVGID_1_);stroke-width:23.0065;stroke-linejoin:round;stroke-miterlimit:10;}
	.st12{fill:none;stroke:#D2D3D4;stroke-width:20;stroke-miterlimit:10;}
	.st13{fill:none;stroke:url(#SVGID_2_);stroke-width:28.9158;stroke-miterlimit:10;}
</style>
<g>
	<g>
	</g>
	<g>
	</g>
	<path class="st1" d="M225.3,229.6l0.2-103.9c0-11.7,9.5-21.2,21.2-21.2l146-0.1l96.2,87.4c0,0.6,0.4,257.3,0.4,257.3
		c0,11.7-9.5,21.2-21.2,21.2l-236.2-0.6l-19.7,19.8c-8.1,8.1-21.1,8.1-29.2,0c-21.3-21.4-46.4-46.5-66.4-66.5c-8-8-8-21,0-29.1
		l101.6-102.2h92.4v115.4"/>
	<g>
		<line class="st7" x1="263.9" y1="152.8" x2="391.6" y2="152.8"/>
		<line class="st7" x1="263.9" y1="179.7" x2="425.2" y2="179.7"/>
		<line class="st7" x1="264" y1="206.6" x2="451.1" y2="206.6"/>
		<line class="st7" x1="264" y1="233.5" x2="451.1" y2="233.5"/>
		<line class="st7" x1="264" y1="260.5" x2="451.2" y2="260.5"/>
		<line class="st7" x1="348.8" y1="287.4" x2="451.2" y2="287.4"/>
		<line class="st7" x1="348.8" y1="314.3" x2="451.2" y2="314.3"/>
		<line class="st7" x1="348.9" y1="341.3" x2="451.2" y2="341.3"/>
		<line class="st7" x1="348.9" y1="369.2" x2="451.2" y2="369.2"/>
		<line class="st7" x1="348.9" y1="396.1" x2="451.2" y2="396.1"/>
		<line class="st7" x1="348.9" y1="423" x2="451.2" y2="423"/>
	</g>
	<circle class="st2" cx="225.7" cy="229.7" r="17.5"/>
	<circle class="st2" cx="310.8" cy="407.1" r="17.5"/>
	<ellipse class="st2" cx="265" cy="336.7" rx="15.9" ry="15.9"/>
</g>
</svg>
