<svg id="Layer_2" data-name="Layer 2" xmlns="http://www.w3.org/2000/svg" xmlns:xlink="http://www.w3.org/1999/xlink" viewBox="0 0 539 261"><defs><style>.cls-1{fill:none;}.cls-2{clip-path:url(#clip-path);}.cls-3{fill:url(#radial-gradient);}.cls-4{clip-path:url(#clip-path-2);}.cls-5{fill:url(#radial-gradient-2);}.cls-6{clip-path:url(#clip-path-3);}.cls-7{fill:url(#radial-gradient-3);}.cls-8{clip-path:url(#clip-path-4);}.cls-9{fill:url(#radial-gradient-4);}.cls-10{clip-path:url(#clip-path-5);}.cls-11{fill:url(#radial-gradient-5);}.cls-12{clip-path:url(#clip-path-6);}.cls-13{fill:url(#radial-gradient-6);}</style><clipPath id="clip-path"><circle class="cls-1" cx="407.62" cy="24.16" r="23.4"/></clipPath><radialGradient id="radial-gradient" cx="979.96" cy="24.16" r="198.97" gradientTransform="translate(-572.91 0)" gradientUnits="userSpaceOnUse"><stop offset="0" stop-color="#d32250"/><stop offset="0.26" stop-color="#d02352"/><stop offset="0.45" stop-color="#c6275a"/><stop offset="0.63" stop-color="#b62d67"/><stop offset="0.79" stop-color="#9f3679"/><stop offset="0.94" stop-color="#824191"/><stop offset="1" stop-color="#74479c"/></radialGradient><clipPath id="clip-path-2"><path class="cls-1" d="M502.33,119a29.83,29.83,0,1,1-29.83-29.83A29.83,29.83,0,0,1,502.33,119ZM472.49,53.56A65.44,65.44,0,1,0,537.94,119,65.44,65.44,0,0,0,472.49,53.56Z"/></clipPath><radialGradient id="radial-gradient-2" cx="980.52" cy="24.16" r="264" gradientTransform="translate(-572.91 0)" gradientUnits="userSpaceOnUse"><stop offset="0.1" stop-color="#d42251"/><stop offset="0.43" stop-color="#74479c"/><stop offset="0.69" stop-color="#5063ae"/><stop offset="1" stop-color="#47bbb8"/></radialGradient><clipPath id="clip-path-3"><path class="cls-1" d="M354.09,67A22.09,22.09,0,1,1,332,44.91,22.09,22.09,0,0,1,354.09,67ZM332,13.33A53.67,53.67,0,1,0,385.67,67,53.67,53.67,0,0,0,332,13.33Z"/></clipPath><radialGradient id="radial-gradient-3" cx="980.52" cy="24.16" r="264" gradientTransform="translate(-572.91 0)" gradientUnits="userSpaceOnUse"><stop offset="0.09" stop-color="#d42251"/><stop offset="0.4" stop-color="#74479c"/><stop offset="0.66" stop-color="#5063ae"/><stop offset="1" stop-color="#47bbb8"/></radialGradient><clipPath id="clip-path-4"><path class="cls-1" d="M380,194.5a31.17,31.17,0,1,1-31.17-31.17A31.17,31.17,0,0,1,380,194.5Zm-31.17-65.39a65.39,65.39,0,1,0,65.39,65.39A65.39,65.39,0,0,0,348.83,129.11Z"/></clipPath><radialGradient id="radial-gradient-4" cx="943.16" cy="38.51" r="251.68" gradientTransform="translate(-572.91 0)" gradientUnits="userSpaceOnUse"><stop offset="0" stop-color="#d42251"/><stop offset="0.3" stop-color="#74479c"/><stop offset="0.61" stop-color="#5063ae"/><stop offset="0.96" stop-color="#47bbb8"/></radialGradient><clipPath id="clip-path-5"><path class="cls-1" d="M240.33,119A29.83,29.83,0,1,1,210.5,89.17,29.83,29.83,0,0,1,240.33,119ZM210.5,53.56A65.44,65.44,0,1,0,275.94,119,65.44,65.44,0,0,0,210.5,53.56Z"/></clipPath><radialGradient id="radial-gradient-5" cx="969.99" cy="29.52" r="287.43" gradientTransform="translate(-572.91 0)" gradientUnits="userSpaceOnUse"><stop offset="0" stop-color="#d42251"/><stop offset="0.27" stop-color="#74479c"/><stop offset="0.55" stop-color="#5063ae"/><stop offset="1" stop-color="#47bbb8"/></radialGradient><clipPath id="clip-path-6"><path class="cls-1" d="M135,163.84a58.28,58.28,0,1,1-.24-89.27,88.27,88.27,0,0,1,25.89-27.86A96.28,96.28,0,1,0,161,191.56,88.28,88.28,0,0,1,135,163.84Z"/></clipPath><radialGradient id="radial-gradient-6" cx="670.12" cy="120.66" r="235.83" gradientTransform="translate(-572.91 0)" gradientUnits="userSpaceOnUse"><stop offset="0.23" stop-color="#47bbb8"/><stop offset="0.37" stop-color="#48b3b7"/><stop offset="0.59" stop-color="#4a9cb4"/><stop offset="0.87" stop-color="#4e77b0"/><stop offset="1" stop-color="#5063ae"/></radialGradient></defs><title>cogo_logo4</title><g class="cls-2"><circle class="cls-3" cx="407.05" cy="24.16" r="198.97"/></g><g class="cls-4"><circle class="cls-5" cx="407.62" cy="24.16" r="264"/></g><g class="cls-6"><circle class="cls-7" cx="407.62" cy="24.16" r="264"/></g><g class="cls-8"><circle class="cls-9" cx="370.26" cy="38.51" r="251.68"/></g><g class="cls-10"><circle class="cls-11" cx="397.08" cy="29.53" r="287.43"/></g><g class="cls-12"><circle class="cls-13" cx="97.22" cy="120.67" r="235.83"/></g></svg>