<?xml version="1.0" encoding="utf-8"?>
<!-- Generator: Adobe Illustrator 21.1.0, SVG Export Plug-In . SVG Version: 6.00 Build 0)  -->
<svg version="1.1" baseProfile="basic" id="Layer_1"
	 xmlns="http://www.w3.org/2000/svg" xmlns:xlink="http://www.w3.org/1999/xlink" x="0px" y="0px" viewBox="0 0 900 900"
	 xml:space="preserve">
<style type="text/css">
	.st0{fill:#D2D3D4;}
	.st1{fill:#CCCCCC;}
	.st2{fill:none;stroke:#41BFB9;stroke-width:6.2165;stroke-linecap:round;stroke-linejoin:round;stroke-miterlimit:10;}
	.st3{fill:none;stroke:#7E5AA6;stroke-width:12.75;stroke-linecap:round;stroke-linejoin:round;stroke-miterlimit:10;}
	.st4{fill:none;stroke:url(#SVGID_1_);stroke-width:12.75;stroke-linecap:round;stroke-linejoin:round;stroke-miterlimit:10;}
	.st5{fill:none;stroke:#41BFB9;stroke-width:12.75;stroke-linecap:round;stroke-linejoin:round;stroke-miterlimit:10;}
	.st6{fill:none;stroke:url(#SVGID_2_);stroke-width:12.75;stroke-linecap:round;stroke-linejoin:round;stroke-miterlimit:10;}
	.st7{fill:#7E5AA6;}
	.st8{fill:#41BBB9;}
	.st9{fill:#FFFFFF;stroke:#F15E4F;stroke-width:22.0383;stroke-miterlimit:10;}
	.st10{opacity:0.6;}
	.st11{fill:#FFFFFF;}
	.st12{fill:none;stroke:#FFFFFF;stroke-width:21;stroke-miterlimit:10;}
	.st13{fill:none;stroke:url(#SVGID_3_);stroke-width:28.9299;stroke-miterlimit:10;}
	.st14{fill:none;stroke:#FFFFFF;stroke-width:25.5;stroke-miterlimit:10;}
	.st15{fill:none;stroke:#CCCCCC;stroke-width:18;stroke-miterlimit:10;}
	.st16{opacity:0.6;fill:none;stroke:#FFFFFF;stroke-width:18;stroke-miterlimit:10;}
	.st17{fill:none;stroke:url(#SVGID_4_);stroke-width:25.5;stroke-miterlimit:10;}
	.st18{fill:#EEF3F3;}
	.st19{fill:url(#SVGID_5_);}
	.st20{fill:none;stroke:url(#SVGID_6_);stroke-width:25.5;stroke-miterlimit:10;}
	.st21{fill:#3EB0A9;}
	.st22{fill:#7865AC;}
	.st23{fill:#493B96;}
	.st24{fill:none;stroke:#CCCCCC;stroke-width:90;stroke-miterlimit:10;}
	.st25{fill:#D32150;}
	.st26{fill:none;stroke:#FFFFFF;stroke-width:30;stroke-miterlimit:10;}
	.st27{fill:#FFFFFF;stroke:#231F20;stroke-miterlimit:10;}
	.st28{fill:none;stroke:url(#SVGID_7_);stroke-width:12.75;stroke-linecap:round;stroke-linejoin:round;stroke-miterlimit:10;}
	.st29{fill:none;stroke:url(#SVGID_8_);stroke-width:12.75;stroke-linecap:round;stroke-linejoin:round;stroke-miterlimit:10;}
	.st30{fill:none;stroke:url(#SVGID_9_);stroke-width:12.75;stroke-linecap:round;stroke-linejoin:round;stroke-miterlimit:10;}
	.st31{fill:none;stroke:url(#SVGID_10_);stroke-width:12.75;stroke-linecap:round;stroke-linejoin:round;stroke-miterlimit:10;}
	.st32{fill:none;stroke:url(#SVGID_11_);stroke-width:12.75;stroke-linecap:round;stroke-linejoin:round;stroke-miterlimit:10;}
	.st33{fill:#FFFFFF;stroke:#5063AE;stroke-width:12.75;stroke-linecap:round;stroke-linejoin:round;stroke-miterlimit:10;}
	.st34{fill:none;stroke:url(#SVGID_12_);stroke-width:12.75;stroke-linecap:round;stroke-linejoin:round;stroke-miterlimit:10;}
	.st35{fill:none;stroke:url(#SVGID_13_);stroke-width:12.75;stroke-linecap:round;stroke-linejoin:round;stroke-miterlimit:10;}
	.st36{fill:none;stroke:url(#SVGID_14_);stroke-width:12.75;stroke-linecap:round;stroke-linejoin:round;stroke-miterlimit:10;}
	.st37{fill:none;stroke:url(#SVGID_15_);stroke-width:12.75;stroke-linecap:round;stroke-linejoin:round;stroke-miterlimit:10;}
	.st38{fill:none;stroke:#5063AE;stroke-width:12.75;stroke-linecap:round;stroke-linejoin:round;stroke-miterlimit:10;}
	.st39{fill:#41BFB9;}
	.st40{fill:none;stroke:#FFFFFF;stroke-width:49.9386;stroke-miterlimit:10;}
	.st41{fill:none;stroke:#CCCCCC;stroke-width:3.8795;stroke-miterlimit:10;}
	.st42{fill:#FFFFFF;stroke:url(#SVGID_16_);stroke-width:6.2165;stroke-linecap:round;stroke-linejoin:round;stroke-miterlimit:10;}
	.st43{fill:#FFFFFF;stroke:url(#SVGID_17_);stroke-width:6.2165;stroke-linecap:round;stroke-linejoin:round;stroke-miterlimit:10;}
	.st44{fill:#FFFFFF;stroke:#5063AE;stroke-width:6.2165;stroke-linecap:round;stroke-linejoin:round;stroke-miterlimit:10;}
	.st45{fill:none;stroke:#CCCCCC;stroke-width:5.9648;stroke-miterlimit:10;}
	.st46{fill:#FFFFFF;stroke:#41BFB9;stroke-width:9;stroke-linecap:round;stroke-linejoin:round;stroke-miterlimit:10;}
	.st47{fill:#D2D3D4;stroke:#41BFB9;stroke-width:9;stroke-linecap:round;stroke-linejoin:round;stroke-miterlimit:10;}
	.st48{fill:#D2D3D4;stroke:#7E5AA6;stroke-width:9;stroke-linecap:round;stroke-linejoin:round;stroke-miterlimit:10;}
	.st49{fill:#D2D3D4;stroke:#7E5AA6;stroke-width:6;stroke-linecap:round;stroke-linejoin:round;stroke-miterlimit:10;}
	.st50{fill:#FFFFFF;stroke:#7E5AA6;stroke-width:6;stroke-linecap:round;stroke-linejoin:round;stroke-miterlimit:10;}
	.st51{font-family:'WorkSans-Medium';}
	.st52{font-size:47.4342px;}
	.st53{fill:#FFFFFF;stroke:#5063AE;stroke-width:9;stroke-linecap:round;stroke-linejoin:round;stroke-miterlimit:10;}
	.st54{fill:none;stroke:#CCCCCC;stroke-width:6;stroke-miterlimit:10;}
	.st55{fill:none;stroke:url(#SVGID_18_);stroke-width:9;stroke-linecap:round;stroke-linejoin:round;stroke-miterlimit:10;}
	.st56{fill:#FFFFFF;stroke:#41BFB9;stroke-width:6.2165;stroke-linecap:round;stroke-linejoin:round;stroke-miterlimit:10;}
	.st57{fill:#D2D3D4;stroke:#41BFB9;stroke-width:6.2165;stroke-linecap:round;stroke-linejoin:round;stroke-miterlimit:10;}
	.st58{fill:#7E5AA6;stroke:#FFFFFF;stroke-width:6.2165;stroke-linecap:round;stroke-linejoin:round;stroke-miterlimit:10;}
	.st59{fill:#D2D3D4;stroke:#FFFFFF;stroke-width:6.2165;stroke-linecap:round;stroke-linejoin:round;stroke-miterlimit:10;}
	.st60{fill:#41BFB9;stroke:#FFFFFF;stroke-width:6.2165;stroke-linecap:round;stroke-linejoin:round;stroke-miterlimit:10;}
	.st61{fill:#5063AE;}
	.st62{fill:#5063AE;stroke:#FFFFFF;stroke-width:6.2165;stroke-linecap:round;stroke-linejoin:round;stroke-miterlimit:10;}
	.st63{fill:none;stroke:#FFFFFF;stroke-width:6.2165;stroke-linecap:round;stroke-linejoin:round;stroke-miterlimit:10;}
	.st64{fill:none;stroke:url(#SVGID_19_);stroke-width:6.2165;stroke-linecap:round;stroke-linejoin:round;stroke-miterlimit:10;}
	.st65{fill:none;stroke:#5063AE;stroke-width:6.2165;stroke-linecap:round;stroke-linejoin:round;stroke-miterlimit:10;}
	.st66{fill:none;stroke:url(#SVGID_20_);stroke-width:6.2165;stroke-linecap:round;stroke-linejoin:round;stroke-miterlimit:10;}
	.st67{fill:none;stroke:#7E5AA6;stroke-width:6.2165;stroke-linecap:round;stroke-linejoin:round;stroke-miterlimit:10;}
	.st68{fill:none;stroke:url(#SVGID_21_);stroke-width:6.2165;stroke-linecap:round;stroke-linejoin:round;stroke-miterlimit:10;}
	.st69{fill:none;stroke:url(#SVGID_22_);stroke-width:6.2165;stroke-linecap:round;stroke-linejoin:round;stroke-miterlimit:10;}
	.st70{fill:none;stroke:url(#SVGID_23_);stroke-width:6.2165;stroke-linecap:round;stroke-linejoin:round;stroke-miterlimit:10;}
	.st71{fill:url(#SVGID_24_);}
	.st72{fill:none;stroke:url(#SVGID_25_);stroke-width:6.1159;stroke-linecap:round;stroke-linejoin:round;stroke-miterlimit:10;}
	.st73{fill:none;stroke:#5063AE;stroke-width:6.1159;stroke-linecap:round;stroke-linejoin:round;stroke-miterlimit:10;}
	.st74{fill:none;stroke:url(#SVGID_26_);stroke-width:6.1159;stroke-linecap:round;stroke-linejoin:round;stroke-miterlimit:10;}
	.st75{fill:none;stroke:#41BFB9;stroke-width:6.1159;stroke-linecap:round;stroke-linejoin:round;stroke-miterlimit:10;}
	.st76{fill:none;stroke:#7E5AA6;stroke-width:6.1159;stroke-linecap:round;stroke-linejoin:round;stroke-miterlimit:10;}
	.st77{fill:none;stroke:url(#SVGID_27_);stroke-width:6.1159;stroke-linecap:round;stroke-linejoin:round;stroke-miterlimit:10;}
	.st78{fill:none;stroke:url(#SVGID_28_);stroke-width:6.1159;stroke-linecap:round;stroke-linejoin:round;stroke-miterlimit:10;}
	.st79{fill:none;stroke:url(#SVGID_29_);stroke-width:6.1159;stroke-linecap:round;stroke-linejoin:round;stroke-miterlimit:10;}
	.st80{fill:url(#SVGID_30_);}
	.st81{fill:none;stroke:url(#SVGID_31_);stroke-width:6.1159;stroke-linecap:round;stroke-linejoin:round;stroke-miterlimit:10;}
	.st82{fill:none;stroke:url(#SVGID_32_);stroke-width:6.1159;stroke-linecap:round;stroke-linejoin:round;stroke-miterlimit:10;}
	.st83{fill:none;stroke:url(#SVGID_33_);stroke-width:6.1159;stroke-linecap:round;stroke-linejoin:round;stroke-miterlimit:10;}
	.st84{fill:none;stroke:url(#SVGID_34_);stroke-width:6.1159;stroke-linecap:round;stroke-linejoin:round;stroke-miterlimit:10;}
	.st85{fill:none;stroke:url(#SVGID_35_);stroke-width:6.1159;stroke-linecap:round;stroke-linejoin:round;stroke-miterlimit:10;}
	.st86{fill:url(#SVGID_36_);}
	.st87{fill:none;stroke:url(#SVGID_37_);stroke-width:6.1159;stroke-linecap:round;stroke-linejoin:round;stroke-miterlimit:10;}
	.st88{fill:none;stroke:url(#SVGID_38_);stroke-width:6.1159;stroke-linecap:round;stroke-linejoin:round;stroke-miterlimit:10;}
	.st89{fill:none;stroke:url(#SVGID_39_);stroke-width:6.1159;stroke-linecap:round;stroke-linejoin:round;stroke-miterlimit:10;}
	.st90{fill:none;stroke:url(#SVGID_40_);stroke-width:6.1159;stroke-linecap:round;stroke-linejoin:round;stroke-miterlimit:10;}
	.st91{fill:none;stroke:url(#SVGID_41_);stroke-width:6.1159;stroke-linecap:round;stroke-linejoin:round;stroke-miterlimit:10;}
	.st92{fill:url(#SVGID_42_);}
	.st93{fill:url(#SVGID_43_);}
	.st94{fill:none;stroke:url(#SVGID_44_);stroke-width:6.1159;stroke-linecap:round;stroke-linejoin:round;stroke-miterlimit:10;}
	.st95{fill:none;stroke:url(#SVGID_45_);stroke-width:6.1159;stroke-linecap:round;stroke-linejoin:round;stroke-miterlimit:10;}
	.st96{fill:none;stroke:url(#SVGID_46_);stroke-width:6.1159;stroke-linecap:round;stroke-linejoin:round;stroke-miterlimit:10;}
	.st97{fill:none;stroke:url(#SVGID_47_);stroke-width:6.1159;stroke-linecap:round;stroke-linejoin:round;stroke-miterlimit:10;}
	.st98{fill:none;stroke:url(#SVGID_48_);stroke-width:6.1159;stroke-linecap:round;stroke-linejoin:round;stroke-miterlimit:10;}
	.st99{fill:none;stroke:url(#SVGID_49_);stroke-width:6.1159;stroke-linecap:round;stroke-linejoin:round;stroke-miterlimit:10;}
	.st100{fill:none;stroke:url(#SVGID_50_);stroke-width:6.1159;stroke-linecap:round;stroke-linejoin:round;stroke-miterlimit:10;}
	.st101{fill:none;stroke:url(#SVGID_51_);stroke-width:6.1159;stroke-linecap:round;stroke-linejoin:round;stroke-miterlimit:10;}
	.st102{fill:none;stroke:url(#SVGID_52_);stroke-width:6.1159;stroke-linecap:round;stroke-linejoin:round;stroke-miterlimit:10;}
	.st103{fill:none;stroke:url(#SVGID_53_);stroke-width:6.1159;stroke-linecap:round;stroke-linejoin:round;stroke-miterlimit:10;}
	.st104{fill:none;stroke:url(#SVGID_54_);stroke-width:6.1159;stroke-linecap:round;stroke-linejoin:round;stroke-miterlimit:10;}
	.st105{fill:none;stroke:url(#SVGID_55_);stroke-width:9;stroke-linecap:round;stroke-linejoin:round;stroke-miterlimit:10;}
	.st106{fill:none;stroke:url(#SVGID_56_);stroke-width:9;stroke-linecap:round;stroke-linejoin:round;stroke-miterlimit:10;}
	.st107{fill:none;stroke:url(#SVGID_57_);stroke-width:9;stroke-linecap:round;stroke-linejoin:round;stroke-miterlimit:10;}
	.st108{fill:none;stroke:#7E5AA6;stroke-width:9;stroke-linecap:round;stroke-linejoin:round;stroke-miterlimit:10;}
	.st109{fill:none;stroke:url(#SVGID_58_);stroke-width:9;stroke-linecap:round;stroke-linejoin:round;stroke-miterlimit:10;}
	.st110{fill:none;stroke:#5063AE;stroke-width:9;stroke-linecap:round;stroke-linejoin:round;stroke-miterlimit:10;}
	.st111{fill:#5063AE;stroke:#5063AE;stroke-width:9;stroke-linecap:round;stroke-linejoin:round;stroke-miterlimit:10;}
	.st112{fill:none;stroke:#5063AE;stroke-width:6;stroke-linecap:round;stroke-linejoin:round;stroke-miterlimit:10;}
	.st113{fill:#7E5AA6;stroke:#7E5AA6;stroke-width:9;stroke-linecap:round;stroke-linejoin:round;stroke-miterlimit:10;}
	.st114{fill:none;stroke:#7E5AA6;stroke-width:6;stroke-linecap:round;stroke-linejoin:round;stroke-miterlimit:10;}
	.st115{fill:none;stroke:#41BFB9;stroke-width:9;stroke-linecap:round;stroke-linejoin:round;stroke-miterlimit:10;}
	.st116{fill:#41BFB9;stroke:#41BFB9;stroke-width:9;stroke-linecap:round;stroke-linejoin:round;stroke-miterlimit:10;}
	.st117{fill:none;stroke:#41BFB9;stroke-width:6;stroke-linecap:round;stroke-linejoin:round;stroke-miterlimit:10;}
	.st118{fill:none;stroke:#41BFB9;stroke-width:3;stroke-miterlimit:10;}
	.st119{fill:none;stroke:#5063AE;stroke-width:3;stroke-miterlimit:10;}
	.st120{fill:none;stroke:#7E5AA6;stroke-width:3;stroke-miterlimit:10;}
	.st121{fill:none;}
	.st122{fill:none;stroke:url(#SVGID_59_);stroke-width:9;stroke-linecap:round;stroke-linejoin:round;stroke-miterlimit:10;}
	.st123{fill:none;stroke:url(#SVGID_60_);stroke-width:6;stroke-linecap:round;stroke-linejoin:round;stroke-miterlimit:10;}
	.st124{fill:none;stroke:url(#SVGID_61_);stroke-width:9;stroke-linecap:round;stroke-linejoin:round;stroke-miterlimit:10;}
	.st125{fill:none;stroke:url(#SVGID_62_);stroke-width:9;stroke-linecap:round;stroke-linejoin:round;stroke-miterlimit:10;}
	.st126{fill:none;stroke:url(#SVGID_63_);stroke-width:9;stroke-linecap:round;stroke-linejoin:round;stroke-miterlimit:10;}
	.st127{fill:none;stroke:url(#SVGID_64_);stroke-width:9;stroke-linecap:round;stroke-linejoin:round;stroke-miterlimit:10;}
	.st128{fill:none;stroke:url(#SVGID_65_);stroke-width:9;stroke-linecap:round;stroke-linejoin:round;stroke-miterlimit:10;}
	.st129{fill:#FFFFFF;stroke:#5063AE;stroke-width:6;stroke-linecap:round;stroke-linejoin:round;stroke-miterlimit:10;}
	.st130{fill:none;stroke:url(#SVGID_66_);stroke-width:9;stroke-linecap:round;stroke-linejoin:round;stroke-miterlimit:10;}
	.st131{fill:none;stroke:url(#SVGID_67_);stroke-width:9;stroke-linecap:round;stroke-linejoin:round;stroke-miterlimit:10;}
	.st132{fill:none;stroke:url(#SVGID_68_);stroke-width:9;stroke-linecap:round;stroke-linejoin:round;stroke-miterlimit:10;}
	.st133{fill:none;stroke:#3E3092;stroke-width:3;stroke-miterlimit:10;}
	.st134{fill:none;stroke:url(#SVGID_69_);stroke-width:9;stroke-linecap:round;stroke-linejoin:round;stroke-miterlimit:10;}
</style>
<g>
	<g>
		<g>
			<g>
				<path class="st46" d="M194.6,567l-27.7-4.4l-55.2,27.1l5.4,15.1l108.6,52.9c8.8,4.3,23,4.3,31.8,0l123.4-60.3
					c8.8-4.3,8.8-11.2,0-15.5l-48.3-23.6L272.3,529L194.6,567z"/>
			</g>
			<g>
				<g>
					<polyline class="st47" points="194.6,567 166.9,562.6 111.7,589.7 117.1,604.8 					"/>
				</g>
			</g>
		</g>
	</g>
	<g>
		<g>
			<g>
				<path class="st46" d="M391.4,648.5l-27.7-4.4l-55.2,27.1l5.4,15.1l108.6,52.9c8.8,4.3,23,4.3,31.8,0L577.6,679
					c8.8-4.3,8.8-11.2,0-15.5l-48.3-23.6l-60.2-29.4L391.4,648.5z"/>
			</g>
			<g>
				<g>
					<polyline class="st47" points="391.4,648.5 363.7,644.1 308.5,671.2 313.9,686.3 					"/>
				</g>
			</g>
		</g>
	</g>
	<g>
		<g>
			<g>
				<path class="st46" d="M194.6,740.4l-27.7-4.4l-55.2,27.1l5.4,15.1l108.6,52.9c8.8,4.3,23,4.3,31.8,0L380.8,771
					c8.8-4.3,8.8-11.2,0-15.5l-48.3-23.6l-60.2-29.4L194.6,740.4z"/>
			</g>
			<g>
				<g>
					<polyline class="st47" points="194.6,740.4 166.9,736.1 111.7,763.2 117.1,778.3 					"/>
				</g>
			</g>
		</g>
	</g>
	<g>
		<g>
			<g>
				<path class="st46" d="M595.3,558.8l-27.7-4.4l-55.2,27.1l5.4,15.1l108.6,52.9c8.8,4.3,23,4.3,31.8,0l123.4-60.3
					c8.8-4.3,8.8-11.2,0-15.5l-48.3-23.6L673,520.8L595.3,558.8z"/>
			</g>
			<g>
				<g>
					<polyline class="st47" points="595.3,558.8 567.6,554.4 512.4,581.5 517.8,596.6 					"/>
				</g>
			</g>
		</g>
	</g>
	<g>
		<path class="st48" d="M659.4,102.2c-0.4-0.3-0.8-0.5-1.2-0.8c-1.3-0.9-2.6-1.8-4-2.6c-4-2.6-8.4-5-12.9-7.3c-1-0.5-1.9-1-2.9-1.4
			c-2.1-1-4.2-2-6.4-2.9c-0.9-0.4-1.8-0.8-2.7-1.2c-1.3-0.5-2.5-1-3.8-1.6c-3-1.2-6-2.3-9.2-3.4c-5.3-1.8-10.9-3.5-16.6-5.1
			c-1.2-0.3-2.5-0.7-3.7-1c-23.8-6-50.8-9.4-79.3-9.4c-28.6,0-55.5,3.4-79.3,9.4c-1.3,0.3-2.5,0.6-3.7,1c-5.8,1.5-11.3,3.2-16.6,5.1
			c-3.1,1.1-6.2,2.2-9.2,3.4c-1.3,0.5-2.6,1-3.8,1.6c-0.9,0.4-1.8,0.8-2.7,1.2c-2.2,0.9-4.3,1.9-6.4,2.9c-1,0.5-2,1-2.9,1.4
			c-4.6,2.3-8.9,4.8-12.9,7.3c-1.4,0.9-2.7,1.7-4,2.6c-0.4,0.3-0.8,0.5-1.2,0.8c-19.8,14-31.5,30.9-31.5,49.3v20
			c0,47.5,78,85.9,174.2,85.9s174.2-38.5,174.2-85.9v-20C690.8,133.1,679.2,116.2,659.4,102.2z"/>
		<path class="st48" d="M611.7,242.5l191.1,92.1c14.1,7,30.7,7,44.8,0l0,0c4.1-2,6.2-5.9,6.3-9.9h0v-15h0c0.2-4.2-1.9-8.5-6.3-10.7
			L528.4,141.6l-43.2,21.3l125.4,61.9"/>
		<line class="st49" x1="610.7" y1="224.7" x2="610.7" y2="241.5"/>
		<g>
			<path class="st50" d="M802.7,319.5L485.2,162.9l43.2-21.3L847.5,299c8.5,4.2,8.5,16.3,0,20.5l0,0
				C833.4,326.4,816.8,326.4,802.7,319.5z"/>
		</g>
		<ellipse class="st50" cx="516.6" cy="151.5" rx="174.2" ry="85.9"/>
		<ellipse class="st0" cx="516.6" cy="151.5" rx="145.9" ry="71.9"/>
		<text transform="matrix(0.8944 -0.4472 0.8944 0.4472 455.5731 192.3533)" class="st7 st51 st52">Found!</text>
	</g>
	<g>
		<g>
			<g>
				<g>
					<path class="st53" d="M473.1,554.1l-85.1,3.6l-69.9,34.1c-5.6,2.7-6,7-0.7,9.6l152.9,74.6l29.1-14.1l87.3-42.6
						c5.6-2.7,6-7,0.7-9.6C587.3,609.8,473.4,554.3,473.1,554.1z"/>
				</g>
			</g>
			<g>
				<g>
					<g>
						<line class="st54" x1="464.8" y1="655" x2="556" y2="610.5"/>
						<line class="st54" x1="445.4" y1="645.5" x2="536.6" y2="601.1"/>
						<line class="st54" x1="426.1" y1="636.1" x2="517.3" y2="591.6"/>
						<line class="st54" x1="387.4" y1="617.2" x2="478.6" y2="572.8"/>
						<line class="st54" x1="368.1" y1="607.8" x2="441.9" y2="571.8"/>
						<line class="st54" x1="348.7" y1="598.4" x2="411" y2="568"/>
					</g>
				</g>
				<line class="st54" x1="406.8" y1="626.7" x2="497.9" y2="582.2"/>
			</g>
		</g>
		<g>
			<g>
				<g>
					<path class="st53" d="M473.1,480.8l-85.1,3.6l-69.9,34.1c-5.6,2.7-6,7-0.7,9.6l152.9,74.6l29.1-14.1l87.3-42.6
						c5.6-2.7,6-7,0.7-9.6C587.3,536.5,473.4,480.9,473.1,480.8z"/>
				</g>
			</g>
			<g>
				<g>
					<g>
						<line class="st54" x1="464.8" y1="581.6" x2="556" y2="537.2"/>
						<line class="st54" x1="445.4" y1="572.2" x2="536.6" y2="527.7"/>
						<line class="st54" x1="426.1" y1="562.8" x2="517.3" y2="518.3"/>
						<line class="st54" x1="387.4" y1="543.9" x2="478.6" y2="499.4"/>
						<line class="st54" x1="368.1" y1="534.5" x2="441.9" y2="498.5"/>
						<line class="st54" x1="348.7" y1="525" x2="411" y2="494.7"/>
					</g>
				</g>
				<line class="st54" x1="406.8" y1="553.3" x2="497.9" y2="508.9"/>
			</g>
		</g>
		<g>
			<g>
				<g>
					<path class="st53" d="M473.1,407.5l-85.1,3.6l-69.9,34.1c-5.6,2.7-6,7-0.7,9.6l152.9,74.6l29.1-14.1l87.3-42.6
						c5.6-2.7,6-7,0.7-9.6C587.3,463.2,473.4,407.6,473.1,407.5z"/>
				</g>
			</g>
			<g>
				<g>
					<g>
						<line class="st54" x1="464.8" y1="508.3" x2="556" y2="463.8"/>
						<line class="st54" x1="445.4" y1="498.9" x2="536.6" y2="454.4"/>
						<line class="st54" x1="426.1" y1="489.4" x2="517.3" y2="445"/>
						<line class="st54" x1="387.4" y1="470.6" x2="478.6" y2="426.1"/>
						<line class="st54" x1="368.1" y1="461.1" x2="441.9" y2="425.2"/>
						<line class="st54" x1="348.7" y1="451.7" x2="411" y2="421.3"/>
					</g>
				</g>
				<line class="st54" x1="406.8" y1="480" x2="497.9" y2="435.5"/>
			</g>
		</g>
		<g>
			<g>
				<path class="st53" d="M473.1,334.1l-85.1,3.6l-69.9,34.1c-5.6,2.7-6,7-0.7,9.6l152.9,74.6l29.1-14.1l87.3-42.6
					c5.6-2.7,6-7,0.7-9.6C587.3,389.8,473.4,334.3,473.1,334.1z"/>
			</g>
		</g>
		<g>
			<g>
				<g>
					<line class="st54" x1="464.8" y1="435" x2="556" y2="390.5"/>
					<line class="st54" x1="445.4" y1="425.5" x2="536.6" y2="381.1"/>
					<line class="st54" x1="426.1" y1="416.1" x2="517.3" y2="371.6"/>
					<line class="st54" x1="387.4" y1="397.2" x2="478.6" y2="352.8"/>
					<line class="st54" x1="368.1" y1="387.8" x2="441.9" y2="351.8"/>
					<line class="st54" x1="348.7" y1="378.4" x2="411" y2="348"/>
				</g>
			</g>
			<line class="st54" x1="406.8" y1="406.7" x2="497.9" y2="362.2"/>
		</g>
		<circle class="st39" cx="415.5" cy="401.6" r="10.5"/>
		<linearGradient id="SVGID_1_" gradientUnits="userSpaceOnUse" x1="411.582" y1="267.1187" x2="620.262" y2="267.1187">
			<stop  offset="1.198948e-03" style="stop-color:#41BFB9"/>
			<stop  offset="0.8" style="stop-color:#5063AE"/>
			<stop  offset="1" style="stop-color:#7E5AA6"/>
		</linearGradient>
		
			<polyline style="fill:none;stroke:url(#SVGID_1_);stroke-width:9;stroke-linecap:round;stroke-linejoin:round;stroke-miterlimit:10;" points="
			416.1,401.6 464.5,378 464.5,206 464.5,206.4 615.8,132.7 		"/>
		<circle class="st7" cx="614.8" cy="131.7" r="10.5"/>
	</g>
	<g>
		<g>
			<g>
				<path class="st46" d="M563.5,738.4l-27.7-4.4l-55.2,27.1l5.4,15.1l108.6,52.9c8.8,4.3,23,4.3,31.8,0L749.8,769
					c8.8-4.3,8.8-11.2,0-15.5l-48.3-23.6l-60.2-29.4L563.5,738.4z"/>
			</g>
			<g>
				<g>
					<polyline class="st47" points="563.5,738.4 535.9,734.1 480.6,761.2 486,776.3 					"/>
				</g>
			</g>
		</g>
	</g>
</g>
</svg>
