<svg id="Layer_1" data-name="Layer 1" xmlns="http://www.w3.org/2000/svg" viewBox="0 0 850.39 566.93"><defs><style>.cls-1{fill:#fff;}.cls-2{fill:#0f0b0b;}.cls-3{fill:#eef3f3;}.cls-4{fill:#86bc24;}.cls-5{fill:#dbebbd;}.cls-6{fill:#b6d77c;}.cls-7{fill:#7e8892;}.cls-8{fill:#ccc;}.cls-9{fill:none;stroke:#fff;stroke-miterlimit:10;stroke-width:3.14px;}</style></defs><title>Cogo_illustration_deloitte</title><rect class="cls-1" width="850.39" height="566.93"/><rect class="cls-2" width="850.39" height="59.68"/><rect class="cls-3" x="313.3" y="179.03" width="111.89" height="29.84"/><rect class="cls-3" x="313.3" y="119.35" width="111.89" height="59.68"/><rect class="cls-3" x="440.12" y="179.03" width="111.89" height="29.84"/><rect class="cls-4" x="440.12" y="119.35" width="111.89" height="59.68"/><rect class="cls-3" x="568.42" y="179.03" width="111.89" height="29.84"/><rect class="cls-5" x="568.42" y="119.35" width="111.89" height="59.68"/><rect class="cls-3" x="695.23" y="179.03" width="111.89" height="29.84"/><rect class="cls-6" x="695.23" y="119.35" width="111.89" height="59.68"/><rect class="cls-3" x="313.3" y="283.46" width="111.89" height="29.84"/><rect class="cls-5" x="313.3" y="223.79" width="111.89" height="59.68"/><rect class="cls-3" x="440.12" y="283.46" width="111.89" height="29.84"/><rect class="cls-4" x="440.12" y="223.79" width="111.89" height="59.68"/><rect class="cls-3" x="568.42" y="283.46" width="111.89" height="29.84"/><rect class="cls-4" x="568.42" y="223.79" width="111.89" height="59.68"/><rect class="cls-3" x="695.23" y="283.46" width="111.89" height="29.84"/><rect class="cls-6" x="695.23" y="223.79" width="111.89" height="59.68"/><rect class="cls-3" x="313.3" y="387.9" width="111.89" height="29.84"/><rect class="cls-4" x="313.3" y="328.22" width="111.89" height="59.68"/><rect class="cls-3" x="440.12" y="387.9" width="111.89" height="29.84"/><rect class="cls-6" x="440.12" y="328.22" width="111.89" height="59.68"/><rect class="cls-3" x="568.42" y="387.9" width="111.89" height="29.84"/><rect class="cls-5" x="568.42" y="328.22" width="111.89" height="59.68"/><rect class="cls-3" x="695.23" y="387.9" width="111.89" height="29.84"/><rect class="cls-4" x="695.23" y="328.22" width="111.89" height="59.68"/><rect class="cls-3" x="313.3" y="492.33" width="111.89" height="29.84"/><rect class="cls-6" x="313.3" y="432.66" width="111.89" height="59.68"/><rect class="cls-3" x="440.12" y="492.33" width="111.89" height="29.84"/><rect class="cls-4" x="440.12" y="432.66" width="111.89" height="59.68"/><rect class="cls-3" x="568.42" y="492.33" width="111.89" height="29.84"/><rect class="cls-5" x="568.42" y="432.66" width="111.89" height="59.68"/><rect class="cls-3" x="695.23" y="492.33" width="111.89" height="29.84"/><rect class="cls-6" x="695.23" y="432.66" width="111.89" height="59.68"/><rect class="cls-1" x="313.3" y="14.92" width="283.46" height="29.84"/><g id="layer1"><g id="g3359"><g id="g3371"><path id="path3356" class="cls-4" d="M145.27,37a3.65,3.65,0,1,1,3.65,3.65A3.65,3.65,0,0,1,145.27,37"/><path id="path3360" class="cls-1" d="M28.92,27.35a8.16,8.16,0,0,0-1.34-5.14,4.9,4.9,0,0,0-4.07-1.67H21.58V34.66h1.48a5.3,5.3,0,0,0,4.45-1.8q1.41-1.8,1.42-5.51m6.91-.24q0,6.31-3.39,9.73t-9.55,3.42h-8V15h8.53q5.93,0,9.16,3.11t3.23,9"/><path id="path3362" class="cls-1" d="M57.9,40.25h6.34V14.92H57.9Z"/><path id="path3366" class="cls-1" d="M73.15,30.8a8.54,8.54,0,0,0,.63,3.69,2.19,2.19,0,0,0,2.12,1.27A2.13,2.13,0,0,0,78,34.5a8.83,8.83,0,0,0,.61-3.69A8.38,8.38,0,0,0,78,27.17a2.41,2.41,0,0,0-4.2,0,8.2,8.2,0,0,0-.63,3.65m11.9,0A10.1,10.1,0,0,1,82.63,38a8.86,8.86,0,0,1-6.79,2.58,8.68,8.68,0,0,1-6.66-2.64,10,10,0,0,1-2.47-7.14,10,10,0,0,1,2.42-7.15,8.94,8.94,0,0,1,6.8-2.55,9.51,9.51,0,0,1,4.78,1.18,8,8,0,0,1,3.2,3.38,11.12,11.12,0,0,1,1.13,5.14"/><path id="path3370" class="cls-1" d="M87.57,40.25h6.34V21.44H87.57Z"/><path id="path3372" class="cls-1" d="M87.57,19.16h6.34V14.92H87.57Z"/><path id="path3376" class="cls-1" d="M106.77,35.45a9.24,9.24,0,0,0,3.07-.65v4.73a12.26,12.26,0,0,1-2.44.8,13.43,13.43,0,0,1-2.72.24q-3.19,0-4.61-1.6a7.3,7.3,0,0,1-1.41-4.92V26.3H96.44V21.44h2.22V16.63L105,15.52v5.92h4V26.3h-4v7.32q0,1.83,1.72,1.83"/><path id="path3380" class="cls-1" d="M121.44,35.45a9.24,9.24,0,0,0,3.07-.65v4.73a12.24,12.24,0,0,1-2.44.8,13.42,13.42,0,0,1-2.72.24q-3.19,0-4.6-1.6a7.29,7.29,0,0,1-1.41-4.92V26.3h-2.22V21.44h2.22V16.56l6.39-1v5.92h4V26.3h-4v7.32q0,1.83,1.72,1.83"/><path id="path3384" class="cls-1" d="M132.51,28.51a3.44,3.44,0,0,1,.88-2.27,2.61,2.61,0,0,1,1.87-.72,2.45,2.45,0,0,1,1.94.81,3.26,3.26,0,0,1,.75,2.17h-5.45Zm8.94-5.19A8.78,8.78,0,0,0,135,21.1a8.68,8.68,0,0,0-6.72,2.55Q126,26.2,126,31q0,4.62,2.54,7.12a9.73,9.73,0,0,0,7.13,2.5,20.81,20.81,0,0,0,3.79-.3,11,11,0,0,0,3.06-1.07l-1-4.24a12.52,12.52,0,0,1-5.12,1,4.34,4.34,0,0,1-2.89-.9,3.26,3.26,0,0,1-1.13-2.48h11.34V29.71a8.54,8.54,0,0,0-2.26-6.39"/><path id="path3388" class="cls-1" d="M44.25,28.51a3.44,3.44,0,0,1,.88-2.27A2.6,2.6,0,0,1,47,25.52a2.45,2.45,0,0,1,1.94.81,3.28,3.28,0,0,1,.75,2.17H44.25Zm8.94-5.19a8.78,8.78,0,0,0-6.41-2.22,8.68,8.68,0,0,0-6.71,2.55Q37.71,26.2,37.71,31q0,4.62,2.54,7.12a9.72,9.72,0,0,0,7.13,2.5,20.81,20.81,0,0,0,3.79-.3,11,11,0,0,0,3.06-1.07l-1-4.24a12.51,12.51,0,0,1-5.12,1,4.35,4.35,0,0,1-2.89-.9,3.25,3.25,0,0,1-1.13-2.48H55.45V29.71a8.54,8.54,0,0,0-2.26-6.39"/></g></g></g><rect class="cls-7" x="365.89" y="137.06" width="6.71" height="26.46"/><rect class="cls-7" x="355.43" y="147.07" width="27.65" height="6.43"/><rect class="cls-8" x="15.76" y="127.78" width="107.33" height="10"/><rect class="cls-8" x="15.76" y="107.64" width="86.44" height="10"/><rect class="cls-8" x="15.76" y="207.31" width="91.58" height="10"/><rect class="cls-8" x="15.76" y="228.34" width="72.18" height="10"/><rect class="cls-8" x="15.76" y="248.94" width="57.26" height="10" transform="translate(-0.3 0.05) rotate(-0.07)"/><rect class="cls-8" x="15.76" y="269.34" width="72.18" height="10"/><path class="cls-7" d="M327.66,26.64l-1.33,1.3a2.49,2.49,0,0,0-2.49-1.5c-1.16,0-1.75.49-1.75,1.15s.5,1,2.13,1.25c2.49.46,3.43,1.23,3.43,2.77,0,1.74-1.58,2.77-3.8,2.77s-3.29-.6-4.08-1.72l1.15-1.37a2.91,2.91,0,0,0,2.86,1.51c1.19,0,1.83-.38,1.83-1.08,0-.5-.49-.8-2-1.11C321,30.1,320,29.32,320,27.77s1.39-2.91,3.78-2.91A4.39,4.39,0,0,1,327.66,26.64Z"/><path class="cls-7" d="M335.73,31.47h-5A1.64,1.64,0,0,0,332.53,33a1.45,1.45,0,0,0,1.54-.87l1.57.57a3,3,0,0,1-3.11,1.72,3.32,3.32,0,0,1-3.64-3.64c0-2.3,1.27-3.64,3.53-3.64s3.38,1.32,3.38,3.61A6.56,6.56,0,0,1,335.73,31.47Zm-5-1.34H334c-.15-1.05-.74-1.61-1.62-1.61S330.92,29.06,330.76,30.13Z"/><path class="cls-7" d="M344.27,33l-.14,1.16a2,2,0,0,1-.91.2c-.84,0-1.42-.29-1.61-1.05a2.75,2.75,0,0,1-2.48,1.05c-1.33,0-2.17-.62-2.17-1.79s.85-1.86,2.73-2.21l1.68-.32v-.34a1.11,1.11,0,0,0-1.19-1.22,1.45,1.45,0,0,0-1.61,1.19L337,29c.29-1.19,1.34-1.95,3.05-1.95,1.95,0,3.18.84,3.18,2.58v2.87c0,.36.15.53.52.53A1.72,1.72,0,0,0,344.27,33ZM341.37,32v-.73l-1.5.34c-.62.14-.94.36-.94.83s.29.69.8.69C340.46,33.08,341.37,32.71,341.37,32Z"/><path class="cls-7" d="M350.15,27.26l-.24,1.68a1.74,1.74,0,0,0-2.56,1.68v3.63h-1.92v-7h1.67l.13,1.37a2.16,2.16,0,0,1,2.17-1.51A1.61,1.61,0,0,1,350.15,27.26Z"/><path class="cls-7" d="M357.62,29.16l-1.79.64c-.17-.84-.62-1.27-1.36-1.27-1.09,0-1.71.76-1.71,2.23s.66,2.2,1.7,2.2a1.35,1.35,0,0,0,1.46-1.25l1.74.56c-.29,1.25-1.39,2.12-3.17,2.12a3.32,3.32,0,0,1-3.64-3.64,3.3,3.3,0,0,1,3.57-3.64C356.38,27.1,357.28,28,357.62,29.16Z"/><path class="cls-7" d="M365.86,29.65v4.59h-1.92v-4c0-1.2-.52-1.6-1.25-1.6s-1.61.53-1.61,1.93v3.7h-1.92V24.18h1.92v4.26a2.37,2.37,0,0,1,2.25-1.33A2.34,2.34,0,0,1,365.86,29.65Z"/><path class="cls-7" d="M24.16,89.46l-1.33,1.3a2.49,2.49,0,0,0-2.49-1.5c-1.16,0-1.75.49-1.75,1.15s.5,1,2.13,1.25c2.49.46,3.43,1.23,3.43,2.77,0,1.74-1.58,2.77-3.8,2.77s-3.29-.6-4.08-1.72l1.15-1.37a2.91,2.91,0,0,0,2.86,1.51c1.19,0,1.83-.38,1.83-1.08,0-.5-.49-.8-2-1.11-2.58-.52-3.56-1.3-3.56-2.84s1.39-2.91,3.78-2.91A4.39,4.39,0,0,1,24.16,89.46Z"/><path class="cls-7" d="M32.56,93.56A3.32,3.32,0,0,1,29,97.2a3.64,3.64,0,0,1,0-7.28A3.32,3.32,0,0,1,32.56,93.56Zm-5.25,0c0,1.48.59,2.21,1.67,2.21s1.67-.73,1.67-2.21-.59-2.21-1.67-2.21S27.31,92.08,27.31,93.56Z"/><path class="cls-7" d="M38.93,90.07l-.24,1.68a1.74,1.74,0,0,0-2.56,1.68v3.63H34.21v-7h1.67L36,91.43a2.16,2.16,0,0,1,2.17-1.51A1.61,1.61,0,0,1,38.93,90.07Z"/><path class="cls-7" d="M44.66,96.63a3.16,3.16,0,0,1-1.92.57c-1.39,0-2.34-.57-2.34-2.12v-3.6H39.13V90.06H40.4V88.45l1.92-.53v2.14h2.27v1.43H42.32v3.29a.86.86,0,0,0,1,1,1.54,1.54,0,0,0,1.08-.39Z"/><path class="cls-7" d="M18.88,189.42v2.34h3.94v1.57H18.88v3.78H16.95v-9.25h6.92v1.56Z"/><path class="cls-7" d="M25.1,188.07c0-.69.39-1,1.19-1s1.19.35,1.19,1-.39,1-1.19,1S25.1,188.76,25.1,188.07Zm2.14,9H25.32v-7h1.92Z"/><path class="cls-7" d="M31.16,194.88c0,.66.17.9.69.9a2.1,2.1,0,0,0,.83-.15L32.5,197a2.84,2.84,0,0,1-1.3.29c-1.36,0-2-.63-2-2.09V187h1.92Z"/><path class="cls-7" d="M38.29,196.67a3.16,3.16,0,0,1-1.92.57c-1.39,0-2.34-.57-2.34-2.12v-3.6H32.75V190.1H34v-1.61l1.92-.53v2.14h2.27v1.43H35.95v3.29a.86.86,0,0,0,1,1A1.54,1.54,0,0,0,38,195.4Z"/><path class="cls-7" d="M46,194.33H41a1.64,1.64,0,0,0,1.75,1.48,1.45,1.45,0,0,0,1.54-.87l1.57.57a3,3,0,0,1-3.11,1.72,3.32,3.32,0,0,1-3.64-3.64c0-2.3,1.27-3.64,3.53-3.64S46,191.28,46,193.58A6.56,6.56,0,0,1,46,194.33ZM41,193h3.26c-.15-1.05-.74-1.61-1.62-1.61S41.16,191.92,41,193Z"/><path class="cls-7" d="M52.36,190.12l-.24,1.68a1.74,1.74,0,0,0-2.56,1.68v3.63H47.64v-7H49.3l.13,1.37A2.16,2.16,0,0,1,51.6,190,1.61,1.61,0,0,1,52.36,190.12Z"/><path class="cls-7" d="M52.83,195.9,54,194.75a2,2,0,0,0,2.1,1.09c.83,0,1.29-.25,1.29-.63s-.38-.52-1.4-.73c-2.19-.43-2.91-1.11-2.91-2.27S54.11,190,56.18,190a3.23,3.23,0,0,1,3.12,1.48l-1.19,1a2,2,0,0,0-1.9-1.09c-.79,0-1.26.31-1.26.67s.35.62,1.53.85c2,.41,2.8,1,2.8,2.19s-1.11,2.17-3.19,2.17A3.68,3.68,0,0,1,52.83,195.9Z"/><path class="cls-7" d="M362.31,181.18h-3.57l-.76,2.26h-2l3.38-9.25h2.31l3.38,9.25h-2Zm-.48-1.43-.88-2.61-.42-1.4h0l-.39,1.37-.88,2.63Z"/><path class="cls-7" d="M372.84,173.37v10.07h-1.71l-.08-1.29a2.48,2.48,0,0,1-2.31,1.43c-1.86,0-3-1.34-3-3.63s1.13-3.66,3-3.66a2.36,2.36,0,0,1,2.19,1.27v-4.2ZM370.92,180v-.14c0-1.33-.62-2.1-1.62-2.1s-1.64.74-1.64,2.17.63,2.17,1.64,2.17S370.92,181.36,370.92,180Z"/><path class="cls-7" d="M381.64,173.37v10.07h-1.71l-.08-1.29a2.48,2.48,0,0,1-2.31,1.43c-1.86,0-3-1.34-3-3.63s1.13-3.66,3-3.66a2.37,2.37,0,0,1,2.19,1.27v-4.2ZM379.72,180v-.14c0-1.33-.62-2.1-1.62-2.1s-1.64.74-1.64,2.17.63,2.17,1.64,2.17S379.72,181.36,379.72,180Z"/><path class="cls-7" d="M24.26,330.87h-3.1v7.69H19.23v-7.69H16.12v-1.56h8.14Z"/><path class="cls-7" d="M31.22,337.34l-.14,1.16a2,2,0,0,1-.91.2c-.84,0-1.42-.29-1.61-1.05a2.75,2.75,0,0,1-2.48,1.05c-1.33,0-2.17-.62-2.17-1.79s.85-1.86,2.73-2.21l1.68-.32V334a1.11,1.11,0,0,0-1.19-1.22A1.45,1.45,0,0,0,25.52,334L24,333.36c.29-1.19,1.34-1.95,3.05-1.95,1.95,0,3.18.84,3.18,2.58v2.87c0,.36.15.53.52.53A1.72,1.72,0,0,0,31.22,337.34Zm-2.9-1.06v-.73l-1.5.34c-.62.14-.94.36-.94.83s.29.69.8.69C27.41,337.39,28.32,337,28.32,336.27Z"/><path class="cls-7" d="M39.07,339.19c0,1.53-1.57,2.38-3.77,2.38-2.42,0-3.45-.7-3.45-1.72,0-.62.41-1.12,1.27-1.33a1.52,1.52,0,0,1-1-1.4,1.49,1.49,0,0,1,1.11-1.42,2.08,2.08,0,0,1-1.09-1.91c0-1.47,1.22-2.38,3.21-2.38a5.37,5.37,0,0,1,1.42.18,1.94,1.94,0,0,1,2.13-1.71l.25,1.37c-.88-.08-1.43.21-1.64.66a2.08,2.08,0,0,1,1.06,1.88c0,1.46-1.22,2.37-3.22,2.37a5.83,5.83,0,0,1-1.26-.13.6.6,0,0,0-.55.63c0,.38.31.57.8.57h2.37C38.19,337.24,39.07,337.93,39.07,339.19Zm-1.57.2c0-.36-.27-.59-1.05-.59H34.55c-.81,0-1.16.22-1.16.63s.64.83,2.07.83S37.5,339.86,37.5,339.38ZM34,333.78a1.29,1.29,0,1,0,1.27-1.16A1.17,1.17,0,0,0,34,333.78Z"/><path class="cls-7" d="M39.73,337.35l1.12-1.15a2,2,0,0,0,2.1,1.09c.83,0,1.29-.25,1.29-.63s-.38-.52-1.4-.73c-2.19-.43-2.91-1.11-2.91-2.27s1.08-2.25,3.15-2.25a3.24,3.24,0,0,1,3.12,1.48l-1.19,1a2,2,0,0,0-1.9-1.09c-.79,0-1.26.31-1.26.67s.35.62,1.53.85c2,.41,2.8,1,2.8,2.18S45.06,338.7,43,338.7A3.68,3.68,0,0,1,39.73,337.35Z"/><rect class="cls-8" x="15.76" y="348.67" width="111.8" height="10"/><rect class="cls-8" x="15.76" y="368.5" width="92.41" height="10"/><rect class="cls-8" x="15.76" y="388.8" width="122.25" height="10"/><rect class="cls-8" x="15.76" y="409.46" width="62.57" height="10"/><rect class="cls-8" x="15.91" y="429.46" width="76" height="10"/><rect class="cls-8" x="15.91" y="449.63" width="90.92" height="10"/><circle class="cls-1" cx="811.34" cy="26.86" r="4.45"/><path class="cls-9" d="M833.26,29.47s-9.81-13.8-21.91-13.8a11.19,11.19,0,1,0,11.19,11.19,11.19,11.19,0,0,0-11.19-11.19c-12.1,0-21.91,13.8-21.91,13.8"/><circle class="cls-1" cx="833.26" cy="29.45" r="2.42"/><path class="cls-9" d="M829.83,34.94C824.41,40.56,817.89,44,811.34,44s-13.06-3.45-18.49-9.07"/><circle class="cls-1" cx="789.43" cy="29.45" r="2.42"/></svg>