<svg id="Layer_2" data-name="Layer 2" xmlns="http://www.w3.org/2000/svg" xmlns:xlink="http://www.w3.org/1999/xlink" viewBox="0 0 850.39 566.93"><defs><style>.cls-1{fill:#eef3f3;}.cls-2{fill:url(#New_Gradient_Swatch_1);}.cls-3{fill:#fff;}.cls-4{fill:#47bbb8;stroke:#47bbb8;}.cls-12,.cls-4,.cls-5,.cls-6,.cls-8{stroke-miterlimit:10;}.cls-5{fill:#7e5aa6;stroke:#7e5aa6;}.cls-6{fill:#493b96;stroke:#5063ae;}.cls-7,.cls-9{fill:#7e8892;}.cls-12,.cls-8{fill:none;}.cls-8{stroke:#fff;stroke-width:3.14px;}.cls-9{font-size:14px;font-family:WorkSans-SemiBold, Work Sans;font-weight:700;}.cls-10{letter-spacing:-0.01em;}.cls-11{letter-spacing:-0.01em;}.cls-12{stroke:#ccc;stroke-width:10px;}.cls-13{letter-spacing:-0.02em;}.cls-14{letter-spacing:-0.02em;}.cls-15{letter-spacing:-0.09em;}.cls-16{letter-spacing:0em;}</style><linearGradient id="New_Gradient_Swatch_1" y1="29.84" x2="850.39" y2="29.84" gradientUnits="userSpaceOnUse"><stop offset="0" stop-color="#47bbb8"/><stop offset="0.8" stop-color="#5063ae"/><stop offset="1" stop-color="#7e5aa6"/></linearGradient></defs><title>Cogo_illustration_cogo</title><rect class="cls-1" width="850.39" height="566.93"/><rect class="cls-2" width="850.39" height="59.68"/><rect class="cls-3" x="313.3" y="179.03" width="111.89" height="29.84"/><rect class="cls-3" x="313.3" y="119.35" width="111.89" height="59.68"/><rect class="cls-3" x="440.12" y="179.03" width="111.89" height="29.84"/><rect class="cls-4" x="440.12" y="119.35" width="111.89" height="59.68"/><rect class="cls-3" x="568.42" y="179.03" width="111.89" height="29.84"/><rect class="cls-5" x="568.42" y="119.35" width="111.89" height="59.68"/><rect class="cls-3" x="695.23" y="179.03" width="111.89" height="29.84"/><rect class="cls-6" x="695.23" y="119.35" width="111.89" height="59.68"/><rect class="cls-3" x="313.3" y="283.46" width="111.89" height="29.84"/><rect class="cls-6" x="313.3" y="223.79" width="111.89" height="59.68"/><rect class="cls-3" x="440.12" y="283.46" width="111.89" height="29.84"/><rect class="cls-5" x="440.12" y="223.79" width="111.89" height="59.68"/><rect class="cls-3" x="568.42" y="283.46" width="111.89" height="29.84"/><rect class="cls-4" x="568.42" y="223.79" width="111.89" height="59.68"/><rect class="cls-3" x="695.23" y="283.46" width="111.89" height="29.84"/><rect class="cls-5" x="695.23" y="223.79" width="111.89" height="59.68"/><rect class="cls-3" x="313.3" y="387.9" width="111.89" height="29.84"/><rect class="cls-5" x="313.3" y="328.22" width="111.89" height="59.68"/><rect class="cls-3" x="440.12" y="387.9" width="111.89" height="29.84"/><rect class="cls-4" x="440.12" y="328.22" width="111.89" height="59.68"/><rect class="cls-3" x="568.42" y="387.9" width="111.89" height="29.84"/><rect class="cls-6" x="568.42" y="328.22" width="111.89" height="59.68"/><rect class="cls-3" x="695.23" y="387.9" width="111.89" height="29.84"/><rect class="cls-4" x="695.23" y="328.22" width="111.89" height="59.68"/><rect class="cls-3" x="313.3" y="492.33" width="111.89" height="29.84"/><rect class="cls-4" x="313.3" y="432.66" width="111.89" height="59.68"/><rect class="cls-3" x="440.12" y="492.33" width="111.89" height="29.84"/><rect class="cls-6" x="440.12" y="432.66" width="111.89" height="59.68"/><rect class="cls-3" x="568.42" y="492.33" width="111.89" height="29.84"/><rect class="cls-5" x="568.42" y="432.66" width="111.89" height="59.68"/><rect class="cls-3" x="695.23" y="492.33" width="111.89" height="29.84"/><rect class="cls-6" x="695.23" y="432.66" width="111.89" height="59.68"/><rect class="cls-3" x="313.3" y="14.92" width="283.46" height="29.84"/><rect class="cls-7" x="365.89" y="137.06" width="6.71" height="26.46"/><rect class="cls-7" x="355.43" y="147.07" width="27.65" height="6.43"/><circle class="cls-3" cx="811.34" cy="26.86" r="4.45"/><path class="cls-8" d="M833.26,29.47s-9.81-13.8-21.91-13.8a11.19,11.19,0,1,0,11.19,11.19,11.19,11.19,0,0,0-11.19-11.19c-12.1,0-21.91,13.8-21.91,13.8"/><circle class="cls-3" cx="833.26" cy="29.45" r="2.42"/><path class="cls-8" d="M829.83,34.94C824.41,40.56,817.89,44,811.34,44s-13.06-3.45-18.49-9.07"/><circle class="cls-3" cx="789.43" cy="29.45" r="2.42"/><text class="cls-9" transform="translate(319.24 34.25)">Sea<tspan class="cls-10" x="25.19" y="0">r</tspan><tspan x="30.95" y="0">ch</tspan></text><text class="cls-9" transform="translate(355.84 183.44)"><tspan class="cls-11">A</tspan><tspan x="9.21" y="0">dd</tspan></text><line class="cls-12" x1="15.76" y1="132.78" x2="123.08" y2="132.78"/><line class="cls-12" x1="15.76" y1="112.64" x2="102.2" y2="112.64"/><line class="cls-12" x1="15.76" y1="212.35" x2="107.33" y2="212.28"/><line class="cls-12" x1="15.76" y1="233.37" x2="87.94" y2="233.3"/><line class="cls-12" x1="15.76" y1="253.97" x2="73.02" y2="253.91"/><line class="cls-12" x1="15.76" y1="274.37" x2="87.94" y2="274.31"/><text class="cls-9" transform="translate(15.74 97.06)">So<tspan class="cls-13" x="17.46" y="0">r</tspan><tspan x="23.1" y="0">t</tspan></text><text class="cls-9" transform="translate(15.74 197.11)">Fi<tspan class="cls-14" x="12.52" y="0">l</tspan><tspan x="16.73" y="0">te</tspan><tspan class="cls-11" x="30.88" y="0">r</tspan><tspan x="36.61" y="0">s</tspan></text><text class="cls-9" transform="translate(15.74 338.56)"><tspan class="cls-15">T</tspan><tspan class="cls-16" x="7.59" y="0">a</tspan><tspan x="15.67" y="0">gs</tspan></text><line class="cls-12" x1="15.76" y1="353.67" x2="127.56" y2="353.67"/><line class="cls-12" x1="15.76" y1="373.5" x2="108.16" y2="373.5"/><line class="cls-12" x1="15.76" y1="393.8" x2="138" y2="393.8"/><line class="cls-12" x1="15.76" y1="414.46" x2="78.33" y2="414.46"/><line class="cls-12" x1="15.91" y1="434.46" x2="91.91" y2="434.46"/><line class="cls-12" x1="15.91" y1="454.63" x2="106.83" y2="454.63"/><circle class="cls-3" cx="61.73" cy="17.61" r="2.69"/><path class="cls-3" d="M72.63,28.53A3.43,3.43,0,1,1,69.2,25.1h0A3.43,3.43,0,0,1,72.63,28.53ZM69.2,21a7.54,7.54,0,1,0,7.54,7.54A7.54,7.54,0,0,0,69.2,21Z"/><path class="cls-3" d="M55.56,22.55A2.54,2.54,0,1,1,53,20h0A2.54,2.54,0,0,1,55.56,22.55ZM53,16.37a6.18,6.18,0,1,0,6.18,6.18A6.18,6.18,0,0,0,53,16.37Z"/><path class="cls-3" d="M58.55,37.23A3.59,3.59,0,1,1,55,33.64a3.59,3.59,0,0,1,3.59,3.59ZM55,29.7a7.53,7.53,0,1,0,7.53,7.53h0A7.53,7.53,0,0,0,55,29.7Z"/><path class="cls-3" d="M42.47,28.53A3.43,3.43,0,1,1,39,25.1a3.43,3.43,0,0,1,3.43,3.43ZM39,21a7.54,7.54,0,1,0,7.54,7.54h0A7.54,7.54,0,0,0,39,21Z"/><path class="cls-3" d="M30.34,33.7a6.71,6.71,0,1,1,0-10.28,10.16,10.16,0,0,1,3-3.21,11.09,11.09,0,1,0,0,16.68A10.17,10.17,0,0,1,30.34,33.7Z"/></svg>