<?xml version="1.0" encoding="utf-8"?>
<!-- Generator: Adobe Illustrator 21.1.0, SVG Export Plug-In . SVG Version: 6.00 Build 0)  -->
<svg version="1.1" baseProfile="basic" id="Layer_1"
	 xmlns="http://www.w3.org/2000/svg" xmlns:xlink="http://www.w3.org/1999/xlink" x="0px" y="0px" viewBox="0 0 450 450"
	 xml:space="preserve">
<style type="text/css">
	.st0{fill:#D2D3D4;}
	.st1{fill:none;stroke:#FFFFFF;stroke-width:22;stroke-miterlimit:10;}
	.st2{fill:#FFFFFF;}
	.st3{fill:#FFFFFF;stroke:#F15E4F;stroke-width:22;stroke-miterlimit:10;}
	.st4{fill:#D2D3D4;stroke:#F15E4F;stroke-width:20.6065;stroke-miterlimit:10;}
	.st5{fill:#FFFFFF;stroke:#F15E4F;stroke-width:20.6065;stroke-miterlimit:10;}
	.st6{fill:none;}
	.st7{fill:none;stroke:#D2D3D4;stroke-width:17;stroke-miterlimit:10;}
	.st8{fill:#FFFFFF;stroke:#F15E4F;stroke-width:12.3068;stroke-miterlimit:10;}
	.st9{fill:#FFFFFF;stroke:#F15E4F;stroke-width:12.1831;stroke-miterlimit:10;}
	.st10{fill:none;stroke:#D2D3D4;stroke-width:10.0226;stroke-miterlimit:10;}
	.st11{fill:none;stroke:url(#SVGID_1_);stroke-width:23.0065;stroke-linejoin:round;stroke-miterlimit:10;}
	.st12{fill:none;stroke:#D2D3D4;stroke-width:20;stroke-miterlimit:10;}
	.st13{fill:none;stroke:url(#SVGID_2_);stroke-width:28.9158;stroke-miterlimit:10;}
	.st14{fill:#41BFB9;}
	.st15{fill:#FFFFFF;stroke:#F15E4F;stroke-width:1.4463;stroke-miterlimit:10;}
	.st16{fill:#7F5AA6;}
	.st17{fill:#FFFFFF;stroke:#F15E4F;stroke-width:0.9375;stroke-miterlimit:10;}
	.st18{fill:none;stroke:#3DB0A9;stroke-width:3;stroke-miterlimit:10;}
	.st19{fill:none;stroke:#493C96;stroke-width:3;stroke-miterlimit:10;}
	.st20{fill:none;stroke:#7F59A4;stroke-width:3;stroke-miterlimit:10;}
</style>
<g>
	<g>
	</g>
	<g>
	</g>
	<path class="st1" d="M150.3,154.6l0.2-103.9c0-11.7,9.5-21.2,21.2-21.2l146-0.1l96.2,87.4c0,0.6,0.4,257.3,0.4,257.3
		c0,11.7-9.5,21.2-21.2,21.2l-236.2-0.6l-19.7,19.8c-8.1,8.1-21.1,8.1-29.2,0C86.7,393.1,61.7,368,41.7,348c-8-8-8-21,0-29.1
		l101.6-102.2h92.4v115.4"/>
	<g>
		<line class="st7" x1="188.9" y1="77.8" x2="316.6" y2="77.8"/>
		<line class="st7" x1="188.9" y1="104.7" x2="350.2" y2="104.7"/>
		<line class="st7" x1="189" y1="131.6" x2="376.1" y2="131.6"/>
		<line class="st7" x1="189" y1="158.5" x2="376.1" y2="158.5"/>
		<line class="st7" x1="189" y1="185.5" x2="376.2" y2="185.5"/>
		<line class="st7" x1="273.8" y1="212.4" x2="376.2" y2="212.4"/>
		<line class="st7" x1="273.8" y1="239.3" x2="376.2" y2="239.3"/>
		<line class="st7" x1="273.9" y1="266.3" x2="376.2" y2="266.3"/>
		<line class="st7" x1="273.9" y1="294.2" x2="376.2" y2="294.2"/>
		<line class="st7" x1="273.9" y1="321.1" x2="376.2" y2="321.1"/>
		<line class="st7" x1="273.9" y1="348" x2="376.2" y2="348"/>
	</g>
	<circle class="st2" cx="150.7" cy="154.7" r="17.5"/>
	<circle class="st2" cx="235.8" cy="332.1" r="17.5"/>
	<ellipse class="st2" cx="190" cy="261.7" rx="15.9" ry="15.9"/>
</g>
</svg>
