<svg id="Layer_2" data-name="Layer 2" xmlns="http://www.w3.org/2000/svg" xmlns:xlink="http://www.w3.org/1999/xlink" viewBox="0 0 539 261"><defs><style>.cls-1{fill:none;}.cls-2{clip-path:url(#clip-path);}.cls-3{fill:url(#radial-gradient);}.cls-4{clip-path:url(#clip-path-2);}.cls-5{fill:url(#radial-gradient-2);}.cls-6{clip-path:url(#clip-path-3);}.cls-7{clip-path:url(#clip-path-4);}.cls-8{fill:url(#radial-gradient-4);}.cls-9{clip-path:url(#clip-path-5);}.cls-10{fill:url(#radial-gradient-5);}.cls-11{clip-path:url(#clip-path-6);}.cls-12{fill:url(#radial-gradient-6);}</style><clipPath id="clip-path"><circle class="cls-1" cx="407.62" cy="24.16" r="23.4"/></clipPath><radialGradient id="radial-gradient" cx="979.96" cy="24.16" r="264" gradientTransform="translate(-572.91 0)" gradientUnits="userSpaceOnUse"><stop offset="0" stop-color="#d32250"/><stop offset="0.25" stop-color="#754ca4"/><stop offset="0.53" stop-color="#493b96"/><stop offset="1" stop-color="#3eb0a9"/></radialGradient><clipPath id="clip-path-2"><path class="cls-1" d="M502.33,119a29.83,29.83,0,1,1-29.83-29.83A29.83,29.83,0,0,1,502.33,119ZM472.49,53.56A65.44,65.44,0,1,0,537.94,119,65.44,65.44,0,0,0,472.49,53.56Z"/></clipPath><radialGradient id="radial-gradient-2" cx="980.52" cy="24.16" r="264" gradientTransform="translate(-572.91 0)" gradientUnits="userSpaceOnUse"><stop offset="0.14" stop-color="#d42251"/><stop offset="0.4" stop-color="#7e5aa6"/><stop offset="0.66" stop-color="#5063ae"/><stop offset="1" stop-color="#47bbb8"/></radialGradient><clipPath id="clip-path-3"><path class="cls-1" d="M354.09,67A22.09,22.09,0,1,1,332,44.91,22.09,22.09,0,0,1,354.09,67ZM332,13.33A53.67,53.67,0,1,0,385.67,67,53.67,53.67,0,0,0,332,13.33Z"/></clipPath><clipPath id="clip-path-4"><path class="cls-1" d="M380,194.5a31.17,31.17,0,1,1-31.17-31.17A31.17,31.17,0,0,1,380,194.5Zm-31.17-65.39a65.39,65.39,0,1,0,65.39,65.39A65.39,65.39,0,0,0,348.83,129.11Z"/></clipPath><radialGradient id="radial-gradient-4" cx="934.2" cy="22.3" r="251.68" gradientTransform="translate(-572.91 0)" gradientUnits="userSpaceOnUse"><stop offset="0.14" stop-color="#d42251"/><stop offset="0.4" stop-color="#7e5aa6"/><stop offset="0.64" stop-color="#5063ae"/><stop offset="0.94" stop-color="#47bbb8"/></radialGradient><clipPath id="clip-path-5"><path class="cls-1" d="M240.33,119A29.83,29.83,0,1,1,210.5,89.17,29.83,29.83,0,0,1,240.33,119ZM210.5,53.56A65.44,65.44,0,1,0,275.94,119,65.44,65.44,0,0,0,210.5,53.56Z"/></clipPath><radialGradient id="radial-gradient-5" cx="980.33" cy="24.35" r="285.02" gradientTransform="translate(-572.91 0)" gradientUnits="userSpaceOnUse"><stop offset="0.14" stop-color="#d42251"/><stop offset="0.4" stop-color="#7e5aa6"/><stop offset="0.6" stop-color="#5063ae"/><stop offset="1" stop-color="#47bbb8"/></radialGradient><clipPath id="clip-path-6"><path class="cls-1" d="M135,163.84a58.28,58.28,0,1,1-.24-89.27,88.27,88.27,0,0,1,25.89-27.86A96.28,96.28,0,1,0,161,191.56,88.28,88.28,0,0,1,135,163.84Z"/></clipPath><radialGradient id="radial-gradient-6" cx="694.58" cy="105.16" r="264" gradientTransform="translate(-572.91 0)" gradientUnits="userSpaceOnUse"><stop offset="0.28" stop-color="#47bbb8"/><stop offset="0.64" stop-color="#5063ae"/></radialGradient></defs><title>cogo_logo2</title><g class="cls-2"><circle class="cls-3" cx="407.05" cy="24.16" r="264"/></g><g class="cls-4"><circle class="cls-5" cx="407.62" cy="24.16" r="264"/></g><g class="cls-6"><circle class="cls-5" cx="407.62" cy="24.16" r="264"/></g><g class="cls-7"><circle class="cls-8" cx="361.29" cy="22.3" r="251.68"/></g><g class="cls-9"><circle class="cls-10" cx="407.43" cy="24.35" r="285.02"/></g><g class="cls-11"><circle class="cls-12" cx="121.67" cy="105.16" r="264"/></g></svg>