<?xml version="1.0" encoding="utf-8"?>
<!-- Generator: Adobe Illustrator 21.1.0, SVG Export Plug-In . SVG Version: 6.00 Build 0)  -->
<svg version="1.1" id="Layer_1" xmlns="http://www.w3.org/2000/svg" xmlns:xlink="http://www.w3.org/1999/xlink" x="0px" y="0px"
	 viewBox="0 0 465.5 224.5" style="enable-background:new 0 0 465.5 224.5;" xml:space="preserve">
<style type="text/css">
	.st0{fill:#FFFFFF;}
</style>
<g>
	<g>
		<g>
			<g>
				<path class="st0" d="M116,141c-10.3,8.7-23.3,12.9-36.7,11.8c-0.2,0-0.5,0-0.7-0.1c-13.3-1.3-25.3-7.6-33.9-17.9
					c-8.6-10.3-12.7-23.2-11.6-36.6c1.1-13.4,7.4-25.6,17.7-34.3C61.2,55.2,74.2,51,87.6,52.1c0.2,0,0.5,0,0.7,0.1
					c10.2,1,19.6,4.9,27.4,11.5c5.6-9.5,13.3-17.9,22.4-24.2C125.1,28,108.9,21,91.5,19.4c-0.4,0-0.8-0.1-1.2-0.1
					c-2.3-0.2-4.7-0.3-7-0.3C40.5,19,3.9,52,0.3,95.5c-1.8,22,5,43.5,19.1,60.4c14.1,16.9,34,27.4,56,29.6c0.4,0,0.8,0.1,1.2,0.1
					c22.9,1.9,44.8-5.4,62-20.5C129.4,158.8,121.7,150.5,116,141z"/>
				<path class="st0" d="M303.7,110.9c-15.1-0.6-29.6,4.8-40.8,15.1c-11.1,10.3-17.6,24.4-18.2,39.5c-1.2,31.3,23.3,57.8,54.6,59
					c15.1,0.6,29.6-4.8,40.8-15.1c11.2-10.3,17.6-24.4,18.2-39.5C359.5,138.5,335,112.1,303.7,110.9z M328.6,168.7
					c-0.3,7.2-3.4,13.9-8.7,18.8c-5.1,4.7-11.6,7.2-18.4,7.2c-0.4,0-0.7,0-1.1,0c-14.9-0.6-26.6-13.2-26-28.1
					c0.6-14.9,13.2-26.6,28.1-26c7.2,0.3,13.9,3.4,18.8,8.7C326.3,154.6,328.9,161.5,328.6,168.7z"/>
				<path class="st0" d="M240.6,55.3c-1,25.7,19.1,47.3,44.8,48.3c12.4,0.5,24.3-3.9,33.4-12.4c9.1-8.5,14.4-20,14.9-32.4
					c0.5-12.4-3.9-24.3-12.4-33.4c-8.5-9.1-20-14.4-32.4-14.9C263.2,9.5,241.5,29.6,240.6,55.3z M266.7,56.3
					c0.2-5.4,2.5-10.5,6.5-14.2c4-3.7,9.2-5.6,14.7-5.4c11.3,0.4,20.1,9.9,19.6,21.2c-0.2,5.4-2.5,10.5-6.5,14.2
					c-3.8,3.5-8.7,5.5-13.9,5.5c-0.3,0-0.5,0-0.8,0c-5.4-0.2-10.5-2.5-14.2-6.5C268.4,66.9,266.5,61.7,266.7,56.3z"/>
				<path class="st0" d="M410.9,45.7c-15.1-0.6-29.5,4.8-40.7,15.1C359.2,71,352.7,85,352.1,100.1c-0.6,15.1,4.8,29.5,15.1,40.7
					c10.3,11.1,24.3,17.6,39.4,18.1c31.2,1.2,57.6-23.2,58.8-54.5C466.6,73.2,442.2,46.9,410.9,45.7z M434.7,103.3
					c-0.5,13.9-12.1,24.9-25.9,24.9c-0.3,0-0.7,0-1,0c-14.3-0.5-25.5-12.6-24.9-26.9c0.5-14.3,12.6-25.5,26.9-24.9
					c6.9,0.3,13.3,3.2,18,8.3C432.5,89.8,434.9,96.4,434.7,103.3z"/>
				<path class="st0" d="M238.2,105.7c0.9-15.1-4.1-29.7-14.1-41c-10-11.4-23.9-18.1-38.9-19.1c-1.2-0.1-2.4-0.1-3.6-0.1
					c-13.8,0-27,5-37.4,14.2c-11.4,10-18.1,23.9-19.1,38.9c-1.9,31.2,21.8,58.2,53,60.1c15.1,0.9,29.7-4.1,41-14.1
					C230.5,134.6,237.3,120.7,238.2,105.7z M207.6,103.7c-0.9,13.7-12.3,24.3-25.9,24.3c-0.5,0-1.1,0-1.6-0.1
					c-14.3-0.9-25.1-13.2-24.3-27.5c0.9-14.3,13.2-25.1,27.5-24.3C197.6,77.1,208.4,89.5,207.6,103.7z"/>
			</g>
		</g>
		<path class="st0" d="M372.4,20.7c0.4-11-8.2-20.2-19.1-20.6c-0.3,0-0.5,0-0.8,0c-5,0-9.8,1.9-13.5,5.3c-3.9,3.6-6.2,8.5-6.4,13.8
			c-0.2,5.3,1.7,10.4,5.3,14.3c3.6,3.9,8.5,6.2,13.8,6.4v0C362.7,40.2,372,31.6,372.4,20.7z"/>
	</g>
</g>
</svg>
