<?xml version="1.0" encoding="utf-8"?>
<!-- Generator: Adobe Illustrator 21.1.0, SVG Export Plug-In . SVG Version: 6.00 Build 0)  -->
<svg version="1.1" id="Layer_1" xmlns="http://www.w3.org/2000/svg" xmlns:xlink="http://www.w3.org/1999/xlink" x="0px" y="0px"
	 viewBox="0 0 1140 570" style="enable-background:new 0 0 1140 570;" xml:space="preserve">
<style type="text/css">
	.st0{fill:none;stroke:#CCCCCC;stroke-width:6.1619;stroke-miterlimit:10;}
	.st1{fill:none;stroke:#CBCBCA;stroke-width:4.4366;stroke-miterlimit:10;}
	.st2{fill:#CCCCCC;}
	.st3{fill:#CCCCCB;}
	.st4{fill:#FFFFFF;}
	.st5{fill:#CBCBCA;}
</style>
<g>
	<path class="st0" d="M642.3,445l-27.4-27.7c-2.1-2.1-5.5-2.2-7.6-0.1c0,0,0,0,0,0l0,0l-45.8,43.6c-2.1,2-2.2,5.4-0.1,7.5
		c0,0,0,0,0,0l0,0l27.4,27.7c2.1,2.1,5.5,2.2,7.6,0.1c0,0,0,0,0,0l0,0l22.9-21.8l31.7-1.1c1.1,0,2-1,2-2.1c0-0.5-0.2-1-0.6-1.3
		l-13.7-13.8l3.5-3.4C644.3,450.4,644.3,447.1,642.3,445z"/>
	<line class="st1" x1="587.1" y1="481.7" x2="607.4" y2="462.3"/>
	<line class="st1" x1="579.9" y1="474.4" x2="620.5" y2="435.6"/>
	<line class="st1" x1="572.6" y1="467.1" x2="613.3" y2="428.3"/>
</g>
<g>
	<path class="st0" d="M37.6,262.6l-6.3-38.1c-0.5-2.9-3.2-4.9-6.2-4.4l0,0l-63,9.9c-2.9,0.5-5,3.2-4.5,6.1l0,0l6.2,38.1
		c0.5,2.9,3.2,4.9,6.2,4.4l0,0l31.5-5l26.7,16.9c1,0.6,2.3,0.3,2.9-0.6c0.3-0.4,0.4-0.9,0.3-1.4l-3.1-19l4.8-0.8
		C36.1,268.1,38.1,265.4,37.6,262.6z"/>
	<line class="st1" x1="-30.7" y1="251.5" x2="25.3" y2="242.7"/>
	<line class="st1" x1="-32.3" y1="241.5" x2="23.7" y2="232.6"/>
</g>
<g>
	<path class="st0" d="M1146,322.5l9.2-37.5c0.7-2.8-1.1-5.7-4-6.4l-62.1-14.7c-2.9-0.7-5.8,1.1-6.5,3.9l-9.2,37.5
		c-0.7,2.8,1.1,5.7,4,6.4l31,7.3l17.9,25.7c0.6,0.9,1.9,1.2,2.9,0.5c0.4-0.3,0.7-0.7,0.8-1.2l4.6-18.7l4.8,1.1
		C1142.4,327.1,1145.3,325.4,1146,322.5L1146,322.5z"/>
	<line class="st1" x1="1084.9" y1="296.4" x2="1112.4" y2="302.9"/>
	<line class="st1" x1="1087.3" y1="286.5" x2="1142.4" y2="299.5"/>
	<line class="st1" x1="1089.7" y1="276.6" x2="1144.9" y2="289.6"/>
</g>
<g>
	<path class="st0" d="M986.5,394.2l-39.3,2.8c-3,0.2-5.2,2.8-5,5.7l0,0l4.7,62.4c0.2,2.9,2.8,5.1,5.8,4.9l0,0l39.2-2.8
		c3-0.2,5.2-2.8,5-5.7l0,0l-2.3-31.2l19.5-24.6c0.7-0.9,0.5-2.2-0.4-2.9c-0.4-0.3-0.9-0.5-1.4-0.4l-19.6,1.4l-0.4-4.8
		C992,396.1,989.5,394,986.5,394.2z"/>
	<line class="st1" x1="979.8" y1="459.2" x2="977.7" y2="431.5"/>
	<line class="st1" x1="969.5" y1="460" x2="965.3" y2="404.5"/>
	<line class="st1" x1="959.1" y1="460.7" x2="954.9" y2="405.3"/>
</g>
<g>
	<path class="st0" d="M259.4,481.1l-8.3,37.7c-0.7,2.9,1.2,5.7,4.1,6.3c0,0,0,0,0,0h0.1l62.4,13.2c2.9,0.6,5.8-1.2,6.4-4.1
		c0,0,0,0,0,0l0,0l8.3-37.7c0.6-2.9-1.2-5.7-4.1-6.3c0,0,0,0,0,0l0,0l-31.2-6.6l-18.6-25.2c-0.7-0.9-2-1.1-2.9-0.5
		c-0.4,0.3-0.7,0.7-0.8,1.2l-4.1,18.8l-4.8-1C262.9,476.4,260,478.2,259.4,481.1z"/>
	<line class="st1" x1="321.1" y1="505.8" x2="293.4" y2="499.9"/>
	<line class="st1" x1="318.9" y1="515.7" x2="263.5" y2="504"/>
	<line class="st1" x1="316.8" y1="525.7" x2="261.3" y2="514"/>
</g>
<g>
	<path class="st0" d="M609.1,36.1l20.1,33.2c1.5,2.5,0.7,5.8-1.9,7.3l0,0l-54.9,32c-2.6,1.5-5.9,0.7-7.4-1.9L545,73.5
		c-1.5-2.5-0.7-5.8,1.9-7.3l0,0l27.5-16l9.5-29.7c0.3-1.1,1.5-1.7,2.6-1.3c0.5,0.2,0.9,0.5,1.2,0.9l10,16.5l4.3-2.4
		C604.4,32.7,607.6,33.6,609.1,36.1z"/>
	<line class="st1" x1="558.6" y1="78.7" x2="583" y2="64.5"/>
	<line class="st1" x1="563.9" y1="87.5" x2="612.6" y2="59.1"/>
	<line class="st1" x1="569.2" y1="96.2" x2="618" y2="67.9"/>
</g>
<g>
	<path class="st0" d="M-15.2,361.9l19.8-33.4c1.5-2.5,4.8-3.4,7.4-1.9l0,0L67.1,358c2.6,1.5,3.5,4.7,2,7.2l0,0l-19.7,33.4
		c-1.5,2.5-4.8,3.4-7.4,1.9l0,0l-27.6-15.7l-31.1,6.4c-1.1,0.2-2.2-0.5-2.5-1.6c-0.1-0.5,0-1,0.2-1.4l9.8-16.6l-4.2-2.4
		C-15.9,367.7-16.7,364.4-15.2,361.9z"/>
	<line class="st1" x1="47.3" y1="384.4" x2="22.8" y2="370.5"/>
	<line class="st1" x1="52.6" y1="375.6" x2="3.5" y2="347.7"/>
	<line class="st1" x1="57.8" y1="366.8" x2="8.8" y2="338.9"/>
</g>
<g>
	<path class="st0" d="M270,5.4l-18.3-34.2c-1.4-2.6-4.7-3.6-7.3-2.2l0,0L187.9-1.9c-2.6,1.4-3.6,4.6-2.3,7.2l0,0l18.3,34.2
		c1.4,2.6,4.7,3.6,7.3,2.2l0,0l28.3-14.5l30.8,7.7c1.1,0.3,2.2-0.4,2.5-1.5c0.1-0.5,0.1-1-0.2-1.5l-9.1-17l4.3-2.3
		C270.4,11.2,271.4,8,270,5.4z"/>
	<line class="st1" x1="206.5" y1="25.3" x2="231.6" y2="12.4"/>
	<line class="st1" x1="201.7" y1="16.3" x2="251.9" y2="-9.6"/>
	<line class="st1" x1="196.8" y1="7.3" x2="247" y2="-18.6"/>
</g>
<g>
	<path class="st0" d="M926.3,126.1l-15.6-35.5c-1.2-2.7-4.4-3.9-7.1-2.8l0,0L845,112.6c-2.7,1.2-4,4.3-2.8,7l0,0l15.5,35.4
		c1.2,2.7,4.4,3.9,7.1,2.8l0,0l29.3-12.4l30.1,10c1.1,0.4,2.3-0.2,2.6-1.3c0.2-0.5,0.1-1-0.1-1.5L919,135l4.5-2
		C926.2,131.9,927.5,128.8,926.3,126.1z"/>
	<line class="st1" x1="861.5" y1="141.2" x2="887.5" y2="130.2"/>
	<line class="st1" x1="857.4" y1="131.8" x2="909.4" y2="109.8"/>
	<line class="st1" x1="853.2" y1="122.4" x2="905.3" y2="100.5"/>
</g>
<g>
	<polygon class="st2" points="397.7,457.7 429,473.2 454,449 	"/>
	<path class="st0" d="M397.6,456.9l5.5,34.5c0.5,2.9,3.2,4.9,6.2,4.4l45.6-7c2.9-0.5,4.9-3.2,4.5-6.1l-5.5-34.5L397.6,456.9z"/>
</g>
<g>
	<polygon class="st2" points="166.5,337.4 187.5,365.1 220.9,354.4 	"/>
	<path class="st0" d="M166.8,336.6L156,369.9c-0.9,2.8,0.6,5.8,3.5,6.7l0,0l44,13.7c2.8,0.9,5.9-0.6,6.8-3.4l0,0l10.9-33.3
		L166.8,336.6z"/>
</g>
<g>
	<polygon class="st2" points="992.5,269 1014.2,296.1 1047.3,284.5 	"/>
	<path class="st0" d="M992.7,268.2l-9.9,33.6c-0.8,2.8,0.8,5.8,3.7,6.6l0,0l44.3,12.6c2.9,0.8,5.9-0.8,6.7-3.6l0,0l9.9-33.5
		L992.7,268.2z"/>
</g>
<g>
	<polygon class="st2" points="96,83.5 90,117.5 120.9,133.8 	"/>
	<path class="st0" d="M96.8,83.2l-32,15.2c-2.7,1.3-3.8,4.5-2.5,7.1l20.1,40.8c1.3,2.6,4.5,3.7,7.2,2.4l32-15.2L96.8,83.2z"/>
</g>
<g>
	<polygon class="st3" points="1142.2,424.7 1128.9,412.3 1140.3,400.5 	"/>
	<path class="st0" d="M1119.1,379.2l-42,43.5c-2.1,2.1-2,5.5,0.2,7.5l0,0l27.6,25.8c2.2,2,5.6,1.9,7.6-0.2l0,0l30.9-31.8l-1.8-23.6
		L1119.1,379.2z"/>
	<polygon class="st3" points="1108,433.8 1125.2,416.1 1149.3,438.6 1132,456.3 	"/>
	<g>
		<g>
			<path class="st4" d="M1126.6,432.9c-1,1-2.2,0.9-3.4-0.2l-1-0.9l-1.6,1.7l-1.3-1.2l4.7-4.8l2.3,2.1
				C1127.5,430.7,1127.6,431.9,1126.6,432.9z M1125.3,431.7c0.4-0.4,0.4-0.9-0.2-1.4l-0.8-0.7l-1.2,1.3l0.8,0.7
				C1124.5,432.1,1124.9,432.2,1125.3,431.7L1125.3,431.7z"/>
			<path class="st4" d="M1131.1,438.7c-1.5,1.5-3.2,1.6-4.7,0.2l-2.1-2l4.7-4.8l2.1,2C1132.6,435.5,1132.6,437.2,1131.1,438.7z
				 M1129.8,437.5c0.9-1,1.1-1.8,0.2-2.6l-0.7-0.6l-2.8,2.9l0.7,0.6C1128,438.6,1128.9,438.4,1129.8,437.5L1129.8,437.5z"/>
		</g>
		<g>
			<path class="st4" d="M1134.6,439.3l-1,1l2,1.9l-0.9,1l-2-1.9l-1.8,1.9l-1.3-1.2l4.7-4.8l3.8,3.6l-0.9,1L1134.6,439.3z"/>
		</g>
	</g>
</g>
<g>
	<polygon class="st3" points="749.8,490.6 734.2,500.2 725.4,486.5 	"/>
	<path class="st0" d="M699.1,501.5l32.8,50.5c1.6,2.5,4.9,3.2,7.5,1.7c0,0,0,0,0,0l0,0l32.2-20c2.5-1.6,3.3-4.8,1.7-7.3l0,0
		l-24-37.1l-23.8-4L699.1,501.5z"/>
	<polygon class="st3" points="737.1,504.8 765.2,487.3 778.6,508 750.4,525.4 	"/>
	<g>
		<g>
			<path class="st4" d="M754.1,507.4c0.7,1.2,0.4,2.3-1.1,3.2l-1.1,0.7l1.3,2l-1.5,0.9l-3.6-5.6l2.6-1.6
				C752.1,506,753.3,506.2,754.1,507.4z M752.6,508.3c-0.3-0.5-0.8-0.6-1.4-0.2l-0.9,0.6l1,1.5l0.9-0.6
				C752.8,509.2,752.9,508.8,752.6,508.3z"/>
			<path class="st4" d="M760.9,504.5c1.2,1.8,0.8,3.4-1,4.5l-2.4,1.5l-3.6-5.6l2.4-1.5C758.1,502.3,759.7,502.7,760.9,504.5z
				 M759.4,505.5c-0.7-1.1-1.5-1.5-2.5-0.8l-0.8,0.5l2.2,3.4l0.8-0.5C760,507.4,760.1,506.6,759.4,505.5z"/>
		</g>
		<g>
			<path class="st4" d="M762.3,501.3l0.8,1.2l2.4-1.5l0.7,1.1l-2.4,1.5l1.4,2.2l-1.5,0.9l-3.6-5.6l4.5-2.8l0.7,1.1L762.3,501.3z"/>
		</g>
	</g>
</g>
<g>
	<polygon class="st5" points="129.1,429.9 105.5,439.9 106.1,432 124.5,424.2 	"/>
	<path class="st0" d="M157.4,414.8l-28.9,12.1l-5.2-4.3l-16.8,7.1l-0.6,9l13.2,30.2c1.2,2.7,4.3,3.9,7.1,2.8l0,0l42.5-17.8
		c2.7-1.2,4-4.3,2.8-7c0,0,0,0,0,0l0,0L157.4,414.8z"/>
</g>
<g>
	<polygon class="st3" points="417.7,544.6 404.4,557 392.9,545.2 	"/>
	<path class="st0" d="M370.1,564.9l42,43.4c2.1,2.1,5.5,2.2,7.6,0.2l0,0l27.7-25.7c2.2-2,2.3-5.4,0.2-7.5c0,0,0,0,0,0l0,0
		l-30.8-31.9l-24.2,0.5L370.1,564.9z"/>
	<polygon class="st3" points="408,560.9 432.2,538.5 449.4,556.3 425.2,578.7 	"/>
	<g>
		<g>
			<path class="st4" d="M425.3,560.3c1,1,0.8,2.2-0.4,3.3l-1,0.9l1.6,1.7l-1.3,1.2l-4.7-4.9l2.3-2.1
				C423,559.3,424.3,559.2,425.3,560.3z M423.9,561.4c-0.4-0.4-0.9-0.4-1.4,0.1l-0.8,0.7l1.2,1.3l0.8-0.7
				C424.3,562.3,424.4,561.9,423.9,561.4L423.9,561.4z"/>
			<path class="st4" d="M431.4,556.2c1.5,1.6,1.5,3.2-0.1,4.7l-2.1,2l-4.7-4.9l2.1-2C428.2,554.5,429.9,554.6,431.4,556.2z
				 M430.1,557.4c-0.9-1-1.8-1.1-2.6-0.4l-0.7,0.6l2.8,2.9l0.7-0.6C431.1,559.2,431,558.4,430.1,557.4L430.1,557.4z"/>
		</g>
		<g>
			<path class="st4" d="M432.1,552.7l1,1l2-1.9l0.9,1l-2,1.9l1.8,1.9l-1.3,1.2l-4.7-4.9l3.8-3.6l0.9,1L432.1,552.7z"/>
		</g>
	</g>
</g>
<g>
	<polygon class="st3" points="461.2,29.4 445,37.9 437.2,23.6 	"/>
	<path class="st0" d="M409.9,36.7l29,52.7c1.4,2.6,4.7,3.5,7.3,2.2l0,0l33.6-17.7c2.6-1.4,3.6-4.6,2.2-7.2c0,0,0,0,0,0l0,0L460.8,28
		l-23.4-5.7L409.9,36.7z"/>
	<polygon class="st3" points="447.6,42.6 476.9,27.2 488.7,48.8 459.3,64.2 	"/>
	<g>
		<g>
			<path class="st4" d="M464.3,46.5c0.7,1.2,0.2,2.3-1.3,3.1l-1.2,0.6l1.1,2l-1.6,0.8l-3.2-5.9l2.7-1.4
				C462.4,45,463.6,45.3,464.3,46.5z M462.8,47.3c-0.3-0.5-0.7-0.6-1.4-0.3l-0.9,0.5l0.8,1.6l0.9-0.5
				C462.9,48.3,463,47.8,462.8,47.3L462.8,47.3z"/>
			<path class="st4" d="M471.3,44.1c1,1.9,0.6,3.5-1.3,4.4l-2.5,1.3l-3.2-5.9l2.5-1.3C468.7,41.8,470.3,42.3,471.3,44.1z M469.7,45
				c-0.6-1.2-1.4-1.5-2.4-1l-0.8,0.4l1.9,3.5l0.8-0.4C470.2,47,470.3,46.1,469.7,45z"/>
		</g>
		<g>
			<path class="st4" d="M473,41l0.7,1.3l2.5-1.3l0.6,1.2l-2.5,1.3l1.2,2.2l-1.6,0.8l-3.2-5.9l4.6-2.4l0.6,1.2L473,41z"/>
		</g>
	</g>
</g>
<g>
	<path class="st0" d="M964.3,181.3l51.4,32.3c2.5,1.6,5.9,0.9,7.5-1.6l20.6-31.4c1.6-2.4,0.9-5.7-1.6-7.3c0,0,0,0,0,0l0,0
		l-37.7-23.8l-23.3,6.2L964.3,181.3z"/>
	<polygon class="st3" points="999.3,168.6 1017.3,141.2 1038.2,154.4 1020.3,181.8 	"/>
	<g>
		<g>
			<path class="st4" d="M1016.7,163.9c1.2,0.7,1.3,1.9,0.4,3.3l-0.7,1.1l2,1.2l-1,1.5l-5.7-3.6l1.7-2.6
				C1014.3,163.5,1015.5,163.2,1016.7,163.9z M1015.7,165.4c-0.5-0.3-0.9-0.2-1.4,0.4l-0.6,0.9l1.5,1l0.6-0.9
				C1016.3,166.1,1016.3,165.7,1015.7,165.4L1015.7,165.4z"/>
			<path class="st4" d="M1021.6,158.5c1.8,1.1,2.2,2.8,1.1,4.5l-1.6,2.4l-5.7-3.6l1.6-2.4C1018.2,157.7,1019.8,157.4,1021.6,158.5z
				 M1020.6,160c-1.1-0.7-2-0.7-2.6,0.3l-0.5,0.8l3.5,2.2l0.5-0.8C1022.1,161.5,1021.8,160.7,1020.6,160L1020.6,160z"/>
		</g>
		<g>
			<path class="st4" d="M1021.5,155l1.2,0.8l1.5-2.3l1.1,0.7l-1.5,2.3l2.2,1.4l-1,1.5l-5.7-3.6l2.8-4.3l1.1,0.7L1021.5,155z"/>
		</g>
	</g>
</g>
<g>
	<path class="st0" d="M246.1,350.1l32-50.9c1.6-2.5,0.8-5.8-1.7-7.3c0,0,0,0,0,0h0l-32.4-19.7c-2.5-1.5-5.8-0.8-7.4,1.7l0,0
		L213,311.3l6.7,22.8L246.1,350.1z"/>
	<polygon class="st3" points="204.1,298 217.3,277.2 245.5,294.4 232.4,315.2 	"/>
	<g>
		<g>
			<path class="st4" d="M227.4,299c0.7-1.2,1.9-1.3,3.4-0.5l1.1,0.7l1.2-2l1.5,0.9l-3.6,5.7l-2.6-1.6
				C227,301.3,226.7,300.2,227.4,299z M228.9,299.9c-0.3,0.5-0.2,0.9,0.5,1.3l0.9,0.6l1-1.5l-0.9-0.6
				C229.7,299.3,229.3,299.4,228.9,299.9L228.9,299.9z"/>
			<path class="st4" d="M221.9,294.2c1.1-1.8,2.8-2.2,4.6-1.1l2.4,1.5l-3.6,5.7l-2.4-1.5C221,297.7,220.7,296,221.9,294.2z
				 M223.4,295.2c-0.7,1.1-0.7,2,0.3,2.6l0.8,0.5l2.2-3.4l-0.8-0.5C224.9,293.7,224.1,294,223.4,295.2L223.4,295.2z"/>
		</g>
		<g>
			<path class="st4" d="M218.2,294.4l0.8-1.2l-2.4-1.5l0.7-1.1l2.4,1.5l1.4-2.2l1.5,0.9l-3.6,5.7l-4.5-2.7l0.7-1.1L218.2,294.4z"/>
		</g>
	</g>
</g>
<g>
	<polygon class="st5" points="901.8,510.9 877.1,517.9 878.7,510.1 897.9,504.7 	"/>
	<path class="st0" d="M931.7,499.2l-30.2,8.5l-4.6-4.8l-17.5,5l-1.8,8.9l9.3,31.5c0.8,2.8,3.8,4.4,6.7,3.6c0,0,0,0,0,0l0,0
		l44.4-12.6c2.9-0.8,4.5-3.8,3.7-6.6c0,0,0,0,0,0l0,0L931.7,499.2z"/>
</g>
<g>
	<polygon class="st5" points="972.5,90.8 988.6,110.4 980.7,112 968.1,96.7 	"/>
	<path class="st0" d="M949.9,68.2l19.7,24l-2.7,6.1l11.4,13.9l9-1.8l26.1-20.6c2.3-1.8,2.7-5.2,0.8-7.5l-29-35.3
		c-1.9-2.3-5.3-2.6-7.6-0.8L949.9,68.2z"/>
</g>
<g>
	<path class="st0" d="M703.8,4.8l51.4,32.3c2.5,1.6,5.9,0.9,7.5-1.6l20.6-31.4c1.6-2.4,0.9-5.7-1.6-7.3c0,0,0,0,0,0l0,0L744-27.1
		l-23.3,6.2L703.8,4.8z"/>
	<polygon class="st3" points="738.8,-7.9 756.8,-35.3 777.8,-22.1 759.8,5.3 	"/>
</g>
</svg>
