<?xml version="1.0" encoding="UTF-8" standalone="no"?>
<svg width="284px" height="53px" viewBox="0 0 284 53" version="1.1" xmlns="http://www.w3.org/2000/svg" xmlns:xlink="http://www.w3.org/1999/xlink">
    <!-- Generator: Sketch 46.2 (44496) - http://www.bohemiancoding.com/sketch -->
    <title>Deloitte-logo-black</title>
    <desc>Created with Sketch.</desc>
    <defs></defs>
    <g id="Symbols" stroke="none" stroke-width="1" fill="none" fill-rule="evenodd">
        <g id="Deloitte-logo-black" fill-rule="nonzero">
            <path d="M268.4,45.5 C268.4,41.4 271.8,38 275.9,38 C280,38 283.4,41.4 283.4,45.5 C283.4,49.6 280,53 275.9,53 C271.8,53 268.4,49.6 268.4,45.5" id="Shape" fill="#80C342"></path>
            <path d="M43.1,25.1 C43.1,33.8 40.8,40.4 36.1,45.1 C31.4,49.8 24.9,52.1 16.4,52.1 L0,52.1 L0,0.1 L17.6,0.1 C25.7,0.1 32,2.2 36.5,6.5 C40.8,10.9 43.1,17 43.1,25.1 M28.8,25.6 C28.8,20.8 27.9,17.3 26,15 C24.2,12.7 21.4,11.6 17.6,11.6 L13.6,11.6 L13.6,40.7 L16.7,40.7 C20.9,40.7 23.9,39.5 25.9,37 C27.9,34.5 28.8,30.7 28.8,25.6" id="Shape" fill="#231F20"></path>
            <rect id="Rectangle-path" fill="#231F20" x="88.5" y="0" width="13.1" height="52.2"></rect>
            <path d="M144.4,32.7 C144.4,39 142.7,44 139.4,47.5 C136.1,51 131.4,52.8 125.4,52.8 C119.7,52.8 115.1,51 111.7,47.4 C108.3,43.8 106.6,38.9 106.6,32.7 C106.6,26.4 108.3,21.5 111.6,18 C114.9,14.5 119.6,12.8 125.6,12.8 C129.3,12.8 132.6,13.6 135.5,15.2 C138.4,16.8 140.5,19.1 142.1,22.2 C143.7,25.1 144.4,28.7 144.4,32.7 M119.9,32.7 C119.9,36 120.3,38.6 121.2,40.3 C122.1,42 123.5,42.9 125.6,42.9 C127.6,42.9 129.1,42 129.9,40.3 C130.7,38.6 131.2,36 131.2,32.7 C131.2,29.4 130.8,26.9 129.9,25.2 C129.1,23.5 127.6,22.7 125.6,22.7 C123.6,22.7 122.2,23.5 121.3,25.2 C120.4,26.9 119.9,29.4 119.9,32.7" id="Shape" fill="#231F20"></path>
            <rect id="Rectangle-path" fill="#231F20" x="149.6" y="13.4" width="13.1" height="38.8"></rect>
            <rect id="Rectangle-path" fill="#231F20" x="149.6" y="0" width="13.1" height="8.7"></rect>
            <path d="M189.1,42.3 C190.9,42.3 193,41.9 195.4,41 L195.4,50.8 C193.6,51.6 192,52.1 190.4,52.5 C188.8,52.8 186.9,53 184.8,53 C180.4,53 177.3,51.9 175.3,49.7 C173.4,47.5 172.4,44.1 172.4,39.6 L172.4,23.6 L167.8,23.6 L167.8,13.6 L172.4,13.6 L172.4,3.5 L185.6,1.2 L185.6,13.4 L193.9,13.4 L193.9,23.4 L185.6,23.4 L185.6,38.5 C185.6,41 186.8,42.3 189.1,42.3" id="Shape" fill="#231F20"></path>
            <path d="M219.4,42.3 C221.2,42.3 223.3,41.9 225.7,41 L225.7,50.8 C223.9,51.6 222.3,52.1 220.7,52.5 C219.1,52.8 217.2,53 215.1,53 C210.7,53 207.6,51.9 205.6,49.7 C203.7,47.5 202.7,44.1 202.7,39.6 L202.7,23.6 L198.1,23.6 L198.1,13.6 L202.7,13.6 L202.7,3.6 L215.9,1.5 L215.9,13.7 L224.2,13.7 L224.2,23.7 L215.9,23.7 L215.9,38.8 C215.8,41 217,42.3 219.4,42.3" id="Shape" fill="#231F20"></path>
            <path d="M260.6,17.3 C257.5,14.3 253.1,12.7 247.4,12.7 C241.4,12.7 236.8,14.4 233.6,18 C230.4,21.5 228.8,26.5 228.8,33.1 C228.8,39.4 230.5,44.3 234,47.8 C237.5,51.2 242.4,52.9 248.7,52.9 C251.7,52.9 254.3,52.7 256.5,52.3 C258.7,51.9 260.8,51.2 262.8,50.1 L260.8,41.4 C259.3,42 257.9,42.5 256.6,42.8 C254.7,43.2 252.6,43.5 250.3,43.5 C247.8,43.5 245.8,42.9 244.3,41.7 C242.8,40.5 242.1,38.8 242,36.6 L265.3,36.6 L265.3,30.7 C265.2,24.7 263.7,20.3 260.6,17.3 L260.6,17.3 Z M242.2,28 C242.4,25.9 243,24.3 244,23.3 C245,22.3 246.3,21.8 247.9,21.8 C249.6,21.8 250.9,22.4 251.9,23.5 C252.9,24.6 253.4,26.1 253.5,28 L242.2,28 Z" id="Shape" fill="#231F20"></path>
            <path d="M78.8,17.3 C75.7,14.3 71.3,12.7 65.6,12.7 C59.6,12.7 55,14.4 51.8,18 C48.6,21.5 47,26.5 47,33.1 C47,39.4 48.7,44.3 52.2,47.8 C55.7,51.2 60.6,52.9 66.9,52.9 C69.9,52.9 72.5,52.7 74.7,52.3 C76.9,51.9 79,51.2 81,50.1 L79,41.4 C77.5,42 76.1,42.5 74.8,42.8 C72.9,43.2 70.8,43.5 68.5,43.5 C66,43.5 64,42.9 62.5,41.7 C61,40.5 60.3,38.8 60.2,36.6 L83.5,36.6 L83.5,30.7 C83.5,24.7 81.9,20.3 78.8,17.3 L78.8,17.3 Z M60.4,28 C60.6,25.9 61.2,24.3 62.2,23.3 C63.2,22.3 64.5,21.8 66.1,21.8 C67.8,21.8 69.1,22.4 70.1,23.5 C71.1,24.6 71.6,26.1 71.7,28 L60.4,28 Z" id="Shape" fill="#231F20"></path>
        </g>
    </g>
</svg>