<?xml version="1.0" encoding="UTF-8" standalone="no"?>
<svg width="123px" height="13px" viewBox="0 0 123 13" version="1.1" xmlns="http://www.w3.org/2000/svg" xmlns:xlink="http://www.w3.org/1999/xlink">
    <!-- Generator: Sketch 46.2 (44496) - http://www.bohemiancoding.com/sketch -->
    <title>Page 1</title>
    <desc>Created with Sketch.</desc>
    <defs></defs>
    <g id="Symbols" stroke="none" stroke-width="1" fill="none" fill-rule="evenodd">
        <g id="Page-1" fill="#000000">
            <path d="M3.86976,10.4810797 C2.73759434,10.4810797 1.88616285,10.1910826 1.31544,9.61107973 C0.744717146,9.03107683 0.45936,8.06828645 0.45936,6.72267973 C0.45936,5.42347323 0.74239717,4.4769227 1.30848,3.88299973 C1.87456283,3.28907676 2.65871499,2.99211973 3.66096,2.99211973 C4.13424237,2.99211973 4.55183819,3.05243912 4.91376,3.17307973 C5.27568181,3.29372033 5.58191875,3.49091836 5.83248,3.76467973 C6.08304125,4.0384411 6.27327935,4.39571752 6.4032,4.83651973 C6.53312065,5.27732193 6.59808,5.81787652 6.59808,6.45819973 L6.59808,7.25163973 L2.56128,7.25163973 C2.56128,7.90124297 2.67727884,8.36987829 2.90928,8.65755973 C3.14128116,8.94524116 3.55887698,9.08907973 4.16208,9.08907973 C4.561122,9.08907973 4.8905587,9.04268019 5.1504,8.94987973 C5.4102413,8.85707926 5.69791842,8.71788065 6.01344,8.53227973 L6.5424,9.64587973 C6.18047819,9.91500107 5.79072209,10.121479 5.37312,10.2653197 C4.95551791,10.4091604 4.45440292,10.4810797 3.86976,10.4810797 Z M3.67488,4.17531973 C3.49855912,4.17531973 3.34544065,4.20315945 3.21552,4.25883973 C3.08559935,4.31452 2.97424046,4.41195903 2.88144,4.55115973 C2.78863954,4.69036042 2.71672026,4.8829185 2.66568,5.12883973 C2.61463974,5.37476096 2.58448005,5.68795782 2.5752,6.06843973 L4.6632,6.06843973 C4.6632,5.69723787 4.64696016,5.38868096 4.61448,5.14275973 C4.58199984,4.8968385 4.52864037,4.70196045 4.4544,4.55811973 C4.38015963,4.41427901 4.28040063,4.31452 4.15512,4.25883973 C4.02983937,4.20315945 3.86976097,4.17531973 3.67488,4.17531973 Z M12.01496,9.60411973 C11.7736788,9.89180116 11.5045615,10.109879 11.2076,10.2583597 C10.9106385,10.4068405 10.5533621,10.4810797 10.13576,10.4810797 C9.74599805,10.4810797 9.39336158,10.4161204 9.07784,10.2861997 C8.76231842,10.1562791 8.49320111,9.94516119 8.27048,9.65283973 C8.04775889,9.36051826 7.8760806,8.97772209 7.75544,8.50443973 C7.6347994,8.03115736 7.57448,7.45116316 7.57448,6.76443973 C7.57448,6.0591562 7.64175933,5.46524214 7.77632,4.98267973 C7.91088067,4.50011731 8.09647882,4.11036121 8.33312,3.81339973 C8.56976118,3.51643824 8.85047838,3.30532035 9.17528,3.18003973 C9.50008162,3.0547591 9.8527181,2.99211973 10.2332,2.99211973 C10.6229619,2.99211973 10.9384788,3.06403901 11.17976,3.20787973 C11.4210412,3.35172045 11.643759,3.50715889 11.84792,3.67419973 L11.84792,1.40523973 L11.01272,1.22427973 L11.01272,0.110679727 L13.81064,0.110679727 L13.81064,9.15867973 L14.64584,9.29787973 L14.64584,10.3001197 L12.19592,10.3001197 L12.01496,9.60411973 Z M10.7204,9.10299973 C10.9524012,9.10299973 11.165839,9.06356012 11.36072,8.98467973 C11.555601,8.90579933 11.7179994,8.81532024 11.84792,8.71323973 L11.84792,4.88523973 C11.6994393,4.77387917 11.5579207,4.67644014 11.42336,4.59291973 C11.2887993,4.50939931 11.0962413,4.46763973 10.84568,4.46763973 C10.6229589,4.46763973 10.4373607,4.50707933 10.28888,4.58595973 C10.1403993,4.66484012 10.0220804,4.79475882 9.93392,4.97571973 C9.84575956,5.15668063 9.78080021,5.39795822 9.73904,5.69955973 C9.69727979,6.00116123 9.6764,6.37003755 9.6764,6.80619973 C9.6764,7.659964 9.75527921,8.25619803 9.91304,8.59491973 C10.0708008,8.93364142 10.3399181,9.10299973 10.7204,9.10299973 Z M18.94912,10.4810797 C17.8169543,10.4810797 16.9655229,10.1910826 16.3948,9.61107973 C15.8240771,9.03107683 15.53872,8.06828645 15.53872,6.72267973 C15.53872,5.42347323 15.8217572,4.4769227 16.38784,3.88299973 C16.9539228,3.28907676 17.738075,2.99211973 18.74032,2.99211973 C19.2136024,2.99211973 19.6311982,3.05243912 19.99312,3.17307973 C20.3550418,3.29372033 20.6612787,3.49091836 20.91184,3.76467973 C21.1624013,4.0384411 21.3526394,4.39571752 21.48256,4.83651973 C21.6124806,5.27732193 21.67744,5.81787652 21.67744,6.45819973 L21.67744,7.25163973 L17.64064,7.25163973 C17.64064,7.90124297 17.7566388,8.36987829 17.98864,8.65755973 C18.2206412,8.94524116 18.638237,9.08907973 19.24144,9.08907973 C19.640482,9.08907973 19.9699187,9.04268019 20.22976,8.94987973 C20.4896013,8.85707926 20.7772784,8.71788065 21.0928,8.53227973 L21.62176,9.64587973 C21.2598382,9.91500107 20.8700821,10.121479 20.45248,10.2653197 C20.0348779,10.4091604 19.5337629,10.4810797 18.94912,10.4810797 Z M18.75424,4.17531973 C18.5779191,4.17531973 18.4248006,4.20315945 18.29488,4.25883973 C18.1649594,4.31452 18.0536005,4.41195903 17.9608,4.55115973 C17.8679995,4.69036042 17.7960803,4.8829185 17.74504,5.12883973 C17.6939997,5.37476096 17.66384,5.68795782 17.65456,6.06843973 L19.74256,6.06843973 C19.74256,5.69723787 19.7263202,5.38868096 19.69384,5.14275973 C19.6613598,4.8968385 19.6080004,4.70196045 19.53376,4.55811973 C19.4595196,4.41427901 19.3597606,4.31452 19.23448,4.25883973 C19.1091994,4.20315945 18.949121,4.17531973 18.75424,4.17531973 Z M27.4284,5.58123973 C27.4284,5.22859796 27.3727206,4.97572049 27.26136,4.82259973 C27.1499994,4.66947896 26.9597613,4.59291973 26.69064,4.59291973 C26.4771989,4.59291973 26.266081,4.63235933 26.05728,4.71123973 C25.848479,4.79012012 25.6512809,4.88523917 25.46568,4.99659973 L25.46568,9.15867973 L26.25912,9.29787973 L26.25912,10.3001197 L22.66776,10.3001197 L22.66776,9.29787973 L23.50296,9.15867973 L23.50296,4.55115973 L22.66776,4.35627973 L22.66776,3.17307973 L25.18728,3.17307973 L25.38216,3.96651973 C25.7348018,3.65099815 26.0874382,3.40972056 26.44008,3.24267973 C26.7927218,3.07563889 27.1963977,2.99211973 27.65112,2.99211973 C28.8204058,2.99211973 29.40504,3.63707328 29.40504,4.92699973 L29.40504,9.15867973 L30.22632,9.29787973 L30.22632,10.3001197 L27.4284,10.3001197 L27.4284,5.58123973 Z" id="eden"></path>
            <path d="M33.78384,10.4810797 C32.7630349,10.4810797 31.951043,10.3186814 31.34784,9.99387973 L31.34784,8.14251973 L32.67024,8.14251973 L32.90688,9.18651973 C33.0368006,9.23291996 33.1574394,9.26771961 33.2688,9.29091973 C33.3801606,9.31411984 33.533279,9.32571973 33.72816,9.32571973 C34.1179219,9.32571973 34.4009591,9.2584404 34.57728,9.12387973 C34.7536009,8.98931905 34.84176,8.78748107 34.84176,8.51835973 C34.84176,8.22139824 34.737361,8.00100045 34.52856,7.85715973 C34.319759,7.71331901 33.9648025,7.58108033 33.46368,7.46043973 C33.1295983,7.37691931 32.8303213,7.27484033 32.56584,7.15419973 C32.3013587,7.03355912 32.0786409,6.88508061 31.89768,6.70875973 C31.7167191,6.53243884 31.5775205,6.31900098 31.48008,6.06843973 C31.3826395,5.81787847 31.33392,5.52092144 31.33392,5.17755973 C31.33392,4.52795648 31.5635977,4.00132174 32.02296,3.59763973 C32.4823223,3.19395771 33.1713554,2.99211973 34.09008,2.99211973 C34.5912025,2.99211973 35.0203982,3.02923936 35.37768,3.10347973 C35.7349618,3.1777201 36.0527986,3.28443903 36.3312,3.42363973 L36.3312,5.24715973 L35.06448,5.24715973 L34.82784,4.25883973 C34.7164794,4.21243949 34.6004806,4.1822798 34.47984,4.16835973 C34.3591994,4.15443966 34.2200008,4.14747973 34.06224,4.14747973 C33.3847966,4.14747973 33.04608,4.38411736 33.04608,4.85739973 C33.04608,5.09868093 33.141199,5.28891903 33.33144,5.42811973 C33.521681,5.56732042 33.8859173,5.70187908 34.42416,5.83179973 C34.7768018,5.92460019 35.0899986,6.03131912 35.36376,6.15195973 C35.6375214,6.27260033 35.869519,6.4257188 36.05976,6.61131973 C36.250001,6.79692065 36.3938395,7.0219584 36.49128,7.28643973 C36.5887205,7.55092105 36.63744,7.87339782 36.63744,8.25387973 C36.63744,8.62508158 36.5678407,8.94987833 36.42864,9.22827973 C36.2894393,9.50668112 36.0945613,9.7386788 35.844,9.92427973 C35.5934387,10.1098807 35.2941617,10.2490793 34.94616,10.3418797 C34.5981583,10.4346802 34.2107221,10.4810797 33.78384,10.4810797 Z" id="s"></path>
            <path d="M40.39584,3.98043973 C40.4886405,3.86907917 40.6046393,3.75540031 40.74384,3.63939973 C40.8830407,3.52339915 41.0361592,3.41668021 41.2032,3.31923973 C41.3702408,3.22179924 41.553519,3.14292003 41.75304,3.08259973 C41.952561,3.02227942 42.1636789,2.99211973 42.3864,2.99211973 C42.7204817,2.99211973 43.0359985,3.05011915 43.33296,3.16611973 C43.6299215,3.28212031 43.8897589,3.47699836 44.11248,3.75075973 C44.3352011,4.0245211 44.5115194,4.39339741 44.64144,4.85739973 C44.7713606,5.32140205 44.83632,5.90139625 44.83632,6.59739973 C44.83632,7.34908348 44.7713606,7.97083727 44.64144,8.46267973 C44.5115194,8.95452219 44.3282412,9.34659826 44.0916,9.63891973 C43.8549588,9.93124119 43.5696017,10.1353991 43.23552,10.2513997 C42.9014383,10.3674003 42.534882,10.4253997 42.13584,10.4253997 C41.7831982,10.4253997 41.4676814,10.3720403 41.18928,10.2653197 C40.9108786,10.1585992 40.669601,10.0124407 40.46544,9.82683973 L40.46544,11.9009197 L41.30064,12.0401197 L41.30064,12.9866797 L37.66752,12.9866797 L37.66752,12.0401197 L38.50272,11.9009197 L38.50272,4.55115973 L37.66752,4.35627973 L37.66752,3.17307973 L40.18704,3.17307973 L40.39584,3.98043973 Z M41.57904,9.14475973 C42.0337623,9.14475973 42.3376792,8.95684161 42.4908,8.58099973 C42.6439208,8.20515785 42.72048,7.58108409 42.72048,6.70875973 C42.72048,6.28187759 42.7042402,5.92460116 42.67176,5.63691973 C42.6392798,5.34923829 42.5812804,5.11956058 42.49776,4.94787973 C42.4142396,4.77619887 42.3028807,4.65556007 42.16368,4.58595973 C42.0244793,4.51635938 41.852801,4.48155973 41.64864,4.48155973 C41.4073588,4.48155973 41.189281,4.51867936 40.9944,4.59291973 C40.799519,4.6671601 40.6232008,4.75995917 40.46544,4.87131973 L40.46544,8.74107973 C40.5953606,8.84316024 40.757759,8.93595931 40.95264,9.01947973 C41.147521,9.10300014 41.3563189,9.14475973 41.57904,9.14475973 Z" id="p"></path>
            <path d="M49.5552,9.29787973 L49.5552,10.3001197 L45.92208,10.3001197 L45.92208,9.29787973 L46.75728,9.15867973 L46.75728,4.55115973 L45.92208,4.35627973 L45.92208,3.17307973 L48.72,3.17307973 L48.72,9.15867973 L49.5552,9.29787973 Z M47.676,2.42139973 C47.3511984,2.42139973 47.0751211,2.31004084 46.84776,2.08731973 C46.6203989,1.86459861 46.50672,1.60012126 46.50672,1.29387973 C46.50672,0.969078103 46.6180789,0.69532084 46.8408,0.472599727 C47.0635211,0.249878613 47.3372784,0.138519727 47.66208,0.138519727 C47.9868816,0.138519727 48.2606389,0.249878613 48.48336,0.472599727 C48.7060811,0.69532084 48.81744,0.964438149 48.81744,1.27995973 C48.81744,1.5954813 48.7084011,1.86459861 48.49032,2.08731973 C48.2722389,2.31004084 48.0008016,2.42139973 47.676,2.42139973 Z" id="i"></path>
            <path d="M53.82864,10.4810797 C52.6964743,10.4810797 51.8450429,10.1910826 51.27432,9.61107973 C50.7035971,9.03107683 50.41824,8.06828645 50.41824,6.72267973 C50.41824,5.42347323 50.7012772,4.4769227 51.26736,3.88299973 C51.8334428,3.28907676 52.617595,2.99211973 53.61984,2.99211973 C54.0931224,2.99211973 54.5107182,3.05243912 54.87264,3.17307973 C55.2345618,3.29372033 55.5407987,3.49091836 55.79136,3.76467973 C56.0419213,4.0384411 56.2321594,4.39571752 56.36208,4.83651973 C56.4920006,5.27732193 56.55696,5.81787652 56.55696,6.45819973 L56.55696,7.25163973 L52.52016,7.25163973 C52.52016,7.90124297 52.6361588,8.36987829 52.86816,8.65755973 C53.1001612,8.94524116 53.517757,9.08907973 54.12096,9.08907973 C54.520002,9.08907973 54.8494387,9.04268019 55.10928,8.94987973 C55.3691213,8.85707926 55.6567984,8.71788065 55.97232,8.53227973 L56.50128,9.64587973 C56.1393582,9.91500107 55.7496021,10.121479 55.332,10.2653197 C54.9143979,10.4091604 54.4132829,10.4810797 53.82864,10.4810797 Z M53.63376,4.17531973 C53.4574391,4.17531973 53.3043206,4.20315945 53.1744,4.25883973 C53.0444794,4.31452 52.9331205,4.41195903 52.84032,4.55115973 C52.7475195,4.69036042 52.6756003,4.8829185 52.62456,5.12883973 C52.5735197,5.37476096 52.54336,5.68795782 52.53408,6.06843973 L54.62208,6.06843973 C54.62208,5.69723787 54.6058402,5.38868096 54.57336,5.14275973 C54.5408798,4.8968385 54.4875204,4.70196045 54.41328,4.55811973 C54.3390396,4.41427901 54.2392806,4.31452 54.114,4.25883973 C53.9887194,4.20315945 53.828641,4.17531973 53.63376,4.17531973 Z M62.26616,4.42587973 L61.57016,4.32843973 L61.57016,3.17307973 L64.56296,3.17307973 L64.56296,4.35627973 L63.71384,4.46763973 L62.18264,6.17979973 L64.11752,9.15867973 L64.84136,9.28395973 L64.84136,10.3001197 L62.642,10.3001197 L60.35912,6.65307973 L62.26616,4.42587973 Z M60.33128,9.15867973 L61.06904,9.29787973 L61.06904,10.3001197 L57.54728,10.3001197 L57.54728,9.29787973 L58.36856,9.15867973 L58.36856,1.41915973 L57.54728,1.22427973 L57.54728,0.110679727 L60.33128,0.110679727 L60.33128,9.15867973 Z M68.9776,10.4810797 C67.8454343,10.4810797 66.9940029,10.1910826 66.42328,9.61107973 C65.8525571,9.03107683 65.5672,8.06828645 65.5672,6.72267973 C65.5672,5.42347323 65.8502372,4.4769227 66.41632,3.88299973 C66.9824028,3.28907676 67.766555,2.99211973 68.7688,2.99211973 C69.2420824,2.99211973 69.6596782,3.05243912 70.0216,3.17307973 C70.3835218,3.29372033 70.6897587,3.49091836 70.94032,3.76467973 C71.1908813,4.0384411 71.3811194,4.39571752 71.51104,4.83651973 C71.6409606,5.27732193 71.70592,5.81787652 71.70592,6.45819973 L71.70592,7.25163973 L67.66912,7.25163973 C67.66912,7.90124297 67.7851188,8.36987829 68.01712,8.65755973 C68.2491212,8.94524116 68.666717,9.08907973 69.26992,9.08907973 C69.668962,9.08907973 69.9983987,9.04268019 70.25824,8.94987973 C70.5180813,8.85707926 70.8057584,8.71788065 71.12128,8.53227973 L71.65024,9.64587973 C71.2883182,9.91500107 70.8985621,10.121479 70.48096,10.2653197 C70.0633579,10.4091604 69.5622429,10.4810797 68.9776,10.4810797 Z M68.78272,4.17531973 C68.6063991,4.17531973 68.4532806,4.20315945 68.32336,4.25883973 C68.1934394,4.31452 68.0820805,4.41195903 67.98928,4.55115973 C67.8964795,4.69036042 67.8245603,4.8829185 67.77352,5.12883973 C67.7224797,5.37476096 67.69232,5.68795782 67.68304,6.06843973 L69.77104,6.06843973 C69.77104,5.69723787 69.7548002,5.38868096 69.72232,5.14275973 C69.6898398,4.8968385 69.6364804,4.70196045 69.56224,4.55811973 C69.4879996,4.41427901 69.3882406,4.31452 69.26296,4.25883973 C69.1376794,4.20315945 68.977601,4.17531973 68.78272,4.17531973 Z M76.59384,9.29787973 L76.59384,10.3001197 L72.69624,10.3001197 L72.69624,9.29787973 L73.53144,9.15867973 L73.53144,4.55115973 L72.69624,4.35627973 L72.69624,3.17307973 L75.14616,3.17307973 L75.39672,4.32843973 C75.8792824,3.45611536 76.5659955,3.01995973 77.45688,3.01995973 C77.5032802,3.01995973 77.5566397,3.0222797 77.61696,3.02691973 C77.6772803,3.03155975 77.7259998,3.04315963 77.76312,3.06171973 L77.51256,5.09403973 C77.4104795,5.04763949 77.3084005,5.01051987 77.20632,4.98267973 C77.1042395,4.95483959 76.9789607,4.94091973 76.83048,4.94091973 C76.5613587,4.94091973 76.322401,4.9733994 76.1136,5.03835973 C75.904799,5.10332005 75.698321,5.20075908 75.49416,5.33067973 L75.49416,9.13083973 L76.59384,9.29787973 Z" id="eker"></path>
            <path d="M83.50608,2.99211973 C84.3505642,2.99211973 84.8934388,3.32619639 85.13472,3.99435973 C85.4873618,3.6695581 85.8307183,3.42132058 86.1648,3.24963973 C86.4988817,3.07795887 86.8839978,2.99211973 87.32016,2.99211973 C87.8769628,2.99211973 88.3038385,3.1545181 88.6008,3.47931973 C88.8977615,3.80412135 89.04624,4.28667652 89.04624,4.92699973 L89.04624,9.21435973 L89.88144,9.35355973 L89.88144,10.3001197 L87.08352,10.3001197 L87.08352,5.60907973 C87.08352,5.25643796 87.0301605,5.00124052 86.92344,4.84347973 C86.8167195,4.68571894 86.6288013,4.60683973 86.35968,4.60683973 C86.155519,4.60683973 85.9629609,4.6393194 85.782,4.70427973 C85.6010391,4.76924005 85.4177609,4.86203912 85.23216,4.98267973 L85.23216,9.15867973 L86.01168,9.29787973 L86.01168,10.3001197 L83.25552,10.3001197 L83.25552,5.60907973 C83.25552,5.25643796 83.2044805,5.00124052 83.1024,4.84347973 C83.0003195,4.68571894 82.8100814,4.60683973 82.53168,4.60683973 C82.1604781,4.60683973 81.7892819,4.73211847 81.41808,4.98267973 L81.41808,9.15867973 L82.1976,9.29787973 L82.1976,10.3001197 L78.62016,10.3001197 L78.62016,9.29787973 L79.45536,9.15867973 L79.45536,4.55115973 L78.62016,4.35627973 L78.62016,3.17307973 L81.13968,3.17307973 L81.33456,3.96651973 C81.6872018,3.6602782 82.0282384,3.42132058 82.35768,3.24963973 C82.6871216,3.07795887 83.0699178,2.99211973 83.50608,2.99211973 Z" id="m"></path>
            <path d="M93.59808,9.17259973 C93.8393612,9.17259973 94.0365592,9.13780007 94.18968,9.06819973 C94.3428008,8.99859938 94.4796794,8.91276024 94.60032,8.81067973 L94.60032,7.08459973 L94.15488,7.08459973 C93.6537575,7.08459973 93.2964811,7.15883898 93.08304,7.30731973 C92.8695989,7.45580047 92.76288,7.7527575 92.76288,8.19819973 C92.76288,8.55084149 92.8301593,8.80139898 92.96472,8.94987973 C93.0992807,9.09836047 93.3103986,9.17259973 93.59808,9.17259973 Z M97.38432,10.1609197 C97.2543994,10.2351601 97.0780811,10.3070794 96.85536,10.3766797 C96.6326389,10.4462801 96.3867213,10.4810797 96.1176,10.4810797 C95.7835183,10.4810797 95.5004812,10.4277203 95.26848,10.3209997 C95.0364788,10.2142792 94.8694405,10.0124412 94.76736,9.71547973 C94.6559994,9.81756024 94.5423206,9.91499926 94.42632,10.0077997 C94.3103194,10.1006002 94.1827207,10.1817994 94.04352,10.2513997 C93.9043193,10.3210001 93.7465609,10.3766795 93.57024,10.4184397 C93.3939191,10.4601999 93.1897612,10.4810797 92.95776,10.4810797 C92.3267168,10.4810797 91.809362,10.3094014 91.40568,9.96603973 C91.001998,9.62267801 90.80016,9.07052353 90.80016,8.30955973 C90.80016,7.51147574 91.0646374,6.93380151 91.5936,6.57651973 C92.1225626,6.21923794 92.985594,6.04059973 94.18272,6.04059973 L94.60032,6.04059973 L94.60032,5.69259973 C94.60032,5.30283778 94.5353606,5.01748063 94.40544,4.83651973 C94.2755194,4.65555882 93.9971221,4.56507973 93.57024,4.56507973 C93.1990381,4.56507973 92.8510416,4.61147926 92.52624,4.70427973 C92.2014384,4.79708019 91.8720017,4.92235894 91.53792,5.08011973 L90.98112,3.82731973 C91.3987221,3.55819838 91.8487976,3.35172045 92.33136,3.20787973 C92.8139224,3.06403901 93.3614369,2.99211973 93.97392,2.99211973 C94.8184042,2.99211973 95.4610378,3.16611799 95.90184,3.51411973 C96.3426422,3.86212147 96.56304,4.46763541 96.56304,5.33067973 L96.56304,8.62971973 C96.56304,8.87100093 96.6071196,9.0241194 96.69528,9.08907973 C96.7834404,9.15404005 96.9852784,9.18651973 97.3008,9.18651973 L97.38432,10.1609197 Z" id="a"></path>
            <path d="M103.10544,5.58123973 C103.10544,5.22859796 103.049761,4.97572049 102.9384,4.82259973 C102.827039,4.66947896 102.636801,4.59291973 102.36768,4.59291973 C102.154239,4.59291973 101.943121,4.63235933 101.73432,4.71123973 C101.525519,4.79012012 101.328321,4.88523917 101.14272,4.99659973 L101.14272,9.15867973 L101.93616,9.29787973 L101.93616,10.3001197 L98.3448,10.3001197 L98.3448,9.29787973 L99.18,9.15867973 L99.18,4.55115973 L98.3448,4.35627973 L98.3448,3.17307973 L100.86432,3.17307973 L101.0592,3.96651973 C101.411842,3.65099815 101.764478,3.40972056 102.11712,3.24267973 C102.469762,3.07563889 102.873438,2.99211973 103.32816,2.99211973 C104.497446,2.99211973 105.08208,3.63707328 105.08208,4.92699973 L105.08208,9.15867973 L105.90336,9.29787973 L105.90336,10.3001197 L103.10544,10.3001197 L103.10544,5.58123973 Z M111.59964,5.58123973 C111.59964,5.22859796 111.543961,4.97572049 111.4326,4.82259973 C111.321239,4.66947896 111.131001,4.59291973 110.86188,4.59291973 C110.648439,4.59291973 110.437321,4.63235933 110.22852,4.71123973 C110.019719,4.79012012 109.822521,4.88523917 109.63692,4.99659973 L109.63692,9.15867973 L110.43036,9.29787973 L110.43036,10.3001197 L106.839,10.3001197 L106.839,9.29787973 L107.6742,9.15867973 L107.6742,4.55115973 L106.839,4.35627973 L106.839,3.17307973 L109.35852,3.17307973 L109.5534,3.96651973 C109.906042,3.65099815 110.258678,3.40972056 110.61132,3.24267973 C110.963962,3.07563889 111.367638,2.99211973 111.82236,2.99211973 C112.991646,2.99211973 113.57628,3.63707328 113.57628,4.92699973 L113.57628,9.15867973 L114.39756,9.29787973 L114.39756,10.3001197 L111.59964,10.3001197 L111.59964,5.58123973 Z M114.846,11.0517997 L122.7804,11.0517997 L122.7804,12.4716397 L114.846,12.4716397 L114.846,11.0517997 Z" id="nn_"></path>
        </g>
    </g>
</svg>