<?xml version="1.0" encoding="utf-8"?>
<!-- Generator: Adobe Illustrator 21.1.0, SVG Export Plug-In . SVG Version: 6.00 Build 0)  -->
<svg version="1.1" id="Layer_1" xmlns="http://www.w3.org/2000/svg" xmlns:xlink="http://www.w3.org/1999/xlink" x="0px" y="0px"
	 viewBox="0 0 123 13" style="enable-background:new 0 0 123 13;" xml:space="preserve">
<style type="text/css">
	.st0{fill:#7E8892;}
</style>
<title>Page 1</title>
<desc>Created with Sketch.</desc>
<g id="Symbols">
	<g id="Page-1">
		<path id="eden" class="st0" d="M3.9,10.5c-1.1,0-2-0.3-2.6-0.9C0.7,9,0.5,8.1,0.5,6.7c0-1.3,0.3-2.2,0.8-2.8S2.7,3,3.7,3
			c0.5,0,0.9,0.1,1.3,0.2s0.7,0.3,0.9,0.6s0.4,0.6,0.6,1.1c0.1,0.4,0.2,1,0.2,1.6v0.8h-4c0,0.6,0.1,1.1,0.3,1.4
			c0.2,0.3,0.6,0.4,1.3,0.4c0.4,0,0.7,0,1-0.1C5.4,8.9,5.7,8.7,6,8.5l0.5,1.1c-0.4,0.3-0.8,0.5-1.2,0.6S4.5,10.5,3.9,10.5z M3.7,4.2
			c-0.2,0-0.3,0-0.5,0.1C3.1,4.3,3,4.4,2.9,4.6C2.8,4.7,2.7,4.9,2.7,5.1C2.6,5.4,2.6,5.7,2.6,6.1h2.1c0-0.4,0-0.7,0-0.9
			S4.5,4.7,4.5,4.6S4.3,4.3,4.2,4.3C4,4.2,3.9,4.2,3.7,4.2z M12,9.6c-0.2,0.3-0.5,0.5-0.8,0.7c-0.3,0.1-0.7,0.2-1.1,0.2
			c-0.4,0-0.7-0.1-1.1-0.2c-0.3-0.1-0.6-0.3-0.8-0.6S7.9,9,7.8,8.5C7.6,8,7.6,7.5,7.6,6.8c0-0.7,0.1-1.3,0.2-1.8s0.3-0.9,0.6-1.2
			c0.2-0.3,0.5-0.5,0.8-0.6C9.5,3.1,9.9,3,10.2,3c0.4,0,0.7,0.1,0.9,0.2c0.2,0.1,0.5,0.3,0.7,0.5V1.4L11,1.2V0.1h2.8v9l0.8,0.1v1
			h-2.4L12,9.6z M10.7,9.1c0.2,0,0.4,0,0.6-0.1c0.2-0.1,0.4-0.2,0.5-0.3V4.9c-0.1-0.1-0.3-0.2-0.4-0.3s-0.3-0.1-0.6-0.1
			c-0.2,0-0.4,0-0.6,0.1C10.1,4.7,10,4.8,9.9,5C9.8,5.2,9.8,5.4,9.7,5.7c0,0.3-0.1,0.7-0.1,1.1c0,0.9,0.1,1.4,0.2,1.8
			C10.1,8.9,10.3,9.1,10.7,9.1z M18.9,10.5c-1.1,0-2-0.3-2.6-0.9c-0.6-0.6-0.9-1.5-0.9-2.9c0-1.3,0.3-2.2,0.8-2.8
			C17,3.3,17.7,3,18.7,3c0.5,0,0.9,0.1,1.3,0.2s0.7,0.3,0.9,0.6c0.3,0.3,0.4,0.6,0.6,1.1c0.1,0.4,0.2,1,0.2,1.6v0.8h-4
			c0,0.6,0.1,1.1,0.3,1.4c0.2,0.3,0.6,0.4,1.3,0.4c0.4,0,0.7,0,1-0.1c0.3-0.1,0.5-0.2,0.9-0.4l0.5,1.1c-0.4,0.3-0.8,0.5-1.2,0.6
			S19.5,10.5,18.9,10.5z M18.8,4.2c-0.2,0-0.3,0-0.5,0.1S18.1,4.4,18,4.6s-0.2,0.3-0.2,0.6c-0.1,0.2-0.1,0.6-0.1,0.9h2.1
			c0-0.4,0-0.7,0-0.9s-0.1-0.4-0.2-0.6s-0.2-0.2-0.3-0.3S18.9,4.2,18.8,4.2z M27.4,5.6c0-0.4-0.1-0.6-0.2-0.8
			c-0.1-0.2-0.3-0.2-0.6-0.2c-0.2,0-0.4,0-0.6,0.1S25.7,4.9,25.5,5v4.2l0.8,0.1v1h-3.6v-1l0.8-0.1V4.6l-0.8-0.2V3.2h2.5L25.4,4
			c0.4-0.3,0.7-0.6,1.1-0.7C26.8,3.1,27.2,3,27.7,3c1.2,0,1.8,0.6,1.8,1.9v4.2l0.8,0.1v1h-2.8V5.6z"/>
		<path id="s" class="st0" d="M33.8,10.5c-1,0-1.8-0.2-2.4-0.5V8.1h1.3l0.2,1c0.1,0,0.3,0.1,0.4,0.1c0.1,0,0.3,0,0.5,0
			c0.4,0,0.7-0.1,0.8-0.2c0.2-0.1,0.3-0.3,0.3-0.6c0-0.3-0.1-0.5-0.3-0.7S34,7.6,33.5,7.5c-0.3-0.1-0.6-0.2-0.9-0.3
			c-0.3-0.1-0.5-0.3-0.7-0.4c-0.2-0.2-0.3-0.4-0.4-0.6c-0.1-0.3-0.1-0.5-0.1-0.9c0-0.6,0.2-1.2,0.7-1.6S33.2,3,34.1,3
			c0.5,0,0.9,0,1.3,0.1c0.4,0.1,0.7,0.2,1,0.3v1.8h-1.3l-0.2-1c-0.1,0-0.2-0.1-0.3-0.1c-0.1,0-0.3,0-0.4,0c-0.7,0-1,0.2-1,0.7
			c0,0.2,0.1,0.4,0.3,0.6s0.6,0.3,1.1,0.4c0.4,0.1,0.7,0.2,0.9,0.3c0.3,0.1,0.5,0.3,0.7,0.5c0.2,0.2,0.3,0.4,0.4,0.7
			c0.1,0.3,0.1,0.6,0.1,1c0,0.4-0.1,0.7-0.2,1c-0.1,0.3-0.3,0.5-0.6,0.7c-0.3,0.2-0.5,0.3-0.9,0.4C34.6,10.4,34.2,10.5,33.8,10.5z"
			/>
		<path id="p" class="st0" d="M40.4,4c0.1-0.1,0.2-0.2,0.3-0.3c0.1-0.1,0.3-0.2,0.5-0.3c0.2-0.1,0.4-0.2,0.5-0.2C42,3,42.2,3,42.4,3
			c0.3,0,0.6,0.1,0.9,0.2c0.3,0.1,0.6,0.3,0.8,0.6c0.2,0.3,0.4,0.6,0.5,1.1c0.1,0.5,0.2,1,0.2,1.7c0,0.8-0.1,1.4-0.2,1.9
			s-0.3,0.9-0.5,1.2s-0.5,0.5-0.9,0.6c-0.3,0.1-0.7,0.2-1.1,0.2c-0.4,0-0.7-0.1-0.9-0.2c-0.3-0.1-0.5-0.3-0.7-0.4v2.1l0.8,0.1V13
			h-3.6V12l0.8-0.1V4.6l-0.8-0.2V3.2h2.5L40.4,4z M41.6,9.1c0.5,0,0.8-0.2,0.9-0.6c0.2-0.4,0.2-1,0.2-1.9c0-0.4,0-0.8,0-1.1
			c0-0.3-0.1-0.5-0.2-0.7c-0.1-0.2-0.2-0.3-0.3-0.4c-0.1-0.1-0.3-0.1-0.5-0.1c-0.2,0-0.5,0-0.7,0.1c-0.2,0.1-0.4,0.2-0.5,0.3v3.9
			C40.6,8.8,40.8,8.9,41,9C41.1,9.1,41.4,9.1,41.6,9.1z"/>
		<path id="i" class="st0" d="M49.6,9.3v1h-3.6v-1l0.8-0.1V4.6l-0.8-0.2V3.2h2.8v6L49.6,9.3z M47.7,2.4c-0.3,0-0.6-0.1-0.8-0.3
			c-0.2-0.2-0.3-0.5-0.3-0.8c0-0.3,0.1-0.6,0.3-0.8s0.5-0.3,0.8-0.3c0.3,0,0.6,0.1,0.8,0.3s0.3,0.5,0.3,0.8s-0.1,0.6-0.3,0.8
			C48.3,2.3,48,2.4,47.7,2.4z"/>
		<path id="eker" class="st0" d="M53.8,10.5c-1.1,0-2-0.3-2.6-0.9c-0.6-0.6-0.9-1.5-0.9-2.9c0-1.3,0.3-2.2,0.8-2.8S52.6,3,53.6,3
			c0.5,0,0.9,0.1,1.3,0.2c0.4,0.1,0.7,0.3,0.9,0.6s0.4,0.6,0.6,1.1s0.2,1,0.2,1.6v0.8h-4c0,0.6,0.1,1.1,0.3,1.4s0.6,0.4,1.3,0.4
			c0.4,0,0.7,0,1-0.1s0.5-0.2,0.9-0.4l0.5,1.1c-0.4,0.3-0.8,0.5-1.2,0.6S54.4,10.5,53.8,10.5z M53.6,4.2c-0.2,0-0.3,0-0.5,0.1
			s-0.2,0.2-0.3,0.3s-0.2,0.3-0.2,0.6c-0.1,0.2-0.1,0.6-0.1,0.9h2.1c0-0.4,0-0.7,0-0.9c0-0.2-0.1-0.4-0.2-0.6s-0.2-0.2-0.3-0.3
			C54,4.2,53.8,4.2,53.6,4.2z M62.3,4.4l-0.7-0.1V3.2h3v1.2l-0.8,0.1l-1.5,1.7l1.9,3l0.7,0.1v1h-2.2l-2.3-3.6L62.3,4.4z M60.3,9.2
			l0.7,0.1v1h-3.5v-1l0.8-0.1V1.4l-0.8-0.2V0.1h2.8V9.2z M69,10.5c-1.1,0-2-0.3-2.6-0.9c-0.6-0.6-0.9-1.5-0.9-2.9
			c0-1.3,0.3-2.2,0.8-2.8C67,3.3,67.8,3,68.8,3c0.5,0,0.9,0.1,1.3,0.2s0.7,0.3,0.9,0.6c0.3,0.3,0.4,0.6,0.6,1.1s0.2,1,0.2,1.6v0.8
			h-4c0,0.6,0.1,1.1,0.3,1.4s0.6,0.4,1.3,0.4c0.4,0,0.7,0,1-0.1s0.5-0.2,0.9-0.4l0.5,1.1c-0.4,0.3-0.8,0.5-1.2,0.6
			S69.6,10.5,69,10.5z M68.8,4.2c-0.2,0-0.3,0-0.5,0.1S68.1,4.4,68,4.6c-0.1,0.1-0.2,0.3-0.2,0.6c-0.1,0.2-0.1,0.6-0.1,0.9h2.1
			c0-0.4,0-0.7,0-0.9s-0.1-0.4-0.2-0.6s-0.2-0.2-0.3-0.3C69.1,4.2,69,4.2,68.8,4.2z M76.6,9.3v1h-3.9v-1l0.8-0.1V4.6l-0.8-0.2V3.2
			h2.4l0.3,1.2C75.9,3.5,76.6,3,77.5,3c0,0,0.1,0,0.2,0c0.1,0,0.1,0,0.1,0l-0.3,2C77.4,5,77.3,5,77.2,5s-0.2,0-0.4,0
			c-0.3,0-0.5,0-0.7,0.1s-0.4,0.2-0.6,0.3v3.8L76.6,9.3z"/>
		<path id="m" class="st0" d="M83.5,3c0.8,0,1.4,0.3,1.6,1c0.4-0.3,0.7-0.6,1-0.7C86.5,3.1,86.9,3,87.3,3c0.6,0,1,0.2,1.3,0.5
			S89,4.3,89,4.9v4.3l0.8,0.1v0.9h-2.8V5.6c0-0.4-0.1-0.6-0.2-0.8c-0.1-0.2-0.3-0.2-0.6-0.2c-0.2,0-0.4,0-0.6,0.1
			c-0.2,0.1-0.4,0.2-0.5,0.3v4.2L86,9.3v1h-2.8V5.6c0-0.4-0.1-0.6-0.2-0.8c-0.1-0.2-0.3-0.2-0.6-0.2c-0.4,0-0.7,0.1-1.1,0.4v4.2
			l0.8,0.1v1h-3.6v-1l0.8-0.1V4.6l-0.8-0.2V3.2h2.5L81.3,4c0.4-0.3,0.7-0.5,1-0.7C82.7,3.1,83.1,3,83.5,3z"/>
		<path id="a" class="st0" d="M93.6,9.2c0.2,0,0.4,0,0.6-0.1c0.2-0.1,0.3-0.2,0.4-0.3V7.1h-0.4c-0.5,0-0.9,0.1-1.1,0.2
			s-0.3,0.4-0.3,0.9c0,0.4,0.1,0.6,0.2,0.8S93.3,9.2,93.6,9.2z M97.4,10.2c-0.1,0.1-0.3,0.1-0.5,0.2c-0.2,0.1-0.5,0.1-0.7,0.1
			c-0.3,0-0.6-0.1-0.8-0.2c-0.2-0.1-0.4-0.3-0.5-0.6c-0.1,0.1-0.2,0.2-0.3,0.3c-0.1,0.1-0.2,0.2-0.4,0.2c-0.1,0.1-0.3,0.1-0.5,0.2
			c-0.2,0-0.4,0.1-0.6,0.1c-0.6,0-1.1-0.2-1.6-0.5c-0.4-0.3-0.6-0.9-0.6-1.7c0-0.8,0.3-1.4,0.8-1.7C92.1,6.2,93,6,94.2,6h0.4V5.7
			c0-0.4-0.1-0.7-0.2-0.9S94,4.6,93.6,4.6c-0.4,0-0.7,0-1,0.1c-0.3,0.1-0.7,0.2-1,0.4L91,3.8c0.4-0.3,0.9-0.5,1.4-0.6
			C92.8,3.1,93.4,3,94,3c0.8,0,1.5,0.2,1.9,0.5s0.7,1,0.7,1.8v3.3c0,0.2,0,0.4,0.1,0.5c0.1,0.1,0.3,0.1,0.6,0.1L97.4,10.2z"/>
		<path id="nn_" class="st0" d="M103.1,5.6c0-0.4-0.1-0.6-0.2-0.8c-0.1-0.2-0.3-0.2-0.6-0.2c-0.2,0-0.4,0-0.6,0.1s-0.4,0.2-0.6,0.3
			v4.2l0.8,0.1v1h-3.6v-1l0.8-0.1V4.6l-0.8-0.2V3.2h2.5l0.2,0.8c0.4-0.3,0.7-0.6,1.1-0.7c0.4-0.2,0.8-0.3,1.2-0.3
			c1.2,0,1.8,0.6,1.8,1.9v4.2l0.8,0.1v1h-2.8V5.6z M111.6,5.6c0-0.4-0.1-0.6-0.2-0.8c-0.1-0.2-0.3-0.2-0.6-0.2c-0.2,0-0.4,0-0.6,0.1
			s-0.4,0.2-0.6,0.3v4.2l0.8,0.1v1h-3.6v-1l0.8-0.1V4.6l-0.8-0.2V3.2h2.5l0.2,0.8c0.4-0.3,0.7-0.6,1.1-0.7c0.4-0.2,0.8-0.3,1.2-0.3
			c1.2,0,1.8,0.6,1.8,1.9v4.2l0.8,0.1v1h-2.8V5.6z M114.8,11.1h7.9v1.4h-7.9V11.1z"/>
	</g>
</g>
</svg>
