<?xml version="1.0" encoding="utf-8"?>
<!-- Generator: Adobe Illustrator 21.1.0, SVG Export Plug-In . SVG Version: 6.00 Build 0)  -->
<svg version="1.1" id="Layer_1" xmlns="http://www.w3.org/2000/svg" xmlns:xlink="http://www.w3.org/1999/xlink" x="0px" y="0px"
	 viewBox="0 0 36 36" style="enable-background:new 0 0 36 36;" xml:space="preserve">
<style type="text/css">
	.st0{fill:#7E8892;}
	.st1{fill:#999999;}
	.st2{fill:#FFFFFF;}
	.st3{fill:#EEF3F3;}
	.st4{fill:#4B555F;}
</style>
<g>
	<g>
		<path class="st0" d="M7.8,36H0.4V12h7.5V36z M4.1,8.7c-2.4,0-4.3-1.9-4.3-4.3C-0.2,2,1.7,0,4.1,0C6.5,0,8.4,2,8.4,4.4
			C8.4,6.7,6.5,8.7,4.1,8.7z M35.8,36h-7.5V24.3c0-2.8-0.1-6.4-3.9-6.4c-3.9,0-4.5,3-4.5,6.2V36h-7.5V12h7.2v3.3h0.1
			c1-1.9,3.4-3.9,7.1-3.9c7.6,0,8.9,5,8.9,11.4V36z"/>
	</g>
</g>
</svg>
