<?xml version="1.0" encoding="UTF-8" standalone="no"?>
<svg width="98px" height="21px" viewBox="0 0 98 21" version="1.1" xmlns="http://www.w3.org/2000/svg" xmlns:xlink="http://www.w3.org/1999/xlink">
    <!-- Generator: Sketch 46.2 (44496) - http://www.bohemiancoding.com/sketch -->
    <title>Microsoft_logo_(2012)</title>
    <desc>Created with Sketch.</desc>
    <defs></defs>
    <g id="Symbols" stroke="none" stroke-width="1" fill="none" fill-rule="evenodd">
        <g id="Microsoft_logo_(2012)" fill-rule="nonzero">
            <g id="Group" transform="translate(27.000000, 4.000000)" fill="#737373">
                <path d="M7.50617849,8.94352941 L6.92128146,10.6235294 L6.87254005,10.6235294 C6.77505721,10.2447059 6.59633867,9.66823529 6.30389016,8.97647059 L3.16819222,0.988235294 L0.0974828375,0.988235294 L0.0974828375,13.72 L2.12837529,13.72 L2.12837529,5.86352941 C2.12837529,5.36941176 2.12837529,4.80941176 2.11212815,4.11764706 C2.09588101,3.77176471 2.06338673,3.50823529 2.04713959,3.31058824 L2.09588101,3.31058824 C2.19336384,3.80470588 2.30709382,4.16705882 2.38832952,4.39764706 L6.1576659,13.6870588 L7.58741419,13.6870588 L11.3242563,4.31529412 C11.405492,4.10117647 11.4867277,3.67294118 11.5679634,3.31058824 L11.6167048,3.31058824 C11.5679634,4.24941176 11.5354691,5.08941176 11.519222,5.6 L11.519222,13.6705882 L13.6800915,13.6705882 L13.6800915,0.955294118 L10.7231121,0.955294118 L7.50617849,8.94352941 L7.50617849,8.94352941 Z M15.7272311,4.54588235 L17.8393593,4.54588235 L17.8393593,13.6705882 L15.7272311,13.6705882 L15.7272311,4.54588235 Z M16.7995423,0.691764706 C16.4421053,0.691764706 16.1496568,0.823529412 15.9059497,1.05411765 C15.6622426,1.28470588 15.5322654,1.58117647 15.5322654,1.94352941 C15.5322654,2.28941176 15.6622426,2.58588235 15.9059497,2.81647059 C16.1496568,3.04705882 16.4421053,3.16235294 16.7995423,3.16235294 C17.1569794,3.16235294 17.4656751,3.03058824 17.693135,2.81647059 C17.9368421,2.58588235 18.0668192,2.28941176 18.0668192,1.94352941 C18.0668192,1.59764706 17.9368421,1.30117647 17.693135,1.05411765 C17.4819222,0.823529412 17.1732265,0.691764706 16.7995423,0.691764706 L16.7995423,0.691764706 Z M25.3292906,4.46352941 C24.9393593,4.38117647 24.5331808,4.33176471 24.1432494,4.33176471 C23.1846682,4.33176471 22.3073227,4.54588235 21.5762014,4.97411765 C20.8450801,5.40235294 20.2601831,5.99529412 19.8864989,6.73647059 C19.4965675,7.49411765 19.3016018,8.36705882 19.3016018,9.37176471 C19.3016018,10.2447059 19.4965675,11.0188235 19.8702517,11.7270588 C20.2439359,12.4188235 20.7638444,12.9788235 21.4624714,13.3576471 C22.1286041,13.7364706 22.9084668,13.9341176 23.7858124,13.9341176 C24.793135,13.9341176 25.6542334,13.72 26.3366133,13.3247059 L26.3528604,13.3082353 L26.3528604,11.3317647 L26.2716247,11.3976471 C25.9629291,11.6282353 25.605492,11.8258824 25.2480549,11.9411765 C24.8743707,12.0729412 24.5331808,12.1388235 24.2407323,12.1388235 C23.395881,12.1388235 22.7297483,11.8917647 22.2585812,11.3482353 C21.771167,10.8211765 21.52746,10.0964706 21.52746,9.19058824 C21.52746,8.25176471 21.771167,7.51058824 22.2748284,6.96705882 C22.7784897,6.42352941 23.4446224,6.14352941 24.2569794,6.14352941 C24.9393593,6.14352941 25.6379863,6.37411765 26.2716247,6.83529412 L26.3528604,6.90117647 L26.3528604,4.80941176 L26.3366133,4.79294118 C26.0604119,4.67764706 25.7517162,4.54588235 25.3292906,4.46352941 L25.3292906,4.46352941 Z M32.2993135,4.39764706 C31.779405,4.39764706 31.2919908,4.56235294 30.8695652,4.90823529 C30.5121281,5.20470588 30.2684211,5.63294118 30.0572082,6.14352941 L30.0409611,6.14352941 L30.0409611,4.54588235 L27.928833,4.54588235 L27.928833,13.6705882 L30.0409611,13.6705882 L30.0409611,9.00941176 C30.0409611,8.21882353 30.2034325,7.56 30.5608696,7.08235294 C30.9183066,6.58823529 31.3732265,6.34117647 31.9256293,6.34117647 C32.120595,6.34117647 32.3155606,6.39058824 32.5592677,6.42352941 C32.7867277,6.48941176 32.9491991,6.55529412 33.0629291,6.63764706 L33.1441648,6.70352941 L33.1441648,4.56235294 L33.0954233,4.54588235 C32.9491991,4.44705882 32.6567506,4.39764706 32.2993135,4.39764706 L32.2993135,4.39764706 Z M38.0508009,4.34823529 C36.5723112,4.34823529 35.38627,4.79294118 34.5576659,5.66588235 C33.7128146,6.53882353 33.3066362,7.74117647 33.3066362,9.25647059 C33.3066362,10.6729412 33.7290618,11.8258824 34.5414188,12.6658824 C35.3537757,13.4894118 36.4585812,13.9176471 37.8395881,13.9176471 C39.2855835,13.9176471 40.4391304,13.4729412 41.2677346,12.5835294 C42.1125858,11.6941176 42.5187643,10.5082353 42.5187643,9.04235294 C42.5187643,7.59294118 42.128833,6.44 41.3327231,5.6 C40.5691076,4.76 39.4480549,4.34823529 38.0508009,4.34823529 L38.0508009,4.34823529 Z M39.7405034,11.3647059 C39.3505721,11.8752941 38.7331808,12.1223529 37.9695652,12.1223529 C37.2059497,12.1223529 36.5885584,11.8752941 36.1498856,11.3317647 C35.7112128,10.8211765 35.5,10.08 35.5,9.14117647 C35.5,8.16941176 35.72746,7.42823529 36.1498856,6.90117647 C36.5885584,6.37411765 37.1897025,6.11058824 37.9533181,6.11058824 C38.7006865,6.11058824 39.2855835,6.35764706 39.7080092,6.86823529 C40.1304348,7.37882353 40.3578947,8.12 40.3578947,9.09176471 C40.3254005,10.08 40.1466819,10.8541176 39.7405034,11.3647059 L39.7405034,11.3647059 Z M47.2304348,8.33411765 C46.5643021,8.05411765 46.1418764,7.84 45.9469108,7.65882353 C45.7844394,7.49411765 45.7032037,7.26352941 45.7032037,6.96705882 C45.7032037,6.72 45.8006865,6.47294118 46.0443936,6.30823529 C46.2881007,6.14352941 46.5643021,6.06117647 46.9704805,6.06117647 C47.3279176,6.06117647 47.7016018,6.12705882 48.0590389,6.22588235 C48.416476,6.32470588 48.7414188,6.47294118 49.001373,6.67058824 L49.0826087,6.73647059 L49.0826087,4.72705882 L49.0338673,4.71058824 C48.7901602,4.61176471 48.4652174,4.51294118 48.075286,4.43058824 C47.6853547,4.36470588 47.3279176,4.33176471 47.0354691,4.33176471 C46.0281465,4.33176471 45.1995423,4.57882353 44.5496568,5.12235294 C43.8997712,5.63294118 43.5910755,6.32470588 43.5910755,7.13176471 C43.5910755,7.56 43.6560641,7.93882353 43.8022883,8.25176471 C43.9485126,8.56470588 44.1597254,8.86117647 44.4521739,9.10823529 C44.7446224,9.33882353 45.1670481,9.60235294 45.7519451,9.84941176 C46.2393593,10.0635294 46.6130435,10.2282353 46.8405034,10.36 C47.0679634,10.4917647 47.2141876,10.64 47.3279176,10.7552941 C47.4091533,10.8870588 47.4578947,11.0517647 47.4578947,11.2658824 C47.4578947,11.8752941 47.0029748,12.1717647 46.0768879,12.1717647 C45.7194508,12.1717647 45.3457666,12.1058824 44.9070938,11.9576471 C44.4684211,11.8094118 44.0622426,11.5952941 43.7210526,11.3482353 L43.6398169,11.2823529 L43.6398169,13.3741176 L43.6885584,13.3905882 C43.997254,13.5388235 44.3709382,13.6376471 44.8258581,13.7529412 C45.280778,13.8352941 45.6869565,13.9011765 46.0443936,13.9011765 C47.1329519,13.9011765 48.0265446,13.6541176 48.6601831,13.1105882 C49.3100686,12.5835294 49.6512586,11.9082353 49.6512586,11.0352941 C49.6512586,10.4258824 49.4887872,9.88235294 49.1313501,9.47058824 C48.6601831,9.07529412 48.075286,8.66352941 47.2304348,8.33411765 L47.2304348,8.33411765 Z M55.2240275,4.34823529 C53.7455378,4.34823529 52.5594966,4.79294118 51.7308924,5.66588235 C50.9022883,6.53882353 50.4798627,7.74117647 50.4798627,9.25647059 C50.4798627,10.6729412 50.9022883,11.8258824 51.7146453,12.6658824 C52.5270023,13.4894118 53.6318078,13.9176471 55.0128146,13.9176471 C56.4588101,13.9176471 57.612357,13.4729412 58.4409611,12.5835294 C59.2858124,11.6941176 59.6919908,10.5082353 59.6919908,9.04235294 C59.6919908,7.59294118 59.3020595,6.44 58.5059497,5.6 C57.7423341,4.76 56.6212815,4.34823529 55.2240275,4.34823529 L55.2240275,4.34823529 Z M56.8974828,11.3647059 C56.5075515,11.8752941 55.8901602,12.1223529 55.1265446,12.1223529 C54.3466819,12.1223529 53.7455378,11.8752941 53.306865,11.3317647 C52.8681922,10.8211765 52.6569794,10.08 52.6569794,9.14117647 C52.6569794,8.16941176 52.8844394,7.42823529 53.306865,6.90117647 C53.7455378,6.37411765 54.3466819,6.11058824 55.1102975,6.11058824 C55.8414188,6.11058824 56.4425629,6.35764706 56.8649886,6.86823529 C57.2874142,7.37882353 57.5148741,8.12 57.5148741,9.09176471 C57.5148741,10.08 57.3036613,10.8541176 56.8974828,11.3647059 L56.8974828,11.3647059 Z" id="Shape"></path>
                <path d="M70.9837529,6.30823529 L70.9837529,4.54588235 L68.8553776,4.54588235 L68.8553776,1.84470588 L68.790389,1.86117647 L66.7757437,2.47058824 L66.7270023,2.48705882 L66.7270023,4.54588235 L63.5425629,4.54588235 L63.5425629,3.39294118 C63.5425629,2.86588235 63.67254,2.45411765 63.9,2.19058824 C64.12746,1.92705882 64.4686499,1.79529412 64.8910755,1.79529412 C65.183524,1.79529412 65.4922197,1.86117647 65.8334096,2.00941176 L65.9146453,2.05882353 L65.9146453,0.197647059 L65.8659039,0.181176471 C65.5734554,0.0823529412 65.183524,0.0164705882 64.6798627,0.0164705882 C64.0462243,0.0164705882 63.4938215,0.164705882 62.9901602,0.411764706 C62.4864989,0.691764706 62.1128146,1.07058824 61.8366133,1.58117647 C61.5604119,2.07529412 61.4141876,2.63529412 61.4141876,3.27764706 L61.4141876,4.54588235 L59.9356979,4.54588235 L59.9356979,6.29176471 L61.4141876,6.29176471 L61.4141876,13.6705882 L63.5425629,13.6705882 L63.5425629,6.30823529 L66.7270023,6.30823529 L66.7270023,11.0023529 C66.7270023,12.9294118 67.620595,13.9011765 69.4077803,13.9011765 C69.7002288,13.9011765 70.0089245,13.8517647 70.301373,13.8023529 C70.6100686,13.7364706 70.8375286,13.6541176 70.9675057,13.5882353 L70.9837529,13.5717647 L70.9837529,11.8094118 L70.9025172,11.8752941 C70.77254,11.9576471 70.6588101,12.0235294 70.4638444,12.0729412 C70.301373,12.1223529 70.1551487,12.1388235 70.0414188,12.1388235 C69.6189931,12.1388235 69.3265446,12.04 69.1153318,11.7929412 C68.9203661,11.5623529 68.8228833,11.1835294 68.8228833,10.6235294 L68.8228833,6.30823529 L70.9837529,6.30823529 L70.9837529,6.30823529 Z" id="Shape"></path>
            </g>
            <polygon id="Shape" fill="#F25022" points="0 0 10 0 10 10 0 10"></polygon>
            <polygon id="Shape" fill="#7FBA00" points="11 0 21 0 21 10 11 10"></polygon>
            <polygon id="Shape" fill="#00A4EF" points="0 11 10 11 10 21 0 21"></polygon>
            <polygon id="Shape" fill="#FFB900" points="11 11 21 11 21 21 11 21"></polygon>
        </g>
    </g>
</svg>