<?xml version="1.0" encoding="utf-8"?>
<!-- Generator: Adobe Illustrator 21.1.0, SVG Export Plug-In . SVG Version: 6.00 Build 0)  -->
<svg version="1.1" id="Layer_1" xmlns="http://www.w3.org/2000/svg" xmlns:xlink="http://www.w3.org/1999/xlink" x="0px" y="0px"
	 viewBox="0 0 98 21" style="enable-background:new 0 0 98 21;" xml:space="preserve">
<style type="text/css">
	.st0{fill:#7E8892;}
</style>
<title>Microsoft_logo_(2012)</title>
<desc>Created with Sketch.</desc>
<g id="Symbols">
	<g id="Microsoft_x5F_logo_x5F__x28_2012_x29_">
		<g id="Group" transform="translate(27.000000, 4.000000)">
			<path id="Shape" class="st0" d="M7.5,8.9l-0.6,1.7h0c-0.1-0.4-0.3-1-0.6-1.6L3.2,1H0.1v12.7h2V5.9c0-0.5,0-1.1,0-1.7
				c0-0.3,0-0.6-0.1-0.8h0c0.1,0.5,0.2,0.9,0.3,1.1l3.8,9.3h1.4l3.7-9.4c0.1-0.2,0.2-0.6,0.2-1h0c0,0.9-0.1,1.8-0.1,2.3v8.1h2.2V1
				h-3L7.5,8.9L7.5,8.9z M15.7,4.5h2.1v9.1h-2.1V4.5z M16.8,0.7c-0.4,0-0.6,0.1-0.9,0.4s-0.4,0.5-0.4,0.9c0,0.3,0.1,0.6,0.4,0.9
				s0.5,0.3,0.9,0.3c0.4,0,0.7-0.1,0.9-0.3c0.2-0.2,0.4-0.5,0.4-0.9s-0.1-0.6-0.4-0.9C17.5,0.8,17.2,0.7,16.8,0.7L16.8,0.7z
				 M25.3,4.5c-0.4-0.1-0.8-0.1-1.2-0.1c-1,0-1.8,0.2-2.6,0.6c-0.7,0.4-1.3,1-1.7,1.8c-0.4,0.8-0.6,1.6-0.6,2.6
				c0,0.9,0.2,1.6,0.6,2.4c0.4,0.7,0.9,1.3,1.6,1.6c0.7,0.4,1.4,0.6,2.3,0.6c1,0,1.9-0.2,2.6-0.6l0,0v-2l-0.1,0.1
				c-0.3,0.2-0.7,0.4-1,0.5c-0.4,0.1-0.7,0.2-1,0.2c-0.8,0-1.5-0.2-2-0.8c-0.5-0.5-0.7-1.3-0.7-2.2c0-0.9,0.2-1.7,0.7-2.2
				c0.5-0.5,1.2-0.8,2-0.8c0.7,0,1.4,0.2,2,0.7l0.1,0.1V4.8l0,0C26.1,4.7,25.8,4.5,25.3,4.5L25.3,4.5z M32.3,4.4
				c-0.5,0-1,0.2-1.4,0.5c-0.4,0.3-0.6,0.7-0.8,1.2h0V4.5h-2.1v9.1H30V9c0-0.8,0.2-1.4,0.5-1.9c0.4-0.5,0.8-0.7,1.4-0.7
				c0.2,0,0.4,0,0.6,0.1c0.2,0.1,0.4,0.1,0.5,0.2l0.1,0.1V4.6l0,0C32.9,4.4,32.7,4.4,32.3,4.4L32.3,4.4z M38.1,4.3
				c-1.5,0-2.7,0.4-3.5,1.3c-0.8,0.9-1.3,2.1-1.3,3.6c0,1.4,0.4,2.6,1.2,3.4c0.8,0.8,1.9,1.3,3.3,1.3c1.4,0,2.6-0.4,3.4-1.3
				c0.8-0.9,1.3-2.1,1.3-3.5c0-1.4-0.4-2.6-1.2-3.4C40.6,4.8,39.4,4.3,38.1,4.3L38.1,4.3z M39.7,11.4c-0.4,0.5-1,0.8-1.8,0.8
				c-0.8,0-1.4-0.2-1.8-0.8c-0.4-0.5-0.6-1.3-0.6-2.2c0-1,0.2-1.7,0.6-2.2c0.4-0.5,1-0.8,1.8-0.8c0.7,0,1.3,0.2,1.8,0.8
				c0.4,0.5,0.6,1.3,0.6,2.2C40.3,10.1,40.1,10.9,39.7,11.4L39.7,11.4z M47.2,8.3c-0.7-0.3-1.1-0.5-1.3-0.7
				c-0.2-0.2-0.2-0.4-0.2-0.7c0-0.2,0.1-0.5,0.3-0.7c0.2-0.2,0.5-0.2,0.9-0.2c0.4,0,0.7,0.1,1.1,0.2s0.7,0.2,0.9,0.4l0.1,0.1v-2l0,0
				c-0.2-0.1-0.6-0.2-1-0.3c-0.4-0.1-0.7-0.1-1-0.1c-1,0-1.8,0.2-2.5,0.8c-0.6,0.5-1,1.2-1,2c0,0.4,0.1,0.8,0.2,1.1
				c0.1,0.3,0.4,0.6,0.6,0.9c0.3,0.2,0.7,0.5,1.3,0.7c0.5,0.2,0.9,0.4,1.1,0.5c0.2,0.1,0.4,0.3,0.5,0.4c0.1,0.1,0.1,0.3,0.1,0.5
				c0,0.6-0.5,0.9-1.4,0.9c-0.4,0-0.7-0.1-1.2-0.2c-0.4-0.1-0.8-0.4-1.2-0.6l-0.1-0.1v2.1l0,0c0.3,0.1,0.7,0.2,1.1,0.4
				c0.5,0.1,0.9,0.1,1.2,0.1c1.1,0,2-0.2,2.6-0.8c0.6-0.5,1-1.2,1-2.1c0-0.6-0.2-1.2-0.5-1.6C48.7,9.1,48.1,8.7,47.2,8.3L47.2,8.3z
				 M55.2,4.3c-1.5,0-2.7,0.4-3.5,1.3s-1.3,2.1-1.3,3.6c0,1.4,0.4,2.6,1.2,3.4c0.8,0.8,1.9,1.3,3.3,1.3c1.4,0,2.6-0.4,3.4-1.3
				c0.8-0.9,1.3-2.1,1.3-3.5c0-1.4-0.4-2.6-1.2-3.4C57.7,4.8,56.6,4.3,55.2,4.3L55.2,4.3z M56.9,11.4c-0.4,0.5-1,0.8-1.8,0.8
				c-0.8,0-1.4-0.2-1.8-0.8c-0.4-0.5-0.6-1.3-0.6-2.2c0-1,0.2-1.7,0.6-2.2c0.4-0.5,1-0.8,1.8-0.8c0.7,0,1.3,0.2,1.8,0.8
				c0.4,0.5,0.6,1.3,0.6,2.2C57.5,10.1,57.3,10.9,56.9,11.4L56.9,11.4z"/>
			<path id="Shape_1_" class="st0" d="M71,6.3V4.5h-2.1V1.8l-0.1,0l-2,0.6l0,0v2.1h-3.2V3.4c0-0.5,0.1-0.9,0.4-1.2
				c0.2-0.3,0.6-0.4,1-0.4c0.3,0,0.6,0.1,0.9,0.2l0.1,0V0.2l0,0C65.6,0.1,65.2,0,64.7,0C64,0,63.5,0.2,63,0.4
				c-0.5,0.3-0.9,0.7-1.2,1.2c-0.3,0.5-0.4,1.1-0.4,1.7v1.3h-1.5v1.7h1.5v7.4h2.1V6.3h3.2V11c0,1.9,0.9,2.9,2.7,2.9
				c0.3,0,0.6,0,0.9-0.1c0.3-0.1,0.5-0.1,0.7-0.2l0,0v-1.8l-0.1,0.1c-0.1,0.1-0.2,0.1-0.4,0.2c-0.2,0-0.3,0.1-0.4,0.1
				c-0.4,0-0.7-0.1-0.9-0.3c-0.2-0.2-0.3-0.6-0.3-1.2V6.3H71L71,6.3z"/>
		</g>
		<polygon id="Shape_2_" class="st0" points="0,0 10,0 10,10 0,10 		"/>
		<polygon id="Shape_3_" class="st0" points="11,0 21,0 21,10 11,10 		"/>
		<polygon id="Shape_4_" class="st0" points="0,11 10,11 10,21 0,21 		"/>
		<polygon id="Shape_5_" class="st0" points="11,11 21,11 21,21 11,21 		"/>
	</g>
</g>
</svg>
