<?xml version="1.0" encoding="UTF-8" standalone="no"?>
<svg width="88px" height="54px" viewBox="0 0 88 54" version="1.1" xmlns="http://www.w3.org/2000/svg" xmlns:xlink="http://www.w3.org/1999/xlink">
    <!-- Generator: Sketch 46.2 (44496) - http://www.bohemiancoding.com/sketch -->
    <title>Page 1</title>
    <desc>Created with Sketch.</desc>
    <defs>
        <polygon id="path-1" points="67.8461787 0.317490192 67.8461787 38.6865672 33.9793177 38.6865672 0.112456661 38.6865672 0.112456661 0.317490192 67.8461787 0.317490192"></polygon>
        <polygon id="path-3" points="0 49.4379672 0 0.685074627 67.3094829 0.685074627 67.3094829 49.4379672"></polygon>
    </defs>
    <g id="Symbols" stroke="none" stroke-width="1" fill="none" fill-rule="evenodd">
        <g id="Integrations" transform="translate(-431.000000, -235.000000)">
            <g id="Group-2" transform="translate(134.000000, 227.000000)">
                <g id="Page-1" transform="translate(297.000000, 8.000000)">
                    <g id="Group-3" transform="translate(20.052900, 14.628600)">
                        <mask id="mask-2" fill="white">
                            <use xlink:href="#path-1"></use>
                        </mask>
                        <g id="Clip-2"></g>
                        <path d="M59.6037952,19.2594627 C59.6037952,19.2594627 67.8463391,20.2137313 67.8463391,29.2083582 C67.8463391,33.5485075 65.4327721,38.6865672 59.6037952,38.6865672 L12.4289476,38.6865672 C3.37466238,38.6865672 0.112456661,32.4564179 0.112456661,26.0650746 C0.112456661,15.3319701 12.0062325,14.9523582 12.0062325,14.9523582 C12.0062325,14.9523582 12.9800013,3.20776119 23.3698097,0.830955224 C32.63826,-1.2879403 37.8520139,3.59623881 40.369856,7.36334328 C40.369856,7.36334328 46.0127419,4.10964179 52.4023979,6.94343284 C56.2092404,8.62952239 59.9527157,12.6529254 59.6037952,19.2594627" id="Fill-1" fill="#094AB2" mask="url(#mask-2)"></path>
                    </g>
                    <g id="Group-6" transform="translate(0.000000, 0.121137)">
                        <mask id="mask-4" fill="white">
                            <use xlink:href="#path-3"></use>
                        </mask>
                        <g id="Clip-5"></g>
                        <path d="M17.166004,40.9785045 C17.166004,29.0162955 29.7351616,27.2407433 29.7351616,27.2407433 C29.7351616,27.2407433 31.3417999,15.772594 42.7478892,12.8275791 C51.5848011,10.5482955 58.2840738,14.5370418 61.1404088,18.9916388 C61.1404088,18.9916388 63.0558618,17.6287433 67.3094829,17.7399672 C66.8771424,13.8100567 64.163584,5.56901194 55.2256055,2.08077313 C45.1141314,-1.86445075 36.2611772,3.05680299 32.1334884,10.5321761 C32.1334884,10.5321761 25.8817964,6.4854 18.4293367,10.2976388 C13.1915193,12.9782955 9.91888609,19.2785642 10.603091,25.3563851 C10.603091,25.3563851 -8.02115987e-05,26.1381761 -8.02115987e-05,37.5845642 C-8.02115987e-05,43.881609 5.63558672,49.4379672 11.6803328,49.4379672 L19.5699457,49.4379672 C17.6488779,46.4848925 17.166004,43.4310716 17.166004,40.9785045" id="Fill-4" fill="#094AB2" mask="url(#mask-4)"></path>
                    </g>
                </g>
            </g>
        </g>
    </g>
</svg>