<?xml version="1.0" encoding="utf-8"?>
<!-- Generator: Adobe Illustrator 21.1.0, SVG Export Plug-In . SVG Version: 6.00 Build 0)  -->
<svg version="1.1" id="Layer_1" xmlns="http://www.w3.org/2000/svg" xmlns:xlink="http://www.w3.org/1999/xlink" x="0px" y="0px"
	 viewBox="0 0 36 36" style="enable-background:new 0 0 36 36;" xml:space="preserve">
<style type="text/css">
	.st0{fill:#7E8892;}
	.st1{fill:#999999;}
	.st2{fill:#FFFFFF;}
	.st3{fill:#EEF3F3;}
	.st4{fill:#4B555F;}
</style>
<path class="st0" d="M35.9,19.1c-0.5-1.5-2.2-2.3-3.7-1.8l-3.6,1.2l-2.4-7.2l3.6-1.2c1.5-0.5,2.3-2.2,1.8-3.7
	c-0.5-1.5-2.2-2.3-3.7-1.8l-3.6,1.2L23,1.9c-0.5-1.5-2.2-2.3-3.7-1.8c-1.5,0.5-2.3,2.2-1.8,3.7l1.3,3.8l-7.5,2.5L9.9,6.3
	C9.4,4.8,7.8,4,6.2,4.5S3.9,6.6,4.4,8.2l1.3,3.8L2,13.2c-1.5,0.5-2.3,2.2-1.8,3.7c0.4,1.2,1.5,1.9,2.7,2c0.3,0,0.7,0,1-0.1l3.6-1.2
	l2.4,7.2l-3.6,1.2c-1.5,0.5-2.3,2.2-1.8,3.7c0.4,1.2,1.5,1.9,2.7,2c0.3,0,0.7,0,1-0.1l3.6-1.2l1.3,3.8c0.4,1.2,1.5,1.9,2.7,2
	c0.3,0,0.7,0,1-0.1c1.5-0.5,2.3-2.2,1.8-3.7l-1.3-3.8l7.5-2.5l1.3,3.8c0.4,1.2,1.5,1.9,2.7,2c0.3,0,0.7,0,1-0.1
	c1.5-0.5,2.3-2.2,1.8-3.7l-1.3-3.8l3.6-1.2C35.5,22.3,36.4,20.7,35.9,19.1z M15.4,23L13,15.7l7.5-2.5l2.4,7.3L15.4,23z"/>
</svg>
