<?xml version="1.0" encoding="UTF-8" standalone="no"?>
<svg width="61px" height="61px" viewBox="0 0 61 61" version="1.1" xmlns="http://www.w3.org/2000/svg" xmlns:xlink="http://www.w3.org/1999/xlink">
    <!-- Generator: Sketch 46.2 (44496) - http://www.bohemiancoding.com/sketch -->
    <title>Slack_RGB</title>
    <desc>Created with Sketch.</desc>
    <defs></defs>
    <g id="Symbols" stroke="none" stroke-width="1" fill="none" fill-rule="evenodd">
        <g id="Integrations" transform="translate(-134.000000, -231.000000)" fill-rule="nonzero">
            <g id="Group-2" transform="translate(134.000000, 227.000000)">
                <g id="Slack_RGB" transform="translate(0.000000, 4.000000)">
                    <g id="Group">
                        <path d="M39.5756098,4.01707317 C38.6333333,1.1902439 35.6081301,-0.347154472 32.7813008,0.545528455 C29.9544715,1.48780488 28.4170732,4.51300813 29.3097561,7.3398374 L43.2455285,50.1886179 C44.1878049,52.8170732 47.0642276,54.304878 49.7918699,53.5113821 C52.6682927,52.6682927 54.404065,49.6430894 53.4617886,46.8658537 C53.4617886,46.7666667 39.5756098,4.01707317 39.5756098,4.01707317 Z" id="Shape" fill="#ECB32D"></path>
                        <path d="M18.002439,11.0097561 C17.0601626,8.18292683 14.0349593,6.64552846 11.2081301,7.53821138 C8.38130081,8.4804878 6.84390244,11.5056911 7.73658537,14.3325203 L21.6723577,57.1813008 C22.6146341,59.8097561 25.4910569,61.297561 28.2186992,60.504065 C31.095122,59.6609756 32.8308943,56.6357724 31.8886179,53.8585366 C31.8886179,53.7593496 18.002439,11.0097561 18.002439,11.0097561 Z" id="Shape" fill="#63C1A0"></path>
                        <path d="M57.1317073,39.4764228 C59.9585366,38.5341463 61.495935,35.5089431 60.603252,32.6821138 C59.6609756,29.8552846 56.6357724,28.3178862 53.8089431,29.2105691 L10.9105691,43.195935 C8.28211382,44.1382114 6.79430894,47.0146341 7.58780488,49.7422764 C8.43089431,52.6186992 11.4560976,54.3544715 14.2333333,53.4121951 C14.3325203,53.4121951 57.1317073,39.4764228 57.1317073,39.4764228 Z" id="Shape" fill="#E01A59"></path>
                        <path d="M19.8373984,51.6268293 C22.6146341,50.7341463 26.2349593,49.5439024 30.103252,48.304065 C29.2105691,45.5268293 28.0203252,41.9065041 26.7804878,38.0382114 L16.5146341,41.3609756 L19.8373984,51.6268293 Z" id="Shape" fill="#331433"></path>
                        <path d="M41.4601626,44.5845528 C45.3284553,43.3447154 48.9487805,42.1544715 51.7260163,41.2617886 C50.8333333,38.4845528 49.6430894,34.8642276 48.403252,30.995935 L38.1373984,34.3186992 L41.4601626,44.5845528 Z" id="Shape" fill="#D62027"></path>
                        <path d="M50.0894309,17.903252 C52.9162602,16.9609756 54.4536585,13.9357724 53.5609756,11.1089431 C52.6186992,8.28211382 49.5934959,6.74471545 46.7666667,7.63739837 L3.91788618,21.5731707 C1.28943089,22.5154472 -0.198373984,25.3918699 0.595121951,28.1195122 C1.43821138,30.995935 4.46341463,32.7317073 7.24065041,31.7894309 C7.3398374,31.7894309 50.0894309,17.903252 50.0894309,17.903252 Z" id="Shape" fill="#89D3DF"></path>
                        <path d="M12.8447154,30.004065 C15.6219512,29.1113821 19.2422764,27.9211382 23.1105691,26.6813008 C21.8707317,22.8130081 20.6804878,19.1926829 19.7878049,16.4154472 L9.52195122,19.7382114 L12.8447154,30.004065 Z" id="Shape" fill="#258B74"></path>
                        <path d="M34.4178862,23.0113821 C38.2861789,21.7715447 41.9065041,20.5813008 44.6837398,19.6886179 C43.4439024,15.8203252 42.2536585,12.2 41.3609756,9.42276423 L31.095122,12.7455285 L34.4178862,23.0113821 Z" id="Shape" fill="#819C3C"></path>
                    </g>
                </g>
            </g>
        </g>
    </g>
</svg>