<?xml version="1.0" encoding="utf-8"?>
<!-- Generator: Adobe Illustrator 21.1.0, SVG Export Plug-In . SVG Version: 6.00 Build 0)  -->
<svg version="1.1" id="Layer_1" xmlns="http://www.w3.org/2000/svg" xmlns:xlink="http://www.w3.org/1999/xlink" x="0px" y="0px"
	 viewBox="0 0 36 36" style="enable-background:new 0 0 36 36;" xml:space="preserve">
<style type="text/css">
	.st0{fill:#7E8892;}
	.st1{fill:#999999;}
	.st2{fill:#FFFFFF;}
	.st3{fill:#EEF3F3;}
	.st4{fill:#4B555F;}
</style>
<g>
	<g id="Logo__x2014__FIXED">
		<path class="st0" d="M11.3,32.6c13.6,0,21-11.3,21-21c0-0.3,0-0.6,0-1c1.4-1,2.7-2.3,3.7-3.8c-1.3,0.6-2.7,1-4.2,1.2
			c1.5-0.9,2.7-2.4,3.2-4.1c-1.4,0.8-3,1.5-4.7,1.8C29,4.3,27,3.4,24.9,3.4c-4.1,0-7.4,3.3-7.4,7.4c0,0.6,0.1,1.1,0.2,1.7
			C11.6,12.1,6.1,9.2,2.5,4.7c-0.6,1.1-1,2.4-1,3.7c0,2.6,1.3,4.8,3.3,6.1c-1.2,0-2.3-0.4-3.3-0.9c0,0,0,0.1,0,0.1
			c0,3.6,2.5,6.6,5.9,7.2c-0.6,0.2-1.3,0.3-1.9,0.3c-0.5,0-0.9,0-1.4-0.1c0.9,2.9,3.7,5.1,6.9,5.1c-2.5,2-5.7,3.2-9.2,3.2
			c-0.6,0-1.2,0-1.8-0.1C3.2,31.4,7.1,32.6,11.3,32.6"/>
	</g>
</g>
</svg>
